iA Writer Duospace-Bold.ufo
<glyph name="exclam" format="1">
  <advance width="600"/>
  <unicode hex="0021"/>
  <outline>
    <contour>
      <point x="219" y="495" type="line"/>
      <point x="276" y="243" type="line"/>
      <point x="324" y="243" type="line"/>
      <point x="381" y="495" type="line"/>
      <point x="381" y="698" type="line"/>
      <point x="219" y="698" type="line"/>
    </contour>
    <contour>
      <point x="300" y="-12" type="curve"/>
      <point x="371" y="-12"/>
      <point x="398" y="23"/>
      <point x="398" y="66" type="curve"/>
      <point x="398" y="98" type="line" smooth="yes"/>
      <point x="398" y="140"/>
      <point x="371" y="175"/>
      <point x="300" y="175" type="curve"/>
      <point x="229" y="175"/>
      <point x="202" y="140"/>
      <point x="202" y="98" type="curve"/>
      <point x="202" y="66" type="line" smooth="yes"/>
      <point x="202" y="23"/>
      <point x="229" y="-12"/>
    </contour>
  </outline>
</glyph>
<glyph name="quotedbl" format="1">
  <advance width="600"/>
  <unicode hex="0022"/>
  <outline>
    <contour>
      <point x="347" y="740" type="line"/>
      <point x="347" y="414" type="line"/>
      <point x="479" y="414" type="line"/>
      <point x="479" y="740" type="line"/>
    </contour>
    <contour>
      <point x="121" y="740" type="line"/>
      <point x="121" y="414" type="line"/>
      <point x="253" y="414" type="line"/>
      <point x="253" y="740" type="line"/>
    </contour>
  </outline>
</glyph>
<glyph name="percent" format="1">
  <advance width="900"/>
  <unicode hex="0025"/>
  <outline>
    <contour>
      <point x="623" y="698" type="line"/>
      <point x="139" y="0" type="line"/>
      <point x="271" y="0" type="line"/>
      <point x="755" y="698" type="line"/>
    </contour>
    <contour>
      <point x="190" y="314" type="curve"/>
      <point x="306" y="314"/>
      <point x="370" y="382"/>
      <point x="370" y="512" type="curve"/>
      <point x="370" y="642"/>
      <point x="306" y="710"/>
      <point x="190" y="710" type="curve"/>
      <point x="74" y="710"/>
      <point x="10" y="642"/>
      <point x="10" y="512" type="curve"/>
      <point x="10" y="382"/>
      <point x="74" y="314"/>
    </contour>
    <contour>
      <point x="190" y="400" type="curve"/>
      <point x="156" y="400"/>
      <point x="138" y="426"/>
      <point x="138" y="486" type="curve"/>
      <point x="138" y="538" type="line" smooth="yes"/>
      <point x="138" y="598"/>
      <point x="156" y="624"/>
      <point x="190" y="624" type="curve"/>
      <point x="224" y="624"/>
      <point x="242" y="598"/>
      <point x="242" y="538" type="curve"/>
      <point x="242" y="486" type="line" smooth="yes"/>
      <point x="242" y="426"/>
      <point x="224" y="400"/>
    </contour>
    <contour>
      <point x="704" y="-12" type="curve"/>
      <point x="820" y="-12"/>
      <point x="884" y="56"/>
      <point x="884" y="186" type="curve"/>
      <point x="884" y="316"/>
      <point x="820" y="384"/>
      <point x="704" y="384" type="curve"/>
      <point x="588" y="384"/>
      <point x="524" y="316"/>
      <point x="524" y="186" type="curve"/>
      <point x="524" y="56"/>
      <point x="588" y="-12"/>
    </contour>
    <contour>
      <point x="704" y="74" type="curve"/>
      <point x="670" y="74"/>
      <point x="652" y="100"/>
      <point x="652" y="160" type="curve"/>
      <point x="652" y="212" type="line" smooth="yes"/>
      <point x="652" y="272"/>
      <point x="670" y="298"/>
      <point x="704" y="298" type="curve"/>
      <point x="738" y="298"/>
      <point x="756" y="272"/>
      <point x="756" y="212" type="curve"/>
      <point x="756" y="160" type="line" smooth="yes"/>
      <point x="756" y="100"/>
      <point x="738" y="74"/>
    </contour>
  </outline>
</glyph>
<glyph name="quotesingle" format="1">
  <advance width="600"/>
  <unicode hex="0027"/>
  <outline>
    <contour>
      <point x="234" y="740" type="line"/>
      <point x="234" y="414" type="line"/>
      <point x="366" y="414" type="line"/>
      <point x="366" y="740" type="line"/>
    </contour>
  </outline>
</glyph>
<glyph name="parenright" format="1">
  <advance width="600"/>
  <unicode hex="0029"/>
  <outline>
    <contour>
      <point x="426" y="311" type="curve"/>
      <point x="426" y="506"/>
      <point x="331" y="676"/>
      <point x="218" y="760" type="curve"/>
      <point x="70" y="760" type="line"/>
      <point x="194" y="675"/>
      <point x="302" y="529"/>
      <point x="302" y="362" type="curve"/>
      <point x="302" y="260" type="line" smooth="yes"/>
      <point x="302" y="93"/>
      <point x="194" y="-53"/>
      <point x="70" y="-138" type="curve"/>
      <point x="218" y="-138" type="line"/>
      <point x="331" y="-54"/>
      <point x="426" y="116"/>
    </contour>
  </outline>
</glyph>
<glyph name="period" format="1">
  <advance width="600"/>
  <unicode hex="002E"/>
  <outline>
    <contour>
      <point x="300" y="-12" type="curve"/>
      <point x="375" y="-12"/>
      <point x="405" y="26"/>
      <point x="405" y="71" type="curve"/>
      <point x="405" y="106" type="line" smooth="yes"/>
      <point x="405" y="151"/>
      <point x="375" y="189"/>
      <point x="300" y="189" type="curve"/>
      <point x="225" y="189"/>
      <point x="195" y="151"/>
      <point x="195" y="106" type="curve"/>
      <point x="195" y="71" type="line" smooth="yes"/>
      <point x="195" y="26"/>
      <point x="225" y="-12"/>
    </contour>
  </outline>
</glyph>
<glyph name="zero" format="1">
  <advance width="600"/>
  <unicode hex="0030"/>
  <outline>
    <contour>
      <point x="300" y="-12" type="curve"/>
      <point x="487" y="-12"/>
      <point x="573" y="121"/>
      <point x="573" y="349" type="curve"/>
      <point x="573" y="577"/>
      <point x="487" y="710"/>
      <point x="300" y="710" type="curve"/>
      <point x="113" y="710"/>
      <point x="27" y="577"/>
      <point x="27" y="349" type="curve"/>
      <point x="27" y="121"/>
      <point x="113" y="-12"/>
    </contour>
    <contour>
      <point x="300" y="106" type="curve"/>
      <point x="211" y="106"/>
      <point x="180" y="173"/>
      <point x="180" y="284" type="curve"/>
      <point x="180" y="414" type="line" smooth="yes"/>
      <point x="180" y="525"/>
      <point x="211" y="592"/>
      <point x="300" y="592" type="curve"/>
      <point x="389" y="592"/>
      <point x="420" y="525"/>
      <point x="420" y="414" type="curve"/>
      <point x="420" y="284" type="line" smooth="yes"/>
      <point x="420" y="173"/>
      <point x="389" y="106"/>
    </contour>
    <contour>
      <point x="300" y="290" type="curve"/>
      <point x="346" y="290"/>
      <point x="362" y="311"/>
      <point x="362" y="338" type="curve"/>
      <point x="362" y="360" type="line" smooth="yes"/>
      <point x="362" y="387"/>
      <point x="346" y="408"/>
      <point x="300" y="408" type="curve"/>
      <point x="254" y="408"/>
      <point x="238" y="387"/>
      <point x="238" y="360" type="curve"/>
      <point x="238" y="338" type="line" smooth="yes"/>
      <point x="238" y="311"/>
      <point x="254" y="290"/>
    </contour>
  </outline>
</glyph>
<glyph name="one" format="1">
  <advance width="600"/>
  <unicode hex="0031"/>
  <outline>
    <contour>
      <point x="76" y="121" type="line"/>
      <point x="76" y="0" type="line"/>
      <point x="562" y="0" type="line"/>
      <point x="562" y="121" type="line"/>
      <point x="404" y="121" type="line"/>
      <point x="404" y="698" type="line"/>
      <point x="246" y="698" type="line"/>
      <point x="35" y="583" type="line"/>
      <point x="92" y="475" type="line"/>
      <point x="254" y="564" type="line"/>
      <point x="254" y="121" type="line"/>
    </contour>
  </outline>
</glyph>
<glyph name="four" format="1">
  <advance width="600"/>
  <unicode hex="0034"/>
  <outline>
    <contour>
      <point x="339" y="134" type="line"/>
      <point x="339" y="0" type="line"/>
      <point x="483" y="0" type="line"/>
      <point x="483" y="134" type="line"/>
      <point x="573" y="134" type="line"/>
      <point x="573" y="250" type="line"/>
      <point x="483" y="250" type="line"/>
      <point x="483" y="698" type="line"/>
      <point x="303" y="698" type="line"/>
      <point x="25" y="262" type="line"/>
      <point x="25" y="134" type="line"/>
    </contour>
    <contour>
      <point x="339" y="250" type="line"/>
      <point x="146" y="250" type="line"/>
      <point x="330" y="543" type="line"/>
      <point x="339" y="543" type="line"/>
    </contour>
  </outline>
</glyph>
<glyph name="seven" format="1">
  <advance width="600"/>
  <unicode hex="0037"/>
  <outline>
    <contour>
      <point x="404" y="576" type="line"/>
      <point x="164" y="0" type="line"/>
      <point x="322" y="0" type="line"/>
      <point x="553" y="568" type="line"/>
      <point x="553" y="698" type="line"/>
      <point x="51" y="698" type="line"/>
      <point x="51" y="449" type="line"/>
      <point x="178" y="449" type="line"/>
      <point x="178" y="576" type="line"/>
    </contour>
  </outline>
</glyph>
<glyph name="semicolon" format="1">
  <advance width="600"/>
  <unicode hex="003B"/>
  <outline>
    <contour>
      <point x="300" y="327" type="curve"/>
      <point x="375" y="327"/>
      <point x="405" y="365"/>
      <point x="405" y="410" type="curve"/>
      <point x="405" y="445" type="line" smooth="yes"/>
      <point x="405" y="490"/>
      <point x="375" y="528"/>
      <point x="300" y="528" type="curve"/>
      <point x="225" y="528"/>
      <point x="195" y="490"/>
      <point x="195" y="445" type="curve"/>
      <point x="195" y="410" type="line" smooth="yes"/>
      <point x="195" y="365"/>
      <point x="225" y="327"/>
    </contour>
    <contour>
      <point x="417" y="174" type="line"/>
      <point x="227" y="174" type="line"/>
      <point x="170" y="-151" type="line"/>
      <point x="280" y="-151" type="line"/>
    </contour>
  </outline>
</glyph>
<glyph name="less" format="1">
  <advance width="600"/>
  <unicode hex="003C"/>
  <outline>
    <contour>
      <point x="85" y="374" type="line"/>
      <point x="85" y="236" type="line"/>
      <point x="515" y="6" type="line"/>
      <point x="515" y="144" type="line"/>
      <point x="218" y="301" type="line"/>
      <point x="218" y="309" type="line"/>
      <point x="515" y="466" type="line"/>
      <point x="515" y="604" type="line"/>
    </contour>
  </outline>
</glyph>
<glyph name="equal" format="1">
  <advance width="600"/>
  <unicode hex="003D"/>
  <outline>
    <contour>
      <point x="62" y="479" type="line"/>
      <point x="62" y="361" type="line"/>
      <point x="538" y="361" type="line"/>
      <point x="538" y="479" type="line"/>
    </contour>
    <contour>
      <point x="62" y="249" type="line"/>
      <point x="62" y="131" type="line"/>
      <point x="538" y="131" type="line"/>
      <point x="538" y="249" type="line"/>
    </contour>
  </outline>
</glyph>
<glyph name="greater" format="1">
  <advance width="600"/>
  <unicode hex="003E"/>
  <outline>
    <contour>
      <point x="382" y="301" type="line"/>
      <point x="85" y="144" type="line"/>
      <point x="85" y="6" type="line"/>
      <point x="515" y="236" type="line"/>
      <point x="515" y="374" type="line"/>
      <point x="85" y="604" type="line"/>
      <point x="85" y="466" type="line"/>
      <point x="382" y="309" type="line"/>
    </contour>
  </outline>
</glyph>
<glyph name="question" format="1">
  <advance width="600"/>
  <unicode hex="003F"/>
  <outline>
    <contour>
      <point x="208" y="386" type="curve"/>
      <point x="208" y="233" type="line"/>
      <point x="348" y="233" type="line"/>
      <point x="348" y="305" type="line"/>
      <point x="444" y="321"/>
      <point x="527" y="392"/>
      <point x="527" y="505" type="curve"/>
      <point x="527" y="626"/>
      <point x="433" y="710"/>
      <point x="291" y="710" type="curve"/>
      <point x="153" y="710"/>
      <point x="84" y="630"/>
      <point x="61" y="550" type="curve"/>
      <point x="183" y="499" type="line"/>
      <point x="196" y="549"/>
      <point x="232" y="584"/>
      <point x="286" y="584" type="curve"/>
      <point x="334" y="584"/>
      <point x="371" y="561"/>
      <point x="371" y="506" type="curve"/>
      <point x="371" y="492" type="line" smooth="yes"/>
      <point x="371" y="416"/>
      <point x="308" y="390"/>
    </contour>
    <contour>
      <point x="280" y="-12" type="curve"/>
      <point x="351" y="-12"/>
      <point x="379" y="23"/>
      <point x="379" y="66" type="curve"/>
      <point x="379" y="98" type="line" smooth="yes"/>
      <point x="379" y="140"/>
      <point x="351" y="175"/>
      <point x="280" y="175" type="curve"/>
      <point x="210" y="175"/>
      <point x="182" y="140"/>
      <point x="182" y="98" type="curve"/>
      <point x="182" y="66" type="line" smooth="yes"/>
      <point x="182" y="23"/>
      <point x="210" y="-12"/>
    </contour>
  </outline>
</glyph>
<glyph name="D" format="1">
  <advance width="600"/>
  <unicode hex="0044"/>
  <outline>
    <contour>
      <point x="289" y="698" type="curve"/>
      <point x="64" y="698" type="line"/>
      <point x="64" y="0" type="line"/>
      <point x="289" y="0" type="line" smooth="yes"/>
      <point x="476" y="0"/>
      <point x="566" y="125"/>
      <point x="566" y="349" type="curve"/>
      <point x="566" y="573"/>
      <point x="476" y="698"/>
    </contour>
    <contour>
      <point x="279" y="118" type="curve"/>
      <point x="212" y="118" type="line"/>
      <point x="212" y="580" type="line"/>
      <point x="279" y="580" type="line" smooth="yes"/>
      <point x="368" y="580"/>
      <point x="408" y="521"/>
      <point x="408" y="413" type="curve"/>
      <point x="408" y="286" type="line" smooth="yes"/>
      <point x="408" y="177"/>
      <point x="368" y="118"/>
    </contour>
  </outline>
</glyph>
<glyph name="E" format="1">
  <advance width="600"/>
  <unicode hex="0045"/>
  <outline>
    <contour>
      <point x="80" y="698" type="line"/>
      <point x="80" y="0" type="line"/>
      <point x="526" y="0" type="line"/>
      <point x="526" y="123" type="line"/>
      <point x="230" y="123" type="line"/>
      <point x="230" y="292" type="line"/>
      <point x="516" y="292" type="line"/>
      <point x="516" y="415" type="line"/>
      <point x="230" y="415" type="line"/>
      <point x="230" y="575" type="line"/>
      <point x="526" y="575" type="line"/>
      <point x="526" y="698" type="line"/>
    </contour>
  </outline>
</glyph>
<glyph name="F" format="1">
  <advance width="600"/>
  <unicode hex="0046"/>
  <outline>
    <contour>
      <point x="80" y="698" type="line"/>
      <point x="80" y="0" type="line"/>
      <point x="230" y="0" type="line"/>
      <point x="230" y="292" type="line"/>
      <point x="510" y="292" type="line"/>
      <point x="510" y="415" type="line"/>
      <point x="230" y="415" type="line"/>
      <point x="230" y="575" type="line"/>
      <point x="543" y="575" type="line"/>
      <point x="543" y="698" type="line"/>
    </contour>
  </outline>
</glyph>
<glyph name="I" format="1">
  <advance width="600"/>
  <unicode hex="0049"/>
  <outline>
    <contour>
      <point x="75" y="111" type="line"/>
      <point x="75" y="0" type="line"/>
      <point x="525" y="0" type="line"/>
      <point x="525" y="111" type="line"/>
      <point x="375" y="111" type="line"/>
      <point x="375" y="587" type="line"/>
      <point x="525" y="587" type="line"/>
      <point x="525" y="698" type="line"/>
      <point x="75" y="698" type="line"/>
      <point x="75" y="587" type="line"/>
      <point x="225" y="587" type="line"/>
      <point x="225" y="111" type="line"/>
    </contour>
  </outline>
</glyph>
<glyph name="K" format="1">
  <advance width="600"/>
  <unicode hex="004B"/>
  <outline>
    <contour>
      <point x="218" y="204" type="line"/>
      <point x="280" y="291" type="line"/>
      <point x="434" y="0" type="line"/>
      <point x="603" y="0" type="line"/>
      <point x="384" y="403" type="line"/>
      <point x="593" y="698" type="line"/>
      <point x="425" y="698" type="line"/>
      <point x="302" y="522" type="line"/>
      <point x="226" y="406" type="line"/>
      <point x="218" y="406" type="line"/>
      <point x="218" y="698" type="line"/>
      <point x="68" y="698" type="line"/>
      <point x="68" y="0" type="line"/>
      <point x="218" y="0" type="line"/>
    </contour>
  </outline>
</glyph>
<glyph name="L" format="1">
  <advance width="600"/>
  <unicode hex="004C"/>
  <outline>
    <contour>
      <point x="92" y="698" type="line"/>
      <point x="92" y="0" type="line"/>
      <point x="543" y="0" type="line"/>
      <point x="543" y="123" type="line"/>
      <point x="243" y="123" type="line"/>
      <point x="243" y="698" type="line"/>
    </contour>
  </outline>
</glyph>
<glyph name="M" format="1">
  <advance width="900"/>
  <unicode hex="004D"/>
  <outline>
    <contour>
      <point x="636" y="458" type="line"/>
      <point x="639" y="458" type="line"/>
      <point x="639" y="0" type="line"/>
      <point x="782" y="0" type="line"/>
      <point x="782" y="698" type="line"/>
      <point x="620" y="698" type="line"/>
      <point x="451" y="371" type="line"/>
      <point x="449" y="371" type="line"/>
      <point x="278" y="698" type="line"/>
      <point x="117" y="698" type="line"/>
      <point x="117" y="0" type="line"/>
      <point x="260" y="0" type="line"/>
      <point x="260" y="465" type="line"/>
      <point x="263" y="465" type="line"/>
      <point x="316" y="355" type="line"/>
      <point x="449" y="109" type="line"/>
      <point x="585" y="356" type="line"/>
    </contour>
  </outline>
</glyph>
<glyph name="N" format="1">
  <advance width="600"/>
  <unicode hex="004E"/>
  <outline>
    <contour>
      <point x="189" y="464" type="line"/>
      <point x="200" y="464" type="line"/>
      <point x="359" y="0" type="line"/>
      <point x="539" y="0" type="line"/>
      <point x="539" y="698" type="line"/>
      <point x="411" y="698" type="line"/>
      <point x="411" y="234" type="line"/>
      <point x="400" y="234" type="line"/>
      <point x="241" y="698" type="line"/>
      <point x="61" y="698" type="line"/>
      <point x="61" y="0" type="line"/>
      <point x="189" y="0" type="line"/>
    </contour>
  </outline>
</glyph>
<glyph name="P" format="1">
  <advance width="600"/>
  <unicode hex="0050"/>
  <outline>
    <contour>
      <point x="76" y="698" type="line"/>
      <point x="76" y="0" type="line"/>
      <point x="227" y="0" type="line"/>
      <point x="227" y="254" type="line"/>
      <point x="346" y="254" type="line" smooth="yes"/>
      <point x="483" y="254"/>
      <point x="560" y="341"/>
      <point x="560" y="476" type="curve"/>
      <point x="560" y="611"/>
      <point x="483" y="698"/>
      <point x="346" y="698" type="curve"/>
    </contour>
    <contour>
      <point x="308" y="375" type="curve"/>
      <point x="227" y="375" type="line"/>
      <point x="227" y="577" type="line"/>
      <point x="308" y="577" type="line" smooth="yes"/>
      <point x="378" y="577"/>
      <point x="402" y="552"/>
      <point x="402" y="491" type="curve"/>
      <point x="402" y="461" type="line" smooth="yes"/>
      <point x="402" y="400"/>
      <point x="378" y="375"/>
    </contour>
  </outline>
</glyph>
<glyph name="T" format="1">
  <advance width="600"/>
  <unicode hex="0054"/>
  <outline>
    <contour>
      <point x="375" y="0" type="line"/>
      <point x="375" y="575" type="line"/>
      <point x="576" y="575" type="line"/>
      <point x="576" y="698" type="line"/>
      <point x="24" y="698" type="line"/>
      <point x="24" y="575" type="line"/>
      <point x="225" y="575" type="line"/>
      <point x="225" y="0" type="line"/>
    </contour>
  </outline>
</glyph>
<glyph name="U" format="1">
  <advance width="600"/>
  <unicode hex="0055"/>
  <outline>
    <contour>
      <point x="205" y="256" type="curve"/>
      <point x="205" y="698" type="line"/>
      <point x="55" y="698" type="line"/>
      <point x="55" y="276" type="line" smooth="yes"/>
      <point x="55" y="85"/>
      <point x="97" y="-12"/>
      <point x="300" y="-12" type="curve"/>
      <point x="503" y="-12"/>
      <point x="545" y="85"/>
      <point x="545" y="276" type="curve"/>
      <point x="545" y="698" type="line"/>
      <point x="395" y="698" type="line"/>
      <point x="395" y="256" type="line" smooth="yes"/>
      <point x="395" y="167"/>
      <point x="388" y="109"/>
      <point x="300" y="109" type="curve"/>
      <point x="212" y="109"/>
      <point x="205" y="167"/>
    </contour>
  </outline>
</glyph>
<glyph name="V" format="1">
  <advance width="600"/>
  <unicode hex="0056"/>
  <outline>
    <contour>
      <point x="9" y="698" type="line"/>
      <point x="194" y="0" type="line"/>
      <point x="406" y="0" type="line"/>
      <point x="591" y="698" type="line"/>
      <point x="432" y="698" type="line"/>
      <point x="349" y="343" type="line"/>
      <point x="307" y="142" type="line"/>
      <point x="299" y="142" type="line"/>
      <point x="258" y="343" type="line"/>
      <point x="176" y="698" type="line"/>
    </contour>
  </outline>
</glyph>
<glyph name="W" format="1">
  <advance width="900"/>
  <unicode hex="0057"/>
  <outline>
    <contour>
      <point x="-7" y="698" type="line"/>
      <point x="151" y="0" type="line"/>
      <point x="325" y="0" type="line"/>
      <point x="413" y="378" type="line"/>
      <point x="448" y="531" type="line"/>
      <point x="451" y="531" type="line"/>
      <point x="485" y="378" type="line"/>
      <point x="573" y="0" type="line"/>
      <point x="746" y="0" type="line"/>
      <point x="908" y="698" type="line"/>
      <point x="764" y="698" type="line"/>
      <point x="697" y="363" type="line"/>
      <point x="660" y="169" type="line"/>
      <point x="657" y="169" type="line"/>
      <point x="614" y="363" type="line"/>
      <point x="536" y="698" type="line"/>
      <point x="370" y="698" type="line"/>
      <point x="293" y="363" type="line"/>
      <point x="249" y="169" type="line"/>
      <point x="246" y="169" type="line"/>
      <point x="209" y="363" type="line"/>
      <point x="143" y="698" type="line"/>
    </contour>
  </outline>
</glyph>
<glyph name="bracketleft" format="1">
  <advance width="600"/>
  <unicode hex="005B"/>
  <outline>
    <contour>
      <point x="183" y="760" type="line"/>
      <point x="183" y="-138" type="line"/>
      <point x="507" y="-138" type="line"/>
      <point x="507" y="-39" type="line"/>
      <point x="302" y="-39" type="line"/>
      <point x="302" y="661" type="line"/>
      <point x="507" y="661" type="line"/>
      <point x="507" y="760" type="line"/>
    </contour>
  </outline>
</glyph>
<glyph name="backslash" format="1">
  <advance width="600"/>
  <unicode hex="005C"/>
  <outline>
    <contour>
      <point x="73" y="760" type="line"/>
      <point x="394" y="-138" type="line"/>
      <point x="527" y="-138" type="line"/>
      <point x="206" y="760" type="line"/>
    </contour>
  </outline>
</glyph>
<glyph name="bracketright" format="1">
  <advance width="600"/>
  <unicode hex="005D"/>
  <outline>
    <contour>
      <point x="417" y="-138" type="line"/>
      <point x="417" y="760" type="line"/>
      <point x="93" y="760" type="line"/>
      <point x="93" y="661" type="line"/>
      <point x="298" y="661" type="line"/>
      <point x="298" y="-39" type="line"/>
      <point x="93" y="-39" type="line"/>
      <point x="93" y="-138" type="line"/>
    </contour>
  </outline>
</glyph>
<glyph name="asciicircum" format="1">
  <advance width="600"/>
  <unicode hex="005E"/>
  <outline>
    <contour>
      <point x="303" y="562" type="line"/>
      <point x="456" y="239" type="line"/>
      <point x="573" y="293" type="line"/>
      <point x="379" y="698" type="line"/>
      <point x="222" y="698" type="line"/>
      <point x="27" y="293" type="line"/>
      <point x="138" y="239" type="line"/>
      <point x="291" y="562" type="line"/>
    </contour>
  </outline>
</glyph>
<glyph name="grave" format="1">
  <advance width="600"/>
  <unicode hex="0060"/>
  <outline>
    <contour>
      <point x="273" y="807" type="line"/>
      <point x="150" y="746" type="line"/>
      <point x="284" y="570" type="line"/>
      <point x="372" y="613" type="line"/>
    </contour>
  </outline>
</glyph>
<glyph name="i" format="1">
  <advance width="600"/>
  <unicode hex="0069"/>
  <outline>
    <contour>
      <point x="332" y="582" type="curve"/>
      <point x="398" y="582"/>
      <point x="421" y="613"/>
      <point x="421" y="652" type="curve"/>
      <point x="421" y="681" type="line" smooth="yes"/>
      <point x="421" y="721"/>
      <point x="398" y="751"/>
      <point x="332" y="751" type="curve"/>
      <point x="266" y="751"/>
      <point x="243" y="721"/>
      <point x="243" y="681" type="curve"/>
      <point x="243" y="652" type="line" smooth="yes"/>
      <point x="243" y="613"/>
      <point x="266" y="582"/>
    </contour>
    <contour>
      <point x="258" y="115" type="line"/>
      <point x="94" y="115" type="line"/>
      <point x="94" y="0" type="line"/>
      <point x="558" y="0" type="line"/>
      <point x="558" y="115" type="line"/>
      <point x="406" y="115" type="line"/>
      <point x="406" y="516" type="line"/>
      <point x="94" y="516" type="line"/>
      <point x="94" y="401" type="line"/>
      <point x="258" y="401" type="line"/>
    </contour>
  </outline>
</glyph>
<glyph name="j" format="1">
  <advance width="600"/>
  <unicode hex="006A"/>
  <outline>
    <contour>
      <point x="290" y="-85" type="line"/>
      <point x="92" y="-85" type="line"/>
      <point x="92" y="-200" type="line"/>
      <point x="281" y="-200" type="line" smooth="yes"/>
      <point x="387" y="-200"/>
      <point x="438" y="-138"/>
      <point x="438" y="-51" type="curve"/>
      <point x="438" y="516" type="line"/>
      <point x="90" y="516" type="line"/>
      <point x="90" y="401" type="line"/>
      <point x="290" y="401" type="line"/>
    </contour>
    <contour>
      <point x="364" y="582" type="curve"/>
      <point x="429" y="582"/>
      <point x="453" y="613"/>
      <point x="453" y="652" type="curve"/>
      <point x="453" y="681" type="line" smooth="yes"/>
      <point x="453" y="721"/>
      <point x="429" y="751"/>
      <point x="364" y="751" type="curve"/>
      <point x="298" y="751"/>
      <point x="275" y="721"/>
      <point x="275" y="681" type="curve"/>
      <point x="275" y="652" type="line" smooth="yes"/>
      <point x="275" y="613"/>
      <point x="298" y="582"/>
    </contour>
  </outline>
</glyph>
<glyph name="l" format="1">
  <advance width="600"/>
  <unicode hex="006C"/>
  <outline>
    <contour>
      <point x="226" y="115" type="line"/>
      <point x="68" y="115" type="line"/>
      <point x="68" y="0" type="line"/>
      <point x="532" y="0" type="line"/>
      <point x="532" y="115" type="line"/>
      <point x="374" y="115" type="line"/>
      <point x="374" y="740" type="line"/>
      <point x="68" y="740" type="line"/>
      <point x="68" y="625" type="line"/>
      <point x="226" y="625" type="line"/>
    </contour>
  </outline>
</glyph>
<glyph name="r" format="1">
  <advance width="600"/>
  <unicode hex="0072"/>
  <outline>
    <contour>
      <point x="193" y="115" type="line"/>
      <point x="74" y="115" type="line"/>
      <point x="74" y="0" type="line"/>
      <point x="511" y="0" type="line"/>
      <point x="511" y="115" type="line"/>
      <point x="341" y="115" type="line"/>
      <point x="341" y="293" type="line" smooth="yes"/>
      <point x="341" y="351"/>
      <point x="386" y="380"/>
      <point x="452" y="380" type="curve"/>
      <point x="562" y="380" type="line"/>
      <point x="562" y="516" type="line"/>
      <point x="513" y="516" type="line" smooth="yes"/>
      <point x="419" y="516"/>
      <point x="370" y="450"/>
      <point x="348" y="382" type="curve"/>
      <point x="341" y="382" type="line"/>
      <point x="341" y="516" type="line"/>
      <point x="74" y="516" type="line"/>
      <point x="74" y="401" type="line"/>
      <point x="193" y="401" type="line"/>
    </contour>
  </outline>
</glyph>
<glyph name="v" format="1">
  <advance width="600"/>
  <unicode hex="0076"/>
  <outline>
    <contour>
      <point x="27" y="516" type="line"/>
      <point x="212" y="0" type="line"/>
      <point x="388" y="0" type="line"/>
      <point x="573" y="516" type="line"/>
      <point x="423" y="516" type="line"/>
      <point x="356" y="295" type="line"/>
      <point x="307" y="123" type="line"/>
      <point x="299" y="123" type="line"/>
      <point x="250" y="295" type="line"/>
      <point x="183" y="516" type="line"/>
    </contour>
  </outline>
</glyph>
<glyph name="w" format="1">
  <advance width="900"/>
  <unicode hex="0077"/>
  <outline>
    <contour>
      <point x="192" y="525" type="line"/>
      <point x="49" y="525" type="line"/>
      <point x="196" y="0" type="line"/>
      <point x="348" y="0" type="line"/>
      <point x="412" y="222" type="line"/>
      <point x="448" y="358" type="line"/>
      <point x="451" y="358" type="line"/>
      <point x="488" y="222" type="line"/>
      <point x="552" y="0" type="line"/>
      <point x="707" y="0" type="line"/>
      <point x="852" y="525" type="line"/>
      <point x="715" y="525" type="line"/>
      <point x="664" y="313" type="line"/>
      <point x="628" y="153" type="line"/>
      <point x="624" y="153" type="line"/>
      <point x="581" y="313" type="line"/>
      <point x="520" y="525" type="line"/>
      <point x="385" y="525" type="line"/>
      <point x="325" y="313" type="line"/>
      <point x="283" y="153" type="line"/>
      <point x="279" y="153" type="line"/>
      <point x="243" y="313" type="line"/>
    </contour>
  </outline>
</glyph>
<glyph name="x" format="1">
  <advance width="600"/>
  <unicode hex="0078"/>
  <outline>
    <contour>
      <point x="216" y="262" type="line"/>
      <point x="23" y="0" type="line"/>
      <point x="179" y="0" type="line"/>
      <point x="245" y="97" type="line"/>
      <point x="289" y="166" type="line"/>
      <point x="297" y="166" type="line"/>
      <point x="342" y="97" type="line"/>
      <point x="407" y="0" type="line"/>
      <point x="577" y="0" type="line"/>
      <point x="384" y="270" type="line"/>
      <point x="564" y="516" type="line"/>
      <point x="409" y="516" type="line"/>
      <point x="353" y="433" type="line"/>
      <point x="310" y="366" type="line"/>
      <point x="302" y="366" type="line"/>
      <point x="260" y="433" type="line"/>
      <point x="205" y="516" type="line"/>
      <point x="36" y="516" type="line"/>
    </contour>
  </outline>
</glyph>
<glyph name="braceright" format="1">
  <advance width="600"/>
  <unicode hex="007D"/>
  <outline>
    <contour>
      <point x="270" y="760" type="curve"/>
      <point x="92" y="760" type="line"/>
      <point x="92" y="661" type="line"/>
      <point x="277" y="661" type="line"/>
      <point x="277" y="613" type="line" smooth="yes"/>
      <point x="277" y="563"/>
      <point x="257" y="541"/>
      <point x="237" y="515" type="curve"/>
      <point x="214" y="487"/>
      <point x="190" y="456"/>
      <point x="190" y="414" type="curve"/>
      <point x="190" y="359"/>
      <point x="228" y="324"/>
      <point x="308" y="315" type="curve"/>
      <point x="308" y="307" type="line"/>
      <point x="228" y="298"/>
      <point x="190" y="263"/>
      <point x="190" y="208" type="curve"/>
      <point x="190" y="166"/>
      <point x="214" y="135"/>
      <point x="237" y="107" type="curve"/>
      <point x="257" y="81"/>
      <point x="277" y="59"/>
      <point x="277" y="9" type="curve"/>
      <point x="277" y="-39" type="line"/>
      <point x="92" y="-39" type="line"/>
      <point x="92" y="-138" type="line"/>
      <point x="270" y="-138" type="line" smooth="yes"/>
      <point x="361" y="-138"/>
      <point x="396" y="-93"/>
      <point x="396" y="-30" type="curve"/>
      <point x="396" y="15" type="line" smooth="yes"/>
      <point x="396" y="82"/>
      <point x="364" y="114"/>
      <point x="340" y="142" type="curve"/>
      <point x="318" y="169"/>
      <point x="310" y="186"/>
      <point x="310" y="207" type="curve"/>
      <point x="310" y="241"/>
      <point x="347" y="261"/>
      <point x="418" y="261" type="curve"/>
      <point x="508" y="261" type="line"/>
      <point x="508" y="361" type="line"/>
      <point x="418" y="361" type="line" smooth="yes"/>
      <point x="347" y="361"/>
      <point x="310" y="381"/>
      <point x="310" y="415" type="curve"/>
      <point x="310" y="436"/>
      <point x="318" y="453"/>
      <point x="340" y="480" type="curve"/>
      <point x="364" y="508"/>
      <point x="396" y="540"/>
      <point x="396" y="607" type="curve"/>
      <point x="396" y="652" type="line" smooth="yes"/>
      <point x="396" y="715"/>
      <point x="361" y="760"/>
    </contour>
  </outline>
</glyph>
<glyph name="asciitilde" format="1">
  <advance width="600"/>
  <unicode hex="007E"/>
  <outline>
    <contour>
      <point x="418" y="210" type="curve"/>
      <point x="485" y="210"/>
      <point x="527" y="238"/>
      <point x="552" y="272" type="curve"/>
      <point x="502" y="356" type="line"/>
      <point x="473" y="337"/>
      <point x="453" y="329"/>
      <point x="423" y="329" type="curve"/>
      <point x="381" y="329"/>
      <point x="347" y="345"/>
      <point x="310" y="363" type="curve"/>
      <point x="264" y="385"/>
      <point x="231" y="400"/>
      <point x="182" y="400" type="curve"/>
      <point x="115" y="400"/>
      <point x="73" y="372"/>
      <point x="48" y="338" type="curve"/>
      <point x="98" y="254" type="line"/>
      <point x="127" y="273"/>
      <point x="147" y="281"/>
      <point x="177" y="281" type="curve"/>
      <point x="219" y="281"/>
      <point x="253" y="265"/>
      <point x="290" y="247" type="curve"/>
      <point x="336" y="225"/>
      <point x="369" y="210"/>
    </contour>
  </outline>
</glyph>
<glyph name="exclamdown" format="1">
  <advance width="600"/>
  <unicode hex="00A1"/>
  <outline>
    <contour>
      <point x="219" y="21" type="line"/>
      <point x="219" y="-182" type="line"/>
      <point x="381" y="-182" type="line"/>
      <point x="381" y="21" type="line"/>
      <point x="324" y="273" type="line"/>
      <point x="276" y="273" type="line"/>
    </contour>
    <contour>
      <point x="300" y="341" type="curve"/>
      <point x="371" y="341"/>
      <point x="398" y="376"/>
      <point x="398" y="418" type="curve"/>
      <point x="398" y="450" type="line" smooth="yes"/>
      <point x="398" y="493"/>
      <point x="371" y="528"/>
      <point x="300" y="528" type="curve"/>
      <point x="229" y="528"/>
      <point x="202" y="493"/>
      <point x="202" y="450" type="curve"/>
      <point x="202" y="418" type="line" smooth="yes"/>
      <point x="202" y="376"/>
      <point x="229" y="341"/>
    </contour>
  </outline>
</glyph>
<glyph name="brokenbar" format="1">
  <advance width="600"/>
  <unicode hex="00A6"/>
  <outline>
    <contour>
      <point x="237" y="760" type="line"/>
      <point x="237" y="401" type="line"/>
      <point x="363" y="401" type="line"/>
      <point x="363" y="760" type="line"/>
    </contour>
    <contour>
      <point x="237" y="221" type="line"/>
      <point x="237" y="-138" type="line"/>
      <point x="363" y="-138" type="line"/>
      <point x="363" y="221" type="line"/>
    </contour>
  </outline>
</glyph>
<glyph name="dieresis" format="1">
  <advance width="600"/>
  <unicode hex="00A8"/>
  <outline>
    <contour>
      <point x="190" y="591" type="curve"/>
      <point x="250" y="591"/>
      <point x="271" y="619"/>
      <point x="271" y="654" type="curve"/>
      <point x="271" y="680" type="line" smooth="yes"/>
      <point x="271" y="715"/>
      <point x="250" y="742"/>
      <point x="190" y="742" type="curve"/>
      <point x="131" y="742"/>
      <point x="110" y="715"/>
      <point x="110" y="680" type="curve"/>
      <point x="110" y="654" type="line" smooth="yes"/>
      <point x="110" y="619"/>
      <point x="131" y="591"/>
    </contour>
    <contour>
      <point x="410" y="591" type="curve"/>
      <point x="469" y="591"/>
      <point x="490" y="619"/>
      <point x="490" y="654" type="curve"/>
      <point x="490" y="680" type="line" smooth="yes"/>
      <point x="490" y="715"/>
      <point x="469" y="742"/>
      <point x="410" y="742" type="curve"/>
      <point x="350" y="742"/>
      <point x="329" y="715"/>
      <point x="329" y="680" type="curve"/>
      <point x="329" y="654" type="line" smooth="yes"/>
      <point x="329" y="619"/>
      <point x="350" y="591"/>
    </contour>
  </outline>
</glyph>
<glyph name="copyright" format="1">
  <advance width="900"/>
  <unicode hex="00A9"/>
  <outline>
    <contour>
      <point x="456" y="-12" type="curve"/>
      <point x="659" y="-12"/>
      <point x="804" y="126"/>
      <point x="804" y="349" type="curve"/>
      <point x="804" y="572"/>
      <point x="659" y="710"/>
      <point x="456" y="710" type="curve"/>
      <point x="253" y="710"/>
      <point x="108" y="572"/>
      <point x="108" y="349" type="curve"/>
      <point x="108" y="126"/>
      <point x="253" y="-12"/>
    </contour>
    <contour>
      <point x="456" y="52" type="curve"/>
      <point x="297" y="52"/>
      <point x="182" y="167"/>
      <point x="182" y="315" type="curve"/>
      <point x="182" y="383" type="line" smooth="yes"/>
      <point x="182" y="531"/>
      <point x="297" y="646"/>
      <point x="456" y="646" type="curve"/>
      <point x="615" y="646"/>
      <point x="730" y="531"/>
      <point x="730" y="383" type="curve"/>
      <point x="730" y="315" type="line" smooth="yes"/>
      <point x="730" y="167"/>
      <point x="615" y="52"/>
    </contour>
    <contour>
      <point x="463" y="134" type="curve"/>
      <point x="570" y="134"/>
      <point x="624" y="187"/>
      <point x="652" y="248" type="curve"/>
      <point x="551" y="295" type="line"/>
      <point x="534" y="262"/>
      <point x="507" y="237"/>
      <point x="463" y="237" type="curve"/>
      <point x="419" y="237"/>
      <point x="392" y="265"/>
      <point x="392" y="309" type="curve"/>
      <point x="392" y="389" type="line" smooth="yes"/>
      <point x="392" y="433"/>
      <point x="419" y="461"/>
      <point x="463" y="461" type="curve"/>
      <point x="507" y="461"/>
      <point x="528" y="438"/>
      <point x="544" y="403" type="curve"/>
      <point x="644" y="451" type="line"/>
      <point x="617" y="518"/>
      <point x="560" y="564"/>
      <point x="463" y="564" type="curve"/>
      <point x="333" y="564"/>
      <point x="255" y="479"/>
      <point x="255" y="349" type="curve"/>
      <point x="255" y="219"/>
      <point x="333" y="134"/>
    </contour>
  </outline>
</glyph>
<glyph name="guillemotleft" format="1">
  <advance width="600"/>
  <unicode hex="00AB"/>
  <outline>
    <contour>
      <point x="306" y="206" type="line"/>
      <point x="506" y="38" type="line"/>
      <point x="551" y="133" type="line"/>
      <point x="421" y="272" type="line"/>
      <point x="551" y="410" type="line"/>
      <point x="506" y="506" type="line"/>
      <point x="306" y="338" type="line"/>
    </contour>
    <contour>
      <point x="59" y="206" type="line"/>
      <point x="259" y="38" type="line"/>
      <point x="304" y="133" type="line"/>
      <point x="174" y="272" type="line"/>
      <point x="304" y="410" type="line"/>
      <point x="259" y="506" type="line"/>
      <point x="59" y="338" type="line"/>
    </contour>
  </outline>
</glyph>
<glyph name="logicalnot" format="1">
  <advance width="600"/>
  <unicode hex="00AC"/>
  <outline>
    <contour>
      <point x="401" y="246" type="line"/>
      <point x="401" y="54" type="line"/>
      <point x="522" y="54" type="line"/>
      <point x="522" y="364" type="line"/>
      <point x="62" y="364" type="line"/>
      <point x="62" y="246" type="line"/>
    </contour>
  </outline>
</glyph>
<glyph name="uni00AD" format="1">
  <advance width="600"/>
  <unicode hex="00AD"/>
  <outline>
    <contour>
      <point x="140" y="376" type="line"/>
      <point x="140" y="234" type="line"/>
      <point x="460" y="234" type="line"/>
      <point x="460" y="376" type="line"/>
    </contour>
  </outline>
</glyph>
<glyph name="macron" format="1">
  <advance width="600"/>
  <unicode hex="00AF"/>
  <outline>
    <contour>
      <point x="453" y="718" type="line"/>
      <point x="147" y="718" type="line"/>
      <point x="147" y="615" type="line"/>
      <point x="453" y="615" type="line"/>
    </contour>
  </outline>
</glyph>
<glyph name="plusminus" format="1">
  <advance width="600"/>
  <unicode hex="00B1"/>
  <outline>
    <contour>
      <point x="236" y="350" type="line"/>
      <point x="236" y="184" type="line"/>
      <point x="364" y="184" type="line"/>
      <point x="364" y="350" type="line"/>
      <point x="538" y="350" type="line"/>
      <point x="538" y="468" type="line"/>
      <point x="364" y="468" type="line"/>
      <point x="364" y="634" type="line"/>
      <point x="236" y="634" type="line"/>
      <point x="236" y="468" type="line"/>
      <point x="62" y="468" type="line"/>
      <point x="62" y="350" type="line"/>
    </contour>
    <contour>
      <point x="62" y="119" type="line"/>
      <point x="62" y="0" type="line"/>
      <point x="538" y="0" type="line"/>
      <point x="538" y="119" type="line"/>
    </contour>
  </outline>
</glyph>
<glyph name="acute" format="1">
  <advance width="600"/>
  <unicode hex="00B4"/>
  <outline>
    <contour>
      <point x="228" y="613" type="line"/>
      <point x="316" y="570" type="line"/>
      <point x="450" y="746" type="line"/>
      <point x="327" y="807" type="line"/>
    </contour>
  </outline>
</glyph>
<glyph name="paragraph" format="1">
  <advance width="600"/>
  <unicode hex="00B6"/>
  <outline>
    <contour>
      <point x="245" y="246" type="curve"/>
      <point x="245" y="-149" type="line"/>
      <point x="364" y="-149" type="line"/>
      <point x="364" y="582" type="line"/>
      <point x="433" y="582" type="line"/>
      <point x="433" y="-149" type="line"/>
      <point x="552" y="-149" type="line"/>
      <point x="552" y="698" type="line"/>
      <point x="245" y="698" type="line" smooth="yes"/>
      <point x="121" y="698"/>
      <point x="20" y="603"/>
      <point x="20" y="472" type="curve"/>
      <point x="20" y="341"/>
      <point x="121" y="246"/>
    </contour>
  </outline>
</glyph>
<glyph name="periodcentered" format="1">
  <advance width="600"/>
  <unicode hex="00B7"/>
  <outline>
    <contour>
      <point x="300" y="204" type="curve"/>
      <point x="375" y="204"/>
      <point x="405" y="242"/>
      <point x="405" y="287" type="curve"/>
      <point x="405" y="322" type="line" smooth="yes"/>
      <point x="405" y="367"/>
      <point x="375" y="405"/>
      <point x="300" y="405" type="curve"/>
      <point x="225" y="405"/>
      <point x="195" y="367"/>
      <point x="195" y="322" type="curve"/>
      <point x="195" y="287" type="line" smooth="yes"/>
      <point x="195" y="242"/>
      <point x="225" y="204"/>
    </contour>
  </outline>
</glyph>
<glyph name="uni00B9" format="1">
  <advance width="600"/>
  <unicode hex="00B9"/>
  <outline>
    <contour>
      <point x="188" y="408" type="line"/>
      <point x="188" y="329" type="line"/>
      <point x="463" y="329" type="line"/>
      <point x="463" y="408" type="line"/>
      <point x="382" y="408" type="line"/>
      <point x="382" y="698" type="line"/>
      <point x="276" y="698" type="line"/>
      <point x="164" y="642" type="line"/>
      <point x="202" y="570" type="line"/>
      <point x="281" y="606" type="line"/>
      <point x="281" y="408" type="line"/>
    </contour>
  </outline>
</glyph>
<glyph name="ordmasculine" format="1">
  <advance width="600"/>
  <unicode hex="00BA"/>
  <outline>
    <contour>
      <point x="300" y="332" type="curve"/>
      <point x="413" y="332"/>
      <point x="481" y="404"/>
      <point x="481" y="521" type="curve"/>
      <point x="481" y="638"/>
      <point x="413" y="710"/>
      <point x="300" y="710" type="curve"/>
      <point x="187" y="710"/>
      <point x="119" y="638"/>
      <point x="119" y="521" type="curve"/>
      <point x="119" y="404"/>
      <point x="187" y="332"/>
    </contour>
    <contour>
      <point x="300" y="409" type="curve"/>
      <point x="254" y="409"/>
      <point x="226" y="439"/>
      <point x="226" y="492" type="curve"/>
      <point x="226" y="550" type="line" smooth="yes"/>
      <point x="226" y="603"/>
      <point x="254" y="633"/>
      <point x="300" y="633" type="curve"/>
      <point x="346" y="633"/>
      <point x="374" y="603"/>
      <point x="374" y="550" type="curve"/>
      <point x="374" y="492" type="line" smooth="yes"/>
      <point x="374" y="439"/>
      <point x="346" y="409"/>
    </contour>
  </outline>
</glyph>
<glyph name="guillemotright" format="1">
  <advance width="600"/>
  <unicode hex="00BB"/>
  <outline>
    <contour>
      <point x="426" y="272" type="line"/>
      <point x="296" y="133" type="line"/>
      <point x="341" y="38" type="line"/>
      <point x="541" y="206" type="line"/>
      <point x="541" y="338" type="line"/>
      <point x="341" y="506" type="line"/>
      <point x="296" y="410" type="line"/>
    </contour>
    <contour>
      <point x="179" y="272" type="line"/>
      <point x="49" y="133" type="line"/>
      <point x="94" y="38" type="line"/>
      <point x="294" y="206" type="line"/>
      <point x="294" y="338" type="line"/>
      <point x="94" y="506" type="line"/>
      <point x="49" y="410" type="line"/>
    </contour>
  </outline>
</glyph>
<glyph name="onequarter" format="1">
  <advance width="600"/>
  <unicode hex="00BC"/>
  <outline>
    <contour>
      <point x="311" y="63" type="line"/>
      <point x="462" y="63" type="line"/>
      <point x="462" y="0" type="line"/>
      <point x="546" y="0" type="line"/>
      <point x="546" y="63" type="line"/>
      <point x="590" y="63" type="line"/>
      <point x="590" y="124" type="line"/>
      <point x="546" y="124" type="line"/>
      <point x="546" y="335" type="line"/>
      <point x="442" y="335" type="line"/>
      <point x="311" y="137" type="line"/>
    </contour>
    <contour>
      <point x="462" y="250" type="line"/>
      <point x="462" y="124" type="line"/>
      <point x="373" y="124" type="line"/>
      <point x="457" y="250" type="line"/>
    </contour>
    <contour>
      <point x="599" y="698" type="line"/>
      <point x="496" y="698" type="line"/>
      <point x="323" y="398" type="line"/>
      <point x="426" y="398" type="line"/>
    </contour>
    <contour>
      <point x="277" y="300" type="line"/>
      <point x="174" y="300" type="line"/>
      <point x="1" y="0" type="line"/>
      <point x="104" y="0" type="line"/>
    </contour>
    <contour>
      <point x="121" y="432" type="line"/>
      <point x="36" y="432" type="line"/>
      <point x="36" y="363" type="line"/>
      <point x="284" y="363" type="line"/>
      <point x="284" y="432" type="line"/>
      <point x="209" y="432" type="line"/>
      <point x="209" y="698" type="line"/>
      <point x="115" y="698" type="line"/>
      <point x="13" y="645" type="line"/>
      <point x="45" y="587" type="line"/>
      <point x="121" y="626" type="line"/>
    </contour>
  </outline>
</glyph>
<glyph name="onehalf" format="1">
  <advance width="600"/>
  <unicode hex="00BD"/>
  <outline>
    <contour>
      <point x="427" y="155" type="curve"/>
      <point x="321" y="75" type="line"/>
      <point x="321" y="0" type="line"/>
      <point x="583" y="0" type="line"/>
      <point x="583" y="69" type="line"/>
      <point x="419" y="69" type="line"/>
      <point x="473" y="106" type="line" smooth="yes"/>
      <point x="534" y="148"/>
      <point x="578" y="184"/>
      <point x="578" y="239" type="curve"/>
      <point x="578" y="297"/>
      <point x="529" y="341"/>
      <point x="447" y="341" type="curve"/>
      <point x="364" y="341"/>
      <point x="327" y="296"/>
      <point x="312" y="252" type="curve"/>
      <point x="385" y="224" type="line"/>
      <point x="395" y="251"/>
      <point x="413" y="271"/>
      <point x="443" y="271" type="curve"/>
      <point x="466" y="271"/>
      <point x="485" y="260"/>
      <point x="485" y="238" type="curve"/>
      <point x="485" y="236" type="line" smooth="yes"/>
      <point x="485" y="207"/>
      <point x="473" y="190"/>
    </contour>
    <contour>
      <point x="599" y="698" type="line"/>
      <point x="496" y="698" type="line"/>
      <point x="323" y="398" type="line"/>
      <point x="426" y="398" type="line"/>
    </contour>
    <contour>
      <point x="277" y="300" type="line"/>
      <point x="174" y="300" type="line"/>
      <point x="1" y="0" type="line"/>
      <point x="104" y="0" type="line"/>
    </contour>
    <contour>
      <point x="121" y="432" type="line"/>
      <point x="36" y="432" type="line"/>
      <point x="36" y="363" type="line"/>
      <point x="284" y="363" type="line"/>
      <point x="284" y="432" type="line"/>
      <point x="209" y="432" type="line"/>
      <point x="209" y="698" type="line"/>
      <point x="115" y="698" type="line"/>
      <point x="13" y="645" type="line"/>
      <point x="45" y="587" type="line"/>
      <point x="121" y="626" type="line"/>
    </contour>
  </outline>
</glyph>
<glyph name="threequarters" format="1">
  <advance width="600"/>
  <unicode hex="00BE"/>
  <outline>
    <contour>
      <point x="311" y="63" type="line"/>
      <point x="462" y="63" type="line"/>
      <point x="462" y="0" type="line"/>
      <point x="546" y="0" type="line"/>
      <point x="546" y="63" type="line"/>
      <point x="590" y="63" type="line"/>
      <point x="590" y="124" type="line"/>
      <point x="546" y="124" type="line"/>
      <point x="546" y="335" type="line"/>
      <point x="442" y="335" type="line"/>
      <point x="311" y="137" type="line"/>
    </contour>
    <contour>
      <point x="462" y="250" type="line"/>
      <point x="462" y="124" type="line"/>
      <point x="373" y="124" type="line"/>
      <point x="457" y="250" type="line"/>
    </contour>
    <contour>
      <point x="599" y="698" type="line"/>
      <point x="496" y="698" type="line"/>
      <point x="323" y="398" type="line"/>
      <point x="426" y="398" type="line"/>
    </contour>
    <contour>
      <point x="277" y="300" type="line"/>
      <point x="174" y="300" type="line"/>
      <point x="1" y="0" type="line"/>
      <point x="104" y="0" type="line"/>
    </contour>
    <contour>
      <point x="148" y="357" type="curve"/>
      <point x="232" y="357"/>
      <point x="288" y="396"/>
      <point x="288" y="457" type="curve"/>
      <point x="288" y="501"/>
      <point x="258" y="526"/>
      <point x="211" y="533" type="curve"/>
      <point x="211" y="537" type="line"/>
      <point x="249" y="542"/>
      <point x="282" y="570"/>
      <point x="282" y="613" type="curve"/>
      <point x="282" y="667"/>
      <point x="231" y="704"/>
      <point x="147" y="704" type="curve"/>
      <point x="83" y="704"/>
      <point x="49" y="683"/>
      <point x="17" y="647" type="curve"/>
      <point x="69" y="597" type="line"/>
      <point x="89" y="623"/>
      <point x="118" y="638"/>
      <point x="147" y="638" type="curve"/>
      <point x="174" y="638"/>
      <point x="190" y="625"/>
      <point x="190" y="608" type="curve"/>
      <point x="190" y="600" type="line" smooth="yes"/>
      <point x="190" y="581"/>
      <point x="175" y="566"/>
      <point x="138" y="566" type="curve"/>
      <point x="107" y="566" type="line"/>
      <point x="107" y="503" type="line"/>
      <point x="134" y="503" type="line" smooth="yes"/>
      <point x="169" y="503"/>
      <point x="194" y="490"/>
      <point x="194" y="465" type="curve"/>
      <point x="194" y="457" type="line" smooth="yes"/>
      <point x="194" y="436"/>
      <point x="178" y="423"/>
      <point x="146" y="423" type="curve"/>
      <point x="110" y="423"/>
      <point x="87" y="440"/>
      <point x="73" y="465" type="curve"/>
      <point x="10" y="423" type="line"/>
      <point x="32" y="389"/>
      <point x="72" y="357"/>
    </contour>
  </outline>
</glyph>
<glyph name="Acircumflex" format="1">
  <advance width="600"/>
  <unicode hex="00C2"/>
  <outline>
    <contour>
      <point x="494" y="797" type="line"/>
      <point x="362" y="956" type="line"/>
      <point x="238" y="956" type="line"/>
      <point x="106" y="797" type="line"/>
      <point x="177" y="739" type="line"/>
      <point x="298" y="854" type="line"/>
      <point x="419" y="739" type="line"/>
    </contour>
    <contour>
      <point x="391" y="168" type="line"/>
      <point x="435" y="0" type="line"/>
      <point x="595" y="0" type="line"/>
      <point x="406" y="698" type="line"/>
      <point x="194" y="698" type="line"/>
      <point x="5" y="0" type="line"/>
      <point x="157" y="0" type="line"/>
      <point x="200" y="168" type="line"/>
    </contour>
    <contour>
      <point x="292" y="553" type="line"/>
      <point x="300" y="553" type="line"/>
      <point x="368" y="289" type="line"/>
      <point x="224" y="289" type="line"/>
    </contour>
  </outline>
</glyph>
<glyph name="Atilde" format="1">
  <advance width="600"/>
  <unicode hex="00C3"/>
  <outline>
    <contour>
      <point x="376" y="762" type="curve"/>
      <point x="429" y="762"/>
      <point x="466" y="790"/>
      <point x="490" y="826" type="curve"/>
      <point x="438" y="894" type="line"/>
      <point x="417" y="877"/>
      <point x="402" y="869"/>
      <point x="379" y="869" type="curve"/>
      <point x="353" y="869"/>
      <point x="330" y="879"/>
      <point x="301" y="891" type="curve"/>
      <point x="276" y="902"/>
      <point x="254" y="911"/>
      <point x="224" y="911" type="curve"/>
      <point x="171" y="911"/>
      <point x="134" y="883"/>
      <point x="110" y="847" type="curve"/>
      <point x="162" y="779" type="line"/>
      <point x="183" y="796"/>
      <point x="198" y="804"/>
      <point x="221" y="804" type="curve"/>
      <point x="247" y="804"/>
      <point x="270" y="794"/>
      <point x="299" y="782" type="curve"/>
      <point x="324" y="771"/>
      <point x="346" y="762"/>
    </contour>
    <contour>
      <point x="391" y="168" type="line"/>
      <point x="435" y="0" type="line"/>
      <point x="595" y="0" type="line"/>
      <point x="406" y="698" type="line"/>
      <point x="194" y="698" type="line"/>
      <point x="5" y="0" type="line"/>
      <point x="157" y="0" type="line"/>
      <point x="200" y="168" type="line"/>
    </contour>
    <contour>
      <point x="292" y="553" type="line"/>
      <point x="300" y="553" type="line"/>
      <point x="368" y="289" type="line"/>
      <point x="224" y="289" type="line"/>
    </contour>
  </outline>
</glyph>
<glyph name="Adieresis" format="1">
  <advance width="600"/>
  <unicode hex="00C4"/>
  <outline>
    <contour>
      <point x="190" y="761" type="curve"/>
      <point x="250" y="761"/>
      <point x="271" y="789"/>
      <point x="271" y="824" type="curve"/>
      <point x="271" y="850" type="line" smooth="yes"/>
      <point x="271" y="885"/>
      <point x="250" y="912"/>
      <point x="190" y="912" type="curve"/>
      <point x="131" y="912"/>
      <point x="110" y="885"/>
      <point x="110" y="850" type="curve"/>
      <point x="110" y="824" type="line" smooth="yes"/>
      <point x="110" y="789"/>
      <point x="131" y="761"/>
    </contour>
    <contour>
      <point x="410" y="761" type="curve"/>
      <point x="469" y="761"/>
      <point x="490" y="789"/>
      <point x="490" y="824" type="curve"/>
      <point x="490" y="850" type="line" smooth="yes"/>
      <point x="490" y="885"/>
      <point x="469" y="912"/>
      <point x="410" y="912" type="curve"/>
      <point x="350" y="912"/>
      <point x="329" y="885"/>
      <point x="329" y="850" type="curve"/>
      <point x="329" y="824" type="line" smooth="yes"/>
      <point x="329" y="789"/>
      <point x="350" y="761"/>
    </contour>
    <contour>
      <point x="391" y="168" type="line"/>
      <point x="435" y="0" type="line"/>
      <point x="595" y="0" type="line"/>
      <point x="406" y="698" type="line"/>
      <point x="194" y="698" type="line"/>
      <point x="5" y="0" type="line"/>
      <point x="157" y="0" type="line"/>
      <point x="200" y="168" type="line"/>
    </contour>
    <contour>
      <point x="292" y="553" type="line"/>
      <point x="300" y="553" type="line"/>
      <point x="368" y="289" type="line"/>
      <point x="224" y="289" type="line"/>
    </contour>
  </outline>
</glyph>
<glyph name="Aring" format="1">
  <advance width="600"/>
  <unicode hex="00C5"/>
  <outline>
    <contour>
      <point x="300" y="719" type="curve"/>
      <point x="383" y="719"/>
      <point x="448" y="780"/>
      <point x="448" y="862" type="curve"/>
      <point x="448" y="945"/>
      <point x="383" y="1005"/>
      <point x="300" y="1005" type="curve"/>
      <point x="217" y="1005"/>
      <point x="152" y="944"/>
      <point x="152" y="862" type="curve"/>
      <point x="152" y="779"/>
      <point x="217" y="719"/>
    </contour>
    <contour>
      <point x="300" y="794" type="curve"/>
      <point x="267" y="794"/>
      <point x="249" y="813"/>
      <point x="249" y="845" type="curve"/>
      <point x="249" y="879" type="line" smooth="yes"/>
      <point x="249" y="910"/>
      <point x="267" y="930"/>
      <point x="300" y="930" type="curve"/>
      <point x="333" y="930"/>
      <point x="351" y="911"/>
      <point x="351" y="879" type="curve"/>
      <point x="351" y="845" type="line" smooth="yes"/>
      <point x="351" y="814"/>
      <point x="333" y="794"/>
    </contour>
    <contour>
      <point x="391" y="168" type="line"/>
      <point x="435" y="0" type="line"/>
      <point x="595" y="0" type="line"/>
      <point x="406" y="698" type="line"/>
      <point x="194" y="698" type="line"/>
      <point x="5" y="0" type="line"/>
      <point x="157" y="0" type="line"/>
      <point x="200" y="168" type="line"/>
    </contour>
    <contour>
      <point x="292" y="553" type="line"/>
      <point x="300" y="553" type="line"/>
      <point x="368" y="289" type="line"/>
      <point x="224" y="289" type="line"/>
    </contour>
  </outline>
</glyph>
<glyph name="Eacute" format="1">
  <advance width="600"/>
  <unicode hex="00C9"/>
  <outline>
    <contour>
      <point x="231" y="783" type="line"/>
      <point x="319" y="740" type="line"/>
      <point x="453" y="916" type="line"/>
      <point x="330" y="977" type="line"/>
    </contour>
    <contour>
      <point x="80" y="698" type="line"/>
      <point x="80" y="0" type="line"/>
      <point x="526" y="0" type="line"/>
      <point x="526" y="123" type="line"/>
      <point x="230" y="123" type="line"/>
      <point x="230" y="292" type="line"/>
      <point x="516" y="292" type="line"/>
      <point x="516" y="415" type="line"/>
      <point x="230" y="415" type="line"/>
      <point x="230" y="575" type="line"/>
      <point x="526" y="575" type="line"/>
      <point x="526" y="698" type="line"/>
    </contour>
  </outline>
</glyph>
<glyph name="Ecircumflex" format="1">
  <advance width="600"/>
  <unicode hex="00CA"/>
  <outline>
    <contour>
      <point x="497" y="797" type="line"/>
      <point x="365" y="956" type="line"/>
      <point x="241" y="956" type="line"/>
      <point x="109" y="797" type="line"/>
      <point x="180" y="739" type="line"/>
      <point x="301" y="854" type="line"/>
      <point x="422" y="739" type="line"/>
    </contour>
    <contour>
      <point x="80" y="698" type="line"/>
      <point x="80" y="0" type="line"/>
      <point x="526" y="0" type="line"/>
      <point x="526" y="123" type="line"/>
      <point x="230" y="123" type="line"/>
      <point x="230" y="292" type="line"/>
      <point x="516" y="292" type="line"/>
      <point x="516" y="415" type="line"/>
      <point x="230" y="415" type="line"/>
      <point x="230" y="575" type="line"/>
      <point x="526" y="575" type="line"/>
      <point x="526" y="698" type="line"/>
    </contour>
  </outline>
</glyph>
<glyph name="Igrave" format="1">
  <advance width="600"/>
  <unicode hex="00CC"/>
  <outline>
    <contour>
      <point x="273" y="977" type="line"/>
      <point x="150" y="916" type="line"/>
      <point x="284" y="740" type="line"/>
      <point x="372" y="783" type="line"/>
    </contour>
    <contour>
      <point x="75" y="111" type="line"/>
      <point x="75" y="0" type="line"/>
      <point x="525" y="0" type="line"/>
      <point x="525" y="111" type="line"/>
      <point x="375" y="111" type="line"/>
      <point x="375" y="587" type="line"/>
      <point x="525" y="587" type="line"/>
      <point x="525" y="698" type="line"/>
      <point x="75" y="698" type="line"/>
      <point x="75" y="587" type="line"/>
      <point x="225" y="587" type="line"/>
      <point x="225" y="111" type="line"/>
    </contour>
  </outline>
</glyph>
<glyph name="Iacute" format="1">
  <advance width="600"/>
  <unicode hex="00CD"/>
  <outline>
    <contour>
      <point x="228" y="783" type="line"/>
      <point x="316" y="740" type="line"/>
      <point x="450" y="916" type="line"/>
      <point x="327" y="977" type="line"/>
    </contour>
    <contour>
      <point x="75" y="111" type="line"/>
      <point x="75" y="0" type="line"/>
      <point x="525" y="0" type="line"/>
      <point x="525" y="111" type="line"/>
      <point x="375" y="111" type="line"/>
      <point x="375" y="587" type="line"/>
      <point x="525" y="587" type="line"/>
      <point x="525" y="698" type="line"/>
      <point x="75" y="698" type="line"/>
      <point x="75" y="587" type="line"/>
      <point x="225" y="587" type="line"/>
      <point x="225" y="111" type="line"/>
    </contour>
  </outline>
</glyph>
<glyph name="Ntilde" format="1">
  <advance width="600"/>
  <unicode hex="00D1"/>
  <outline>
    <contour>
      <point x="376" y="762" type="curve"/>
      <point x="429" y="762"/>
      <point x="466" y="790"/>
      <point x="490" y="826" type="curve"/>
      <point x="438" y="894" type="line"/>
      <point x="417" y="877"/>
      <point x="402" y="869"/>
      <point x="379" y="869" type="curve"/>
      <point x="353" y="869"/>
      <point x="330" y="879"/>
      <point x="301" y="891" type="curve"/>
      <point x="276" y="902"/>
      <point x="254" y="911"/>
      <point x="224" y="911" type="curve"/>
      <point x="171" y="911"/>
      <point x="134" y="883"/>
      <point x="110" y="847" type="curve"/>
      <point x="162" y="779" type="line"/>
      <point x="183" y="796"/>
      <point x="198" y="804"/>
      <point x="221" y="804" type="curve"/>
      <point x="247" y="804"/>
      <point x="270" y="794"/>
      <point x="299" y="782" type="curve"/>
      <point x="324" y="771"/>
      <point x="346" y="762"/>
    </contour>
    <contour>
      <point x="189" y="464" type="line"/>
      <point x="200" y="464" type="line"/>
      <point x="359" y="0" type="line"/>
      <point x="539" y="0" type="line"/>
      <point x="539" y="698" type="line"/>
      <point x="411" y="698" type="line"/>
      <point x="411" y="234" type="line"/>
      <point x="400" y="234" type="line"/>
      <point x="241" y="698" type="line"/>
      <point x="61" y="698" type="line"/>
      <point x="61" y="0" type="line"/>
      <point x="189" y="0" type="line"/>
    </contour>
  </outline>
</glyph>
<glyph name="Ocircumflex" format="1">
  <advance width="600"/>
  <unicode hex="00D4"/>
  <outline>
    <contour>
      <point x="494" y="797" type="line"/>
      <point x="362" y="956" type="line"/>
      <point x="238" y="956" type="line"/>
      <point x="106" y="797" type="line"/>
      <point x="177" y="739" type="line"/>
      <point x="298" y="854" type="line"/>
      <point x="419" y="739" type="line"/>
    </contour>
    <contour>
      <point x="300" y="-12" type="curve"/>
      <point x="487" y="-12"/>
      <point x="573" y="121"/>
      <point x="573" y="349" type="curve"/>
      <point x="573" y="577"/>
      <point x="487" y="710"/>
      <point x="300" y="710" type="curve"/>
      <point x="113" y="710"/>
      <point x="27" y="577"/>
      <point x="27" y="349" type="curve"/>
      <point x="27" y="121"/>
      <point x="113" y="-12"/>
    </contour>
    <contour>
      <point x="300" y="109" type="curve"/>
      <point x="215" y="109"/>
      <point x="187" y="176"/>
      <point x="187" y="288" type="curve"/>
      <point x="187" y="410" type="line" smooth="yes"/>
      <point x="187" y="522"/>
      <point x="215" y="589"/>
      <point x="300" y="589" type="curve"/>
      <point x="385" y="589"/>
      <point x="413" y="522"/>
      <point x="413" y="410" type="curve"/>
      <point x="413" y="289" type="line" smooth="yes"/>
      <point x="413" y="176"/>
      <point x="385" y="109"/>
    </contour>
  </outline>
</glyph>
<glyph name="Otilde" format="1">
  <advance width="600"/>
  <unicode hex="00D5"/>
  <outline>
    <contour>
      <point x="376" y="762" type="curve"/>
      <point x="429" y="762"/>
      <point x="466" y="790"/>
      <point x="490" y="826" type="curve"/>
      <point x="438" y="894" type="line"/>
      <point x="417" y="877"/>
      <point x="402" y="869"/>
      <point x="379" y="869" type="curve"/>
      <point x="353" y="869"/>
      <point x="330" y="879"/>
      <point x="301" y="891" type="curve"/>
      <point x="276" y="902"/>
      <point x="254" y="911"/>
      <point x="224" y="911" type="curve"/>
      <point x="171" y="911"/>
      <point x="134" y="883"/>
      <point x="110" y="847" type="curve"/>
      <point x="162" y="779" type="line"/>
      <point x="183" y="796"/>
      <point x="198" y="804"/>
      <point x="221" y="804" type="curve"/>
      <point x="247" y="804"/>
      <point x="270" y="794"/>
      <point x="299" y="782" type="curve"/>
      <point x="324" y="771"/>
      <point x="346" y="762"/>
    </contour>
    <contour>
      <point x="300" y="-12" type="curve"/>
      <point x="487" y="-12"/>
      <point x="573" y="121"/>
      <point x="573" y="349" type="curve"/>
      <point x="573" y="577"/>
      <point x="487" y="710"/>
      <point x="300" y="710" type="curve"/>
      <point x="113" y="710"/>
      <point x="27" y="577"/>
      <point x="27" y="349" type="curve"/>
      <point x="27" y="121"/>
      <point x="113" y="-12"/>
    </contour>
    <contour>
      <point x="300" y="109" type="curve"/>
      <point x="215" y="109"/>
      <point x="187" y="176"/>
      <point x="187" y="288" type="curve"/>
      <point x="187" y="410" type="line" smooth="yes"/>
      <point x="187" y="522"/>
      <point x="215" y="589"/>
      <point x="300" y="589" type="curve"/>
      <point x="385" y="589"/>
      <point x="413" y="522"/>
      <point x="413" y="410" type="curve"/>
      <point x="413" y="289" type="line" smooth="yes"/>
      <point x="413" y="176"/>
      <point x="385" y="109"/>
    </contour>
  </outline>
</glyph>
<glyph name="Odieresis" format="1">
  <advance width="600"/>
  <unicode hex="00D6"/>
  <outline>
    <contour>
      <point x="190" y="761" type="curve"/>
      <point x="250" y="761"/>
      <point x="271" y="789"/>
      <point x="271" y="824" type="curve"/>
      <point x="271" y="850" type="line" smooth="yes"/>
      <point x="271" y="885"/>
      <point x="250" y="912"/>
      <point x="190" y="912" type="curve"/>
      <point x="131" y="912"/>
      <point x="110" y="885"/>
      <point x="110" y="850" type="curve"/>
      <point x="110" y="824" type="line" smooth="yes"/>
      <point x="110" y="789"/>
      <point x="131" y="761"/>
    </contour>
    <contour>
      <point x="410" y="761" type="curve"/>
      <point x="469" y="761"/>
      <point x="490" y="789"/>
      <point x="490" y="824" type="curve"/>
      <point x="490" y="850" type="line" smooth="yes"/>
      <point x="490" y="885"/>
      <point x="469" y="912"/>
      <point x="410" y="912" type="curve"/>
      <point x="350" y="912"/>
      <point x="329" y="885"/>
      <point x="329" y="850" type="curve"/>
      <point x="329" y="824" type="line" smooth="yes"/>
      <point x="329" y="789"/>
      <point x="350" y="761"/>
    </contour>
    <contour>
      <point x="300" y="-12" type="curve"/>
      <point x="487" y="-12"/>
      <point x="573" y="121"/>
      <point x="573" y="349" type="curve"/>
      <point x="573" y="577"/>
      <point x="487" y="710"/>
      <point x="300" y="710" type="curve"/>
      <point x="113" y="710"/>
      <point x="27" y="577"/>
      <point x="27" y="349" type="curve"/>
      <point x="27" y="121"/>
      <point x="113" y="-12"/>
    </contour>
    <contour>
      <point x="300" y="109" type="curve"/>
      <point x="215" y="109"/>
      <point x="187" y="176"/>
      <point x="187" y="288" type="curve"/>
      <point x="187" y="410" type="line" smooth="yes"/>
      <point x="187" y="522"/>
      <point x="215" y="589"/>
      <point x="300" y="589" type="curve"/>
      <point x="385" y="589"/>
      <point x="413" y="522"/>
      <point x="413" y="410" type="curve"/>
      <point x="413" y="289" type="line" smooth="yes"/>
      <point x="413" y="176"/>
      <point x="385" y="109"/>
    </contour>
  </outline>
</glyph>
<glyph name="Udieresis" format="1">
  <advance width="600"/>
  <unicode hex="00DC"/>
  <outline>
    <contour>
      <point x="190" y="761" type="curve"/>
      <point x="250" y="761"/>
      <point x="271" y="789"/>
      <point x="271" y="824" type="curve"/>
      <point x="271" y="850" type="line" smooth="yes"/>
      <point x="271" y="885"/>
      <point x="250" y="912"/>
      <point x="190" y="912" type="curve"/>
      <point x="131" y="912"/>
      <point x="110" y="885"/>
      <point x="110" y="850" type="curve"/>
      <point x="110" y="824" type="line" smooth="yes"/>
      <point x="110" y="789"/>
      <point x="131" y="761"/>
    </contour>
    <contour>
      <point x="410" y="761" type="curve"/>
      <point x="469" y="761"/>
      <point x="490" y="789"/>
      <point x="490" y="824" type="curve"/>
      <point x="490" y="850" type="line" smooth="yes"/>
      <point x="490" y="885"/>
      <point x="469" y="912"/>
      <point x="410" y="912" type="curve"/>
      <point x="350" y="912"/>
      <point x="329" y="885"/>
      <point x="329" y="850" type="curve"/>
      <point x="329" y="824" type="line" smooth="yes"/>
      <point x="329" y="789"/>
      <point x="350" y="761"/>
    </contour>
    <contour>
      <point x="205" y="256" type="curve"/>
      <point x="205" y="698" type="line"/>
      <point x="55" y="698" type="line"/>
      <point x="55" y="276" type="line" smooth="yes"/>
      <point x="55" y="85"/>
      <point x="97" y="-12"/>
      <point x="300" y="-12" type="curve"/>
      <point x="503" y="-12"/>
      <point x="545" y="85"/>
      <point x="545" y="276" type="curve"/>
      <point x="545" y="698" type="line"/>
      <point x="395" y="698" type="line"/>
      <point x="395" y="256" type="line" smooth="yes"/>
      <point x="395" y="167"/>
      <point x="388" y="109"/>
      <point x="300" y="109" type="curve"/>
      <point x="212" y="109"/>
      <point x="205" y="167"/>
    </contour>
  </outline>
</glyph>
<glyph name="Yacute" format="1">
  <advance width="600"/>
  <unicode hex="00DD"/>
  <outline>
    <contour>
      <point x="228" y="783" type="line"/>
      <point x="316" y="740" type="line"/>
      <point x="450" y="916" type="line"/>
      <point x="327" y="977" type="line"/>
    </contour>
    <contour>
      <point x="225" y="247" type="line"/>
      <point x="225" y="0" type="line"/>
      <point x="375" y="0" type="line"/>
      <point x="375" y="247" type="line"/>
      <point x="596" y="698" type="line"/>
      <point x="435" y="698" type="line"/>
      <point x="361" y="536" type="line"/>
      <point x="307" y="399" type="line"/>
      <point x="299" y="399" type="line"/>
      <point x="245" y="536" type="line"/>
      <point x="171" y="698" type="line"/>
      <point x="4" y="698" type="line"/>
    </contour>
  </outline>
</glyph>
<glyph name="atilde" format="1">
  <advance width="600"/>
  <unicode hex="00E3"/>
  <outline>
    <contour>
      <point x="368" y="592" type="curve"/>
      <point x="421" y="592"/>
      <point x="458" y="620"/>
      <point x="482" y="656" type="curve"/>
      <point x="430" y="724" type="line"/>
      <point x="409" y="707"/>
      <point x="394" y="699"/>
      <point x="371" y="699" type="curve"/>
      <point x="345" y="699"/>
      <point x="322" y="709"/>
      <point x="293" y="721" type="curve"/>
      <point x="268" y="732"/>
      <point x="246" y="741"/>
      <point x="216" y="741" type="curve"/>
      <point x="163" y="741"/>
      <point x="126" y="713"/>
      <point x="102" y="677" type="curve"/>
      <point x="154" y="609" type="line"/>
      <point x="175" y="626"/>
      <point x="190" y="634"/>
      <point x="213" y="634" type="curve"/>
      <point x="239" y="634"/>
      <point x="262" y="624"/>
      <point x="291" y="612" type="curve"/>
      <point x="316" y="601"/>
      <point x="338" y="592"/>
    </contour>
    <contour>
      <point x="487" y="0" type="curve"/>
      <point x="572" y="0" type="line"/>
      <point x="572" y="107" type="line"/>
      <point x="515" y="107" type="line"/>
      <point x="515" y="333" type="line" smooth="yes"/>
      <point x="515" y="463"/>
      <point x="431" y="528"/>
      <point x="290" y="528" type="curve"/>
      <point x="175" y="528"/>
      <point x="100" y="485"/>
      <point x="66" y="427" type="curve"/>
      <point x="147" y="355" type="line"/>
      <point x="175" y="393"/>
      <point x="211" y="420"/>
      <point x="273" y="420" type="curve"/>
      <point x="341" y="420"/>
      <point x="367" y="388"/>
      <point x="367" y="327" type="curve"/>
      <point x="367" y="301" type="line"/>
      <point x="284" y="301" type="line" smooth="yes"/>
      <point x="133" y="301"/>
      <point x="52" y="250"/>
      <point x="52" y="142" type="curve"/>
      <point x="52" y="45"/>
      <point x="118" y="-12"/>
      <point x="218" y="-12" type="curve"/>
      <point x="297" y="-12"/>
      <point x="357" y="24"/>
      <point x="375" y="91" type="curve"/>
      <point x="380" y="91" type="line"/>
      <point x="386" y="33"/>
      <point x="426" y="0"/>
    </contour>
    <contour>
      <point x="274" y="85" type="curve"/>
      <point x="227" y="85"/>
      <point x="197" y="104"/>
      <point x="197" y="140" type="curve"/>
      <point x="197" y="160" type="line" smooth="yes"/>
      <point x="197" y="200"/>
      <point x="229" y="221"/>
      <point x="288" y="221" type="curve"/>
      <point x="367" y="221" type="line"/>
      <point x="367" y="159" type="line" smooth="yes"/>
      <point x="367" y="111"/>
      <point x="326" y="85"/>
    </contour>
  </outline>
</glyph>
<glyph name="ecircumflex" format="1">
  <advance width="600"/>
  <unicode hex="00EA"/>
  <outline>
    <contour>
      <point x="495" y="627" type="line"/>
      <point x="363" y="786" type="line"/>
      <point x="239" y="786" type="line"/>
      <point x="107" y="627" type="line"/>
      <point x="178" y="569" type="line"/>
      <point x="299" y="684" type="line"/>
      <point x="420" y="569" type="line"/>
    </contour>
    <contour>
      <point x="314" y="-12" type="curve"/>
      <point x="425" y="-12"/>
      <point x="495" y="30"/>
      <point x="535" y="79" type="curve"/>
      <point x="455" y="166" type="line"/>
      <point x="423" y="128"/>
      <point x="380" y="102"/>
      <point x="319" y="102" type="curve"/>
      <point x="240" y="102"/>
      <point x="197" y="147"/>
      <point x="197" y="213" type="curve"/>
      <point x="197" y="222" type="line"/>
      <point x="550" y="222" type="line"/>
      <point x="550" y="266" type="line" smooth="yes"/>
      <point x="550" y="427"/>
      <point x="455" y="528"/>
      <point x="301" y="528" type="curve"/>
      <point x="146" y="528"/>
      <point x="50" y="425"/>
      <point x="50" y="256" type="curve"/>
      <point x="50" y="91"/>
      <point x="141" y="-12"/>
    </contour>
    <contour>
      <point x="302" y="422" type="curve"/>
      <point x="366" y="422"/>
      <point x="405" y="380"/>
      <point x="405" y="313" type="curve"/>
      <point x="405" y="305" type="line"/>
      <point x="197" y="305" type="line"/>
      <point x="197" y="313" type="line" smooth="yes"/>
      <point x="197" y="379"/>
      <point x="238" y="422"/>
    </contour>
  </outline>
</glyph>
<glyph name="edieresis" format="1">
  <advance width="600"/>
  <unicode hex="00EB"/>
  <outline>
    <contour>
      <point x="191" y="591" type="curve"/>
      <point x="251" y="591"/>
      <point x="272" y="619"/>
      <point x="272" y="654" type="curve"/>
      <point x="272" y="680" type="line" smooth="yes"/>
      <point x="272" y="715"/>
      <point x="251" y="742"/>
      <point x="191" y="742" type="curve"/>
      <point x="132" y="742"/>
      <point x="111" y="715"/>
      <point x="111" y="680" type="curve"/>
      <point x="111" y="654" type="line" smooth="yes"/>
      <point x="111" y="619"/>
      <point x="132" y="591"/>
    </contour>
    <contour>
      <point x="411" y="591" type="curve"/>
      <point x="470" y="591"/>
      <point x="491" y="619"/>
      <point x="491" y="654" type="curve"/>
      <point x="491" y="680" type="line" smooth="yes"/>
      <point x="491" y="715"/>
      <point x="470" y="742"/>
      <point x="411" y="742" type="curve"/>
      <point x="351" y="742"/>
      <point x="330" y="715"/>
      <point x="330" y="680" type="curve"/>
      <point x="330" y="654" type="line" smooth="yes"/>
      <point x="330" y="619"/>
      <point x="351" y="591"/>
    </contour>
    <contour>
      <point x="314" y="-12" type="curve"/>
      <point x="425" y="-12"/>
      <point x="495" y="30"/>
      <point x="535" y="79" type="curve"/>
      <point x="455" y="166" type="line"/>
      <point x="423" y="128"/>
      <point x="380" y="102"/>
      <point x="319" y="102" type="curve"/>
      <point x="240" y="102"/>
      <point x="197" y="147"/>
      <point x="197" y="213" type="curve"/>
      <point x="197" y="222" type="line"/>
      <point x="550" y="222" type="line"/>
      <point x="550" y="266" type="line" smooth="yes"/>
      <point x="550" y="427"/>
      <point x="455" y="528"/>
      <point x="301" y="528" type="curve"/>
      <point x="146" y="528"/>
      <point x="50" y="425"/>
      <point x="50" y="256" type="curve"/>
      <point x="50" y="91"/>
      <point x="141" y="-12"/>
    </contour>
    <contour>
      <point x="302" y="422" type="curve"/>
      <point x="366" y="422"/>
      <point x="405" y="380"/>
      <point x="405" y="313" type="curve"/>
      <point x="405" y="305" type="line"/>
      <point x="197" y="305" type="line"/>
      <point x="197" y="313" type="line" smooth="yes"/>
      <point x="197" y="379"/>
      <point x="238" y="422"/>
    </contour>
  </outline>
</glyph>
<glyph name="igrave" format="1">
  <advance width="600"/>
  <unicode hex="00EC"/>
  <outline>
    <contour>
      <point x="305" y="807" type="line"/>
      <point x="182" y="746" type="line"/>
      <point x="316" y="570" type="line"/>
      <point x="404" y="613" type="line"/>
    </contour>
    <contour>
      <point x="258" y="115" type="line"/>
      <point x="94" y="115" type="line"/>
      <point x="94" y="0" type="line"/>
      <point x="558" y="0" type="line"/>
      <point x="558" y="115" type="line"/>
      <point x="406" y="115" type="line"/>
      <point x="406" y="516" type="line"/>
      <point x="94" y="516" type="line"/>
      <point x="94" y="401" type="line"/>
      <point x="258" y="401" type="line"/>
    </contour>
  </outline>
</glyph>
<glyph name="iacute" format="1">
  <advance width="600"/>
  <unicode hex="00ED"/>
  <outline>
    <contour>
      <point x="260" y="613" type="line"/>
      <point x="348" y="570" type="line"/>
      <point x="482" y="746" type="line"/>
      <point x="359" y="807" type="line"/>
    </contour>
    <contour>
      <point x="258" y="115" type="line"/>
      <point x="94" y="115" type="line"/>
      <point x="94" y="0" type="line"/>
      <point x="558" y="0" type="line"/>
      <point x="558" y="115" type="line"/>
      <point x="406" y="115" type="line"/>
      <point x="406" y="516" type="line"/>
      <point x="94" y="516" type="line"/>
      <point x="94" y="401" type="line"/>
      <point x="258" y="401" type="line"/>
    </contour>
  </outline>
</glyph>
<glyph name="icircumflex" format="1">
  <advance width="600"/>
  <unicode hex="00EE"/>
  <outline>
    <contour>
      <point x="526" y="627" type="line"/>
      <point x="394" y="786" type="line"/>
      <point x="270" y="786" type="line"/>
      <point x="138" y="627" type="line"/>
      <point x="209" y="569" type="line"/>
      <point x="330" y="684" type="line"/>
      <point x="451" y="569" type="line"/>
    </contour>
    <contour>
      <point x="258" y="115" type="line"/>
      <point x="94" y="115" type="line"/>
      <point x="94" y="0" type="line"/>
      <point x="558" y="0" type="line"/>
      <point x="558" y="115" type="line"/>
      <point x="406" y="115" type="line"/>
      <point x="406" y="516" type="line"/>
      <point x="94" y="516" type="line"/>
      <point x="94" y="401" type="line"/>
      <point x="258" y="401" type="line"/>
    </contour>
  </outline>
</glyph>
<glyph name="idieresis" format="1">
  <advance width="600"/>
  <unicode hex="00EF"/>
  <outline>
    <contour>
      <point x="222" y="591" type="curve"/>
      <point x="282" y="591"/>
      <point x="303" y="619"/>
      <point x="303" y="654" type="curve"/>
      <point x="303" y="680" type="line" smooth="yes"/>
      <point x="303" y="715"/>
      <point x="282" y="742"/>
      <point x="222" y="742" type="curve"/>
      <point x="163" y="742"/>
      <point x="142" y="715"/>
      <point x="142" y="680" type="curve"/>
      <point x="142" y="654" type="line" smooth="yes"/>
      <point x="142" y="619"/>
      <point x="163" y="591"/>
    </contour>
    <contour>
      <point x="442" y="591" type="curve"/>
      <point x="501" y="591"/>
      <point x="522" y="619"/>
      <point x="522" y="654" type="curve"/>
      <point x="522" y="680" type="line" smooth="yes"/>
      <point x="522" y="715"/>
      <point x="501" y="742"/>
      <point x="442" y="742" type="curve"/>
      <point x="382" y="742"/>
      <point x="361" y="715"/>
      <point x="361" y="680" type="curve"/>
      <point x="361" y="654" type="line" smooth="yes"/>
      <point x="361" y="619"/>
      <point x="382" y="591"/>
    </contour>
    <contour>
      <point x="258" y="115" type="line"/>
      <point x="94" y="115" type="line"/>
      <point x="94" y="0" type="line"/>
      <point x="558" y="0" type="line"/>
      <point x="558" y="115" type="line"/>
      <point x="406" y="115" type="line"/>
      <point x="406" y="516" type="line"/>
      <point x="94" y="516" type="line"/>
      <point x="94" y="401" type="line"/>
      <point x="258" y="401" type="line"/>
    </contour>
  </outline>
</glyph>
<glyph name="ntilde" format="1">
  <advance width="600"/>
  <unicode hex="00F1"/>
  <outline>
    <contour>
      <point x="378" y="592" type="curve"/>
      <point x="431" y="592"/>
      <point x="468" y="620"/>
      <point x="492" y="656" type="curve"/>
      <point x="440" y="724" type="line"/>
      <point x="419" y="707"/>
      <point x="404" y="699"/>
      <point x="381" y="699" type="curve"/>
      <point x="355" y="699"/>
      <point x="332" y="709"/>
      <point x="303" y="721" type="curve"/>
      <point x="278" y="732"/>
      <point x="256" y="741"/>
      <point x="226" y="741" type="curve"/>
      <point x="173" y="741"/>
      <point x="136" y="713"/>
      <point x="112" y="677" type="curve"/>
      <point x="164" y="609" type="line"/>
      <point x="185" y="626"/>
      <point x="200" y="634"/>
      <point x="223" y="634" type="curve"/>
      <point x="249" y="634"/>
      <point x="272" y="624"/>
      <point x="301" y="612" type="curve"/>
      <point x="326" y="601"/>
      <point x="348" y="592"/>
    </contour>
    <contour>
      <point x="65" y="516" type="line"/>
      <point x="65" y="0" type="line"/>
      <point x="213" y="0" type="line"/>
      <point x="213" y="339" type="line" smooth="yes"/>
      <point x="213" y="389"/>
      <point x="258" y="414"/>
      <point x="304" y="414" type="curve"/>
      <point x="362" y="414"/>
      <point x="391" y="379"/>
      <point x="391" y="314" type="curve"/>
      <point x="391" y="0" type="line"/>
      <point x="539" y="0" type="line"/>
      <point x="539" y="334" type="line" smooth="yes"/>
      <point x="539" y="459"/>
      <point x="470" y="528"/>
      <point x="371" y="528" type="curve"/>
      <point x="288" y="528"/>
      <point x="242" y="480"/>
      <point x="219" y="422" type="curve"/>
      <point x="213" y="422" type="line"/>
      <point x="213" y="516" type="line"/>
    </contour>
  </outline>
</glyph>
<glyph name="oacute" format="1">
  <advance width="600"/>
  <unicode hex="00F3"/>
  <outline>
    <contour>
      <point x="228" y="613" type="line"/>
      <point x="316" y="570" type="line"/>
      <point x="450" y="746" type="line"/>
      <point x="327" y="807" type="line"/>
    </contour>
    <contour>
      <point x="300" y="-12" type="curve"/>
      <point x="461" y="-12"/>
      <point x="559" y="91"/>
      <point x="559" y="258" type="curve"/>
      <point x="559" y="425"/>
      <point x="461" y="528"/>
      <point x="300" y="528" type="curve"/>
      <point x="139" y="528"/>
      <point x="41" y="425"/>
      <point x="41" y="258" type="curve"/>
      <point x="41" y="91"/>
      <point x="139" y="-12"/>
    </contour>
    <contour>
      <point x="300" y="98" type="curve"/>
      <point x="234" y="98"/>
      <point x="194" y="141"/>
      <point x="194" y="217" type="curve"/>
      <point x="194" y="299" type="line" smooth="yes"/>
      <point x="194" y="375"/>
      <point x="234" y="418"/>
      <point x="300" y="418" type="curve"/>
      <point x="366" y="418"/>
      <point x="406" y="375"/>
      <point x="406" y="299" type="curve"/>
      <point x="406" y="217" type="line" smooth="yes"/>
      <point x="406" y="141"/>
      <point x="366" y="98"/>
    </contour>
  </outline>
</glyph>
<glyph name="ocircumflex" format="1">
  <advance width="600"/>
  <unicode hex="00F4"/>
  <outline>
    <contour>
      <point x="494" y="627" type="line"/>
      <point x="362" y="786" type="line"/>
      <point x="238" y="786" type="line"/>
      <point x="106" y="627" type="line"/>
      <point x="177" y="569" type="line"/>
      <point x="298" y="684" type="line"/>
      <point x="419" y="569" type="line"/>
    </contour>
    <contour>
      <point x="300" y="-12" type="curve"/>
      <point x="461" y="-12"/>
      <point x="559" y="91"/>
      <point x="559" y="258" type="curve"/>
      <point x="559" y="425"/>
      <point x="461" y="528"/>
      <point x="300" y="528" type="curve"/>
      <point x="139" y="528"/>
      <point x="41" y="425"/>
      <point x="41" y="258" type="curve"/>
      <point x="41" y="91"/>
      <point x="139" y="-12"/>
    </contour>
    <contour>
      <point x="300" y="98" type="curve"/>
      <point x="234" y="98"/>
      <point x="194" y="141"/>
      <point x="194" y="217" type="curve"/>
      <point x="194" y="299" type="line" smooth="yes"/>
      <point x="194" y="375"/>
      <point x="234" y="418"/>
      <point x="300" y="418" type="curve"/>
      <point x="366" y="418"/>
      <point x="406" y="375"/>
      <point x="406" y="299" type="curve"/>
      <point x="406" y="217" type="line" smooth="yes"/>
      <point x="406" y="141"/>
      <point x="366" y="98"/>
    </contour>
  </outline>
</glyph>
<glyph name="otilde" format="1">
  <advance width="600"/>
  <unicode hex="00F5"/>
  <outline>
    <contour>
      <point x="376" y="592" type="curve"/>
      <point x="429" y="592"/>
      <point x="466" y="620"/>
      <point x="490" y="656" type="curve"/>
      <point x="438" y="724" type="line"/>
      <point x="417" y="707"/>
      <point x="402" y="699"/>
      <point x="379" y="699" type="curve"/>
      <point x="353" y="699"/>
      <point x="330" y="709"/>
      <point x="301" y="721" type="curve"/>
      <point x="276" y="732"/>
      <point x="254" y="741"/>
      <point x="224" y="741" type="curve"/>
      <point x="171" y="741"/>
      <point x="134" y="713"/>
      <point x="110" y="677" type="curve"/>
      <point x="162" y="609" type="line"/>
      <point x="183" y="626"/>
      <point x="198" y="634"/>
      <point x="221" y="634" type="curve"/>
      <point x="247" y="634"/>
      <point x="270" y="624"/>
      <point x="299" y="612" type="curve"/>
      <point x="324" y="601"/>
      <point x="346" y="592"/>
    </contour>
    <contour>
      <point x="300" y="-12" type="curve"/>
      <point x="461" y="-12"/>
      <point x="559" y="91"/>
      <point x="559" y="258" type="curve"/>
      <point x="559" y="425"/>
      <point x="461" y="528"/>
      <point x="300" y="528" type="curve"/>
      <point x="139" y="528"/>
      <point x="41" y="425"/>
      <point x="41" y="258" type="curve"/>
      <point x="41" y="91"/>
      <point x="139" y="-12"/>
    </contour>
    <contour>
      <point x="300" y="98" type="curve"/>
      <point x="234" y="98"/>
      <point x="194" y="141"/>
      <point x="194" y="217" type="curve"/>
      <point x="194" y="299" type="line" smooth="yes"/>
      <point x="194" y="375"/>
      <point x="234" y="418"/>
      <point x="300" y="418" type="curve"/>
      <point x="366" y="418"/>
      <point x="406" y="375"/>
      <point x="406" y="299" type="curve"/>
      <point x="406" y="217" type="line" smooth="yes"/>
      <point x="406" y="141"/>
      <point x="366" y="98"/>
    </contour>
  </outline>
</glyph>
<glyph name="ucircumflex" format="1">
  <advance width="600"/>
  <unicode hex="00FB"/>
  <outline>
    <contour>
      <point x="492" y="627" type="line"/>
      <point x="360" y="786" type="line"/>
      <point x="236" y="786" type="line"/>
      <point x="104" y="627" type="line"/>
      <point x="175" y="569" type="line"/>
      <point x="296" y="684" type="line"/>
      <point x="417" y="569" type="line"/>
    </contour>
    <contour>
      <point x="381" y="94" type="curve"/>
      <point x="387" y="94" type="line"/>
      <point x="387" y="0" type="line"/>
      <point x="535" y="0" type="line"/>
      <point x="535" y="516" type="line"/>
      <point x="387" y="516" type="line"/>
      <point x="387" y="177" type="line" smooth="yes"/>
      <point x="387" y="127"/>
      <point x="342" y="102"/>
      <point x="296" y="102" type="curve"/>
      <point x="238" y="102"/>
      <point x="209" y="137"/>
      <point x="209" y="202" type="curve"/>
      <point x="209" y="516" type="line"/>
      <point x="61" y="516" type="line"/>
      <point x="61" y="182" type="line" smooth="yes"/>
      <point x="61" y="57"/>
      <point x="130" y="-12"/>
      <point x="229" y="-12" type="curve"/>
      <point x="312" y="-12"/>
      <point x="358" y="36"/>
    </contour>
  </outline>
</glyph>
<glyph name="udieresis" format="1">
  <advance width="600"/>
  <unicode hex="00FC"/>
  <outline>
    <contour>
      <point x="188" y="591" type="curve"/>
      <point x="248" y="591"/>
      <point x="269" y="619"/>
      <point x="269" y="654" type="curve"/>
      <point x="269" y="680" type="line" smooth="yes"/>
      <point x="269" y="715"/>
      <point x="248" y="742"/>
      <point x="188" y="742" type="curve"/>
      <point x="129" y="742"/>
      <point x="108" y="715"/>
      <point x="108" y="680" type="curve"/>
      <point x="108" y="654" type="line" smooth="yes"/>
      <point x="108" y="619"/>
      <point x="129" y="591"/>
    </contour>
    <contour>
      <point x="408" y="591" type="curve"/>
      <point x="467" y="591"/>
      <point x="488" y="619"/>
      <point x="488" y="654" type="curve"/>
      <point x="488" y="680" type="line" smooth="yes"/>
      <point x="488" y="715"/>
      <point x="467" y="742"/>
      <point x="408" y="742" type="curve"/>
      <point x="348" y="742"/>
      <point x="327" y="715"/>
      <point x="327" y="680" type="curve"/>
      <point x="327" y="654" type="line" smooth="yes"/>
      <point x="327" y="619"/>
      <point x="348" y="591"/>
    </contour>
    <contour>
      <point x="381" y="94" type="curve"/>
      <point x="387" y="94" type="line"/>
      <point x="387" y="0" type="line"/>
      <point x="535" y="0" type="line"/>
      <point x="535" y="516" type="line"/>
      <point x="387" y="516" type="line"/>
      <point x="387" y="177" type="line" smooth="yes"/>
      <point x="387" y="127"/>
      <point x="342" y="102"/>
      <point x="296" y="102" type="curve"/>
      <point x="238" y="102"/>
      <point x="209" y="137"/>
      <point x="209" y="202" type="curve"/>
      <point x="209" y="516" type="line"/>
      <point x="61" y="516" type="line"/>
      <point x="61" y="182" type="line" smooth="yes"/>
      <point x="61" y="57"/>
      <point x="130" y="-12"/>
      <point x="229" y="-12" type="curve"/>
      <point x="312" y="-12"/>
      <point x="358" y="36"/>
    </contour>
  </outline>
</glyph>
<glyph name="thorn" format="1">
  <advance width="600"/>
  <unicode hex="00FE"/>
  <outline>
    <contour>
      <point x="207" y="740" type="line"/>
      <point x="59" y="740" type="line"/>
      <point x="59" y="-200" type="line"/>
      <point x="207" y="-200" type="line"/>
      <point x="207" y="94" type="line"/>
      <point x="214" y="94" type="line"/>
      <point x="240" y="32"/>
      <point x="284" y="-12"/>
      <point x="367" y="-12" type="curve"/>
      <point x="481" y="-12"/>
      <point x="561" y="71"/>
      <point x="561" y="258" type="curve"/>
      <point x="561" y="445"/>
      <point x="481" y="528"/>
      <point x="367" y="528" type="curve"/>
      <point x="284" y="528"/>
      <point x="240" y="484"/>
      <point x="214" y="422" type="curve"/>
      <point x="207" y="422" type="line"/>
    </contour>
    <contour>
      <point x="303" y="103" type="curve"/>
      <point x="251" y="103"/>
      <point x="207" y="128"/>
      <point x="207" y="182" type="curve"/>
      <point x="207" y="334" type="line" smooth="yes"/>
      <point x="207" y="388"/>
      <point x="251" y="413"/>
      <point x="303" y="413" type="curve"/>
      <point x="369" y="413"/>
      <point x="407" y="370"/>
      <point x="407" y="298" type="curve"/>
      <point x="407" y="218" type="line" smooth="yes"/>
      <point x="407" y="146"/>
      <point x="369" y="103"/>
    </contour>
  </outline>
</glyph>
<glyph name="Aogonek" format="1">
  <advance width="600"/>
  <unicode hex="0104"/>
  <outline>
    <contour>
      <point x="406" y="698" type="line"/>
      <point x="194" y="698" type="line"/>
      <point x="5" y="0" type="line"/>
      <point x="157" y="0" type="line"/>
      <point x="200" y="168" type="line"/>
      <point x="391" y="168" type="line"/>
      <point x="435" y="0" type="line"/>
      <point x="498" y="0" type="line"/>
      <point x="500" y="-4" type="line"/>
      <point x="426" y="-38"/>
      <point x="381" y="-71"/>
      <point x="381" y="-127" type="curve"/>
      <point x="381" y="-191"/>
      <point x="439" y="-212"/>
      <point x="505" y="-212" type="curve"/>
      <point x="568" y="-212"/>
      <point x="610" y="-193"/>
      <point x="627" y="-161" type="curve"/>
      <point x="574" y="-110" type="line"/>
      <point x="560" y="-126"/>
      <point x="543" y="-138"/>
      <point x="519" y="-138" type="curve"/>
      <point x="499" y="-138"/>
      <point x="481" y="-130"/>
      <point x="481" y="-105" type="curve"/>
      <point x="481" y="-81"/>
      <point x="497" y="-60"/>
      <point x="595" y="0" type="curve"/>
    </contour>
    <contour>
      <point x="292" y="553" type="line"/>
      <point x="300" y="553" type="line"/>
      <point x="368" y="289" type="line"/>
      <point x="224" y="289" type="line"/>
    </contour>
  </outline>
</glyph>
<glyph name="cacute" format="1">
  <advance width="600"/>
  <unicode hex="0107"/>
  <outline>
    <contour>
      <point x="242" y="613" type="line"/>
      <point x="330" y="570" type="line"/>
      <point x="464" y="746" type="line"/>
      <point x="341" y="807" type="line"/>
    </contour>
    <contour>
      <point x="321" y="-12" type="curve"/>
      <point x="436" y="-12"/>
      <point x="506" y="39"/>
      <point x="543" y="114" type="curve"/>
      <point x="431" y="178" type="line"/>
      <point x="409" y="136"/>
      <point x="379" y="106"/>
      <point x="322" y="106" type="curve"/>
      <point x="252" y="106"/>
      <point x="214" y="148"/>
      <point x="214" y="216" type="curve"/>
      <point x="214" y="300" type="line" smooth="yes"/>
      <point x="214" y="368"/>
      <point x="253" y="410"/>
      <point x="320" y="410" type="curve"/>
      <point x="375" y="410"/>
      <point x="403" y="380"/>
      <point x="421" y="340" type="curve"/>
      <point x="535" y="402" type="line"/>
      <point x="499" y="477"/>
      <point x="433" y="528"/>
      <point x="320" y="528" type="curve"/>
      <point x="159" y="528"/>
      <point x="60" y="425"/>
      <point x="60" y="258" type="curve"/>
      <point x="60" y="91"/>
      <point x="158" y="-12"/>
    </contour>
  </outline>
</glyph>
<glyph name="Ccircumflex" format="1">
  <advance width="600"/>
  <unicode hex="0108"/>
  <outline>
    <contour>
      <point x="506" y="797" type="line"/>
      <point x="374" y="956" type="line"/>
      <point x="250" y="956" type="line"/>
      <point x="118" y="797" type="line"/>
      <point x="189" y="739" type="line"/>
      <point x="310" y="854" type="line"/>
      <point x="431" y="739" type="line"/>
    </contour>
    <contour>
      <point x="316" y="-12" type="curve"/>
      <point x="460" y="-12"/>
      <point x="535" y="67"/>
      <point x="563" y="189" type="curve"/>
      <point x="423" y="223" type="line"/>
      <point x="408" y="157"/>
      <point x="383" y="109"/>
      <point x="313" y="109" type="curve"/>
      <point x="232" y="109"/>
      <point x="201" y="177"/>
      <point x="201" y="288" type="curve"/>
      <point x="201" y="410" type="line" smooth="yes"/>
      <point x="201" y="521"/>
      <point x="232" y="589"/>
      <point x="313" y="589" type="curve"/>
      <point x="383" y="589"/>
      <point x="408" y="541"/>
      <point x="423" y="475" type="curve"/>
      <point x="563" y="509" type="line"/>
      <point x="535" y="631"/>
      <point x="460" y="710"/>
      <point x="316" y="710" type="curve"/>
      <point x="129" y="710"/>
      <point x="41" y="578"/>
      <point x="41" y="349" type="curve"/>
      <point x="41" y="120"/>
      <point x="129" y="-12"/>
    </contour>
  </outline>
</glyph>
<glyph name="ccircumflex" format="1">
  <advance width="600"/>
  <unicode hex="0109"/>
  <outline>
    <contour>
      <point x="508" y="627" type="line"/>
      <point x="376" y="786" type="line"/>
      <point x="252" y="786" type="line"/>
      <point x="120" y="627" type="line"/>
      <point x="191" y="569" type="line"/>
      <point x="312" y="684" type="line"/>
      <point x="433" y="569" type="line"/>
    </contour>
    <contour>
      <point x="321" y="-12" type="curve"/>
      <point x="436" y="-12"/>
      <point x="506" y="39"/>
      <point x="543" y="114" type="curve"/>
      <point x="431" y="178" type="line"/>
      <point x="409" y="136"/>
      <point x="379" y="106"/>
      <point x="322" y="106" type="curve"/>
      <point x="252" y="106"/>
      <point x="214" y="148"/>
      <point x="214" y="216" type="curve"/>
      <point x="214" y="300" type="line" smooth="yes"/>
      <point x="214" y="368"/>
      <point x="253" y="410"/>
      <point x="320" y="410" type="curve"/>
      <point x="375" y="410"/>
      <point x="403" y="380"/>
      <point x="421" y="340" type="curve"/>
      <point x="535" y="402" type="line"/>
      <point x="499" y="477"/>
      <point x="433" y="528"/>
      <point x="320" y="528" type="curve"/>
      <point x="159" y="528"/>
      <point x="60" y="425"/>
      <point x="60" y="258" type="curve"/>
      <point x="60" y="91"/>
      <point x="158" y="-12"/>
    </contour>
  </outline>
</glyph>
<glyph name="Ccaron" format="1">
  <advance width="600"/>
  <unicode hex="010C"/>
  <outline>
    <contour>
      <point x="118" y="907" type="line"/>
      <point x="250" y="748" type="line"/>
      <point x="374" y="748" type="line"/>
      <point x="506" y="907" type="line"/>
      <point x="435" y="965" type="line"/>
      <point x="314" y="850" type="line"/>
      <point x="193" y="965" type="line"/>
    </contour>
    <contour>
      <point x="316" y="-12" type="curve"/>
      <point x="460" y="-12"/>
      <point x="535" y="67"/>
      <point x="563" y="189" type="curve"/>
      <point x="423" y="223" type="line"/>
      <point x="408" y="157"/>
      <point x="383" y="109"/>
      <point x="313" y="109" type="curve"/>
      <point x="232" y="109"/>
      <point x="201" y="177"/>
      <point x="201" y="288" type="curve"/>
      <point x="201" y="410" type="line" smooth="yes"/>
      <point x="201" y="521"/>
      <point x="232" y="589"/>
      <point x="313" y="589" type="curve"/>
      <point x="383" y="589"/>
      <point x="408" y="541"/>
      <point x="423" y="475" type="curve"/>
      <point x="563" y="509" type="line"/>
      <point x="535" y="631"/>
      <point x="460" y="710"/>
      <point x="316" y="710" type="curve"/>
      <point x="129" y="710"/>
      <point x="41" y="578"/>
      <point x="41" y="349" type="curve"/>
      <point x="41" y="120"/>
      <point x="129" y="-12"/>
    </contour>
  </outline>
</glyph>
<glyph name="dcaron" format="1">
  <advance width="600"/>
  <unicode hex="010F"/>
  <outline>
    <contour>
      <point x="185" y="-12" type="curve"/>
      <point x="254" y="-12"/>
      <point x="286" y="31"/>
      <point x="306" y="93" type="curve"/>
      <point x="314" y="93" type="line"/>
      <point x="314" y="0" type="line"/>
      <point x="455" y="0" type="line"/>
      <point x="455" y="740" type="line"/>
      <point x="314" y="740" type="line"/>
      <point x="314" y="423" type="line"/>
      <point x="306" y="423" type="line"/>
      <point x="286" y="485"/>
      <point x="254" y="528"/>
      <point x="185" y="528" type="curve"/>
      <point x="86" y="528"/>
      <point x="27" y="443"/>
      <point x="27" y="258" type="curve"/>
      <point x="27" y="73"/>
      <point x="86" y="-12"/>
    </contour>
    <contour>
      <point x="244" y="97" type="curve"/>
      <point x="200" y="97"/>
      <point x="174" y="127"/>
      <point x="174" y="200" type="curve"/>
      <point x="174" y="316" type="line" smooth="yes"/>
      <point x="174" y="389"/>
      <point x="200" y="419"/>
      <point x="244" y="419" type="curve"/>
      <point x="285" y="419"/>
      <point x="314" y="392"/>
      <point x="314" y="336" type="curve"/>
      <point x="314" y="180" type="line" smooth="yes"/>
      <point x="314" y="124"/>
      <point x="285" y="97"/>
    </contour>
    <contour>
      <point x="637" y="740" type="line"/>
      <point x="508" y="740" type="line"/>
      <point x="506" y="529" type="line"/>
      <point x="583" y="529" type="line"/>
    </contour>
  </outline>
</glyph>
<glyph name="Ebreve" format="1">
  <advance width="600"/>
  <unicode hex="0114"/>
  <outline>
    <contour>
      <point x="303" y="740" type="curve"/>
      <point x="423" y="740"/>
      <point x="472" y="838"/>
      <point x="497" y="910" type="curve"/>
      <point x="414" y="952" type="line"/>
      <point x="393" y="920" type="line" smooth="yes"/>
      <point x="362" y="872"/>
      <point x="342" y="843"/>
      <point x="303" y="843" type="curve"/>
      <point x="264" y="843"/>
      <point x="244" y="872"/>
      <point x="213" y="920" type="curve"/>
      <point x="192" y="952" type="line"/>
      <point x="109" y="910" type="line"/>
      <point x="134" y="838"/>
      <point x="183" y="740"/>
    </contour>
    <contour>
      <point x="80" y="698" type="line"/>
      <point x="80" y="0" type="line"/>
      <point x="526" y="0" type="line"/>
      <point x="526" y="123" type="line"/>
      <point x="230" y="123" type="line"/>
      <point x="230" y="292" type="line"/>
      <point x="516" y="292" type="line"/>
      <point x="516" y="415" type="line"/>
      <point x="230" y="415" type="line"/>
      <point x="230" y="575" type="line"/>
      <point x="526" y="575" type="line"/>
      <point x="526" y="698" type="line"/>
    </contour>
  </outline>
</glyph>
<glyph name="Edotaccent" format="1">
  <advance width="600"/>
  <unicode hex="0116"/>
  <outline>
    <contour>
      <point x="303" y="752" type="curve"/>
      <point x="369" y="752"/>
      <point x="392" y="783"/>
      <point x="392" y="822" type="curve"/>
      <point x="392" y="851" type="line" smooth="yes"/>
      <point x="392" y="891"/>
      <point x="369" y="921"/>
      <point x="303" y="921" type="curve"/>
      <point x="237" y="921"/>
      <point x="214" y="891"/>
      <point x="214" y="851" type="curve"/>
      <point x="214" y="822" type="line" smooth="yes"/>
      <point x="214" y="783"/>
      <point x="237" y="752"/>
    </contour>
    <contour>
      <point x="80" y="698" type="line"/>
      <point x="80" y="0" type="line"/>
      <point x="526" y="0" type="line"/>
      <point x="526" y="123" type="line"/>
      <point x="230" y="123" type="line"/>
      <point x="230" y="292" type="line"/>
      <point x="516" y="292" type="line"/>
      <point x="516" y="415" type="line"/>
      <point x="230" y="415" type="line"/>
      <point x="230" y="575" type="line"/>
      <point x="526" y="575" type="line"/>
      <point x="526" y="698" type="line"/>
    </contour>
  </outline>
</glyph>
<glyph name="edotaccent" format="1">
  <advance width="600"/>
  <unicode hex="0117"/>
  <outline>
    <contour>
      <point x="301" y="582" type="curve"/>
      <point x="367" y="582"/>
      <point x="390" y="613"/>
      <point x="390" y="652" type="curve"/>
      <point x="390" y="681" type="line" smooth="yes"/>
      <point x="390" y="721"/>
      <point x="367" y="751"/>
      <point x="301" y="751" type="curve"/>
      <point x="235" y="751"/>
      <point x="212" y="721"/>
      <point x="212" y="681" type="curve"/>
      <point x="212" y="652" type="line" smooth="yes"/>
      <point x="212" y="613"/>
      <point x="235" y="582"/>
    </contour>
    <contour>
      <point x="314" y="-12" type="curve"/>
      <point x="425" y="-12"/>
      <point x="495" y="30"/>
      <point x="535" y="79" type="curve"/>
      <point x="455" y="166" type="line"/>
      <point x="423" y="128"/>
      <point x="380" y="102"/>
      <point x="319" y="102" type="curve"/>
      <point x="240" y="102"/>
      <point x="197" y="147"/>
      <point x="197" y="213" type="curve"/>
      <point x="197" y="222" type="line"/>
      <point x="550" y="222" type="line"/>
      <point x="550" y="266" type="line" smooth="yes"/>
      <point x="550" y="427"/>
      <point x="455" y="528"/>
      <point x="301" y="528" type="curve"/>
      <point x="146" y="528"/>
      <point x="50" y="425"/>
      <point x="50" y="256" type="curve"/>
      <point x="50" y="91"/>
      <point x="141" y="-12"/>
    </contour>
    <contour>
      <point x="302" y="422" type="curve"/>
      <point x="366" y="422"/>
      <point x="405" y="380"/>
      <point x="405" y="313" type="curve"/>
      <point x="405" y="305" type="line"/>
      <point x="197" y="305" type="line"/>
      <point x="197" y="313" type="line" smooth="yes"/>
      <point x="197" y="379"/>
      <point x="238" y="422"/>
    </contour>
  </outline>
</glyph>
<glyph name="Ecaron" format="1">
  <advance width="600"/>
  <unicode hex="011A"/>
  <outline>
    <contour>
      <point x="109" y="907" type="line"/>
      <point x="241" y="748" type="line"/>
      <point x="365" y="748" type="line"/>
      <point x="497" y="907" type="line"/>
      <point x="426" y="965" type="line"/>
      <point x="305" y="850" type="line"/>
      <point x="184" y="965" type="line"/>
    </contour>
    <contour>
      <point x="80" y="698" type="line"/>
      <point x="80" y="0" type="line"/>
      <point x="526" y="0" type="line"/>
      <point x="526" y="123" type="line"/>
      <point x="230" y="123" type="line"/>
      <point x="230" y="292" type="line"/>
      <point x="516" y="292" type="line"/>
      <point x="516" y="415" type="line"/>
      <point x="230" y="415" type="line"/>
      <point x="230" y="575" type="line"/>
      <point x="526" y="575" type="line"/>
      <point x="526" y="698" type="line"/>
    </contour>
  </outline>
</glyph>
<glyph name="Gcircumflex" format="1">
  <advance width="600"/>
  <unicode hex="011C"/>
  <outline>
    <contour>
      <point x="495" y="797" type="line"/>
      <point x="363" y="956" type="line"/>
      <point x="239" y="956" type="line"/>
      <point x="107" y="797" type="line"/>
      <point x="178" y="739" type="line"/>
      <point x="299" y="854" type="line"/>
      <point x="420" y="739" type="line"/>
    </contour>
    <contour>
      <point x="402" y="99" type="curve"/>
      <point x="411" y="99" type="line"/>
      <point x="411" y="0" type="line"/>
      <point x="545" y="0" type="line"/>
      <point x="545" y="373" type="line"/>
      <point x="292" y="373" type="line"/>
      <point x="292" y="267" type="line"/>
      <point x="411" y="267" type="line"/>
      <point x="411" y="216" type="line" smooth="yes"/>
      <point x="411" y="154"/>
      <point x="377" y="109"/>
      <point x="310" y="109" type="curve"/>
      <point x="223" y="109"/>
      <point x="194" y="183"/>
      <point x="194" y="296" type="curve"/>
      <point x="194" y="410" type="line" smooth="yes"/>
      <point x="194" y="522"/>
      <point x="222" y="589"/>
      <point x="298" y="589" type="curve"/>
      <point x="367" y="589"/>
      <point x="390" y="534"/>
      <point x="405" y="475" type="curve"/>
      <point x="545" y="509" type="line"/>
      <point x="517" y="629"/>
      <point x="445" y="710"/>
      <point x="301" y="710" type="curve"/>
      <point x="120" y="710"/>
      <point x="35" y="580"/>
      <point x="35" y="343" type="curve"/>
      <point x="35" y="121"/>
      <point x="109" y="-12"/>
      <point x="246" y="-12" type="curve"/>
      <point x="332" y="-12"/>
      <point x="379" y="41"/>
    </contour>
  </outline>
</glyph>
<glyph name="Gbreve" format="1">
  <advance width="600"/>
  <unicode hex="011E"/>
  <outline>
    <contour>
      <point x="301" y="740" type="curve"/>
      <point x="421" y="740"/>
      <point x="470" y="838"/>
      <point x="495" y="910" type="curve"/>
      <point x="412" y="952" type="line"/>
      <point x="391" y="920" type="line" smooth="yes"/>
      <point x="360" y="872"/>
      <point x="340" y="843"/>
      <point x="301" y="843" type="curve"/>
      <point x="262" y="843"/>
      <point x="242" y="872"/>
      <point x="211" y="920" type="curve"/>
      <point x="190" y="952" type="line"/>
      <point x="107" y="910" type="line"/>
      <point x="132" y="838"/>
      <point x="181" y="740"/>
    </contour>
    <contour>
      <point x="402" y="99" type="curve"/>
      <point x="411" y="99" type="line"/>
      <point x="411" y="0" type="line"/>
      <point x="545" y="0" type="line"/>
      <point x="545" y="373" type="line"/>
      <point x="292" y="373" type="line"/>
      <point x="292" y="267" type="line"/>
      <point x="411" y="267" type="line"/>
      <point x="411" y="216" type="line" smooth="yes"/>
      <point x="411" y="154"/>
      <point x="377" y="109"/>
      <point x="310" y="109" type="curve"/>
      <point x="223" y="109"/>
      <point x="194" y="183"/>
      <point x="194" y="296" type="curve"/>
      <point x="194" y="410" type="line" smooth="yes"/>
      <point x="194" y="522"/>
      <point x="222" y="589"/>
      <point x="298" y="589" type="curve"/>
      <point x="367" y="589"/>
      <point x="390" y="534"/>
      <point x="405" y="475" type="curve"/>
      <point x="545" y="509" type="line"/>
      <point x="517" y="629"/>
      <point x="445" y="710"/>
      <point x="301" y="710" type="curve"/>
      <point x="120" y="710"/>
      <point x="35" y="580"/>
      <point x="35" y="343" type="curve"/>
      <point x="35" y="121"/>
      <point x="109" y="-12"/>
      <point x="246" y="-12" type="curve"/>
      <point x="332" y="-12"/>
      <point x="379" y="41"/>
    </contour>
  </outline>
</glyph>
<glyph name="gdotaccent" format="1">
  <advance width="600"/>
  <unicode hex="0121"/>
  <outline>
    <contour>
      <point x="294" y="582" type="curve"/>
      <point x="360" y="582"/>
      <point x="383" y="613"/>
      <point x="383" y="652" type="curve"/>
      <point x="383" y="681" type="line" smooth="yes"/>
      <point x="383" y="721"/>
      <point x="360" y="751"/>
      <point x="294" y="751" type="curve"/>
      <point x="228" y="751"/>
      <point x="205" y="721"/>
      <point x="205" y="681" type="curve"/>
      <point x="205" y="652" type="line" smooth="yes"/>
      <point x="205" y="613"/>
      <point x="228" y="582"/>
    </contour>
    <contour>
      <point x="583" y="-52" type="curve"/>
      <point x="583" y="35"/>
      <point x="526" y="97"/>
      <point x="378" y="97" type="curve"/>
      <point x="260" y="97" type="line" smooth="yes"/>
      <point x="219" y="97"/>
      <point x="184" y="99"/>
      <point x="184" y="132" type="curve"/>
      <point x="184" y="150"/>
      <point x="195" y="162"/>
      <point x="210" y="170" type="curve"/>
      <point x="235" y="163"/>
      <point x="264" y="160"/>
      <point x="294" y="160" type="curve"/>
      <point x="430" y="160"/>
      <point x="520" y="225"/>
      <point x="520" y="344" type="curve"/>
      <point x="520" y="417"/>
      <point x="487" y="469"/>
      <point x="431" y="498" type="curve"/>
      <point x="431" y="507" type="line"/>
      <point x="555" y="507" type="line"/>
      <point x="555" y="615" type="line"/>
      <point x="464" y="615" type="line" smooth="yes"/>
      <point x="415" y="615"/>
      <point x="385" y="585"/>
      <point x="385" y="545" type="curve"/>
      <point x="385" y="517" type="line"/>
      <point x="358" y="524"/>
      <point x="327" y="528"/>
      <point x="294" y="528" type="curve"/>
      <point x="159" y="528"/>
      <point x="70" y="464"/>
      <point x="70" y="344" type="curve"/>
      <point x="70" y="268"/>
      <point x="106" y="214"/>
      <point x="167" y="185" type="curve"/>
      <point x="167" y="179" type="line"/>
      <point x="111" y="166"/>
      <point x="74" y="145"/>
      <point x="74" y="95" type="curve"/>
      <point x="74" y="50"/>
      <point x="102" y="27"/>
      <point x="146" y="14" type="curve"/>
      <point x="146" y="8" type="line"/>
      <point x="84" y="-8"/>
      <point x="47" y="-35"/>
      <point x="47" y="-93" type="curve"/>
      <point x="47" y="-163"/>
      <point x="101" y="-212"/>
      <point x="297" y="-212" type="curve"/>
      <point x="493" y="-212"/>
      <point x="583" y="-161"/>
    </contour>
    <contour>
      <point x="443" y="-63" type="curve"/>
      <point x="443" y="-98"/>
      <point x="413" y="-117"/>
      <point x="346" y="-117" type="curve"/>
      <point x="259" y="-117" type="line" smooth="yes"/>
      <point x="194" y="-117"/>
      <point x="169" y="-94"/>
      <point x="169" y="-62" type="curve"/>
      <point x="169" y="-45"/>
      <point x="176" y="-31"/>
      <point x="189" y="-20" type="curve"/>
      <point x="366" y="-20" type="line" smooth="yes"/>
      <point x="426" y="-20"/>
      <point x="443" y="-36"/>
    </contour>
    <contour>
      <point x="294" y="254" type="curve"/>
      <point x="236" y="254"/>
      <point x="210" y="287"/>
      <point x="210" y="332" type="curve"/>
      <point x="210" y="356" type="line" smooth="yes"/>
      <point x="210" y="401"/>
      <point x="236" y="434"/>
      <point x="294" y="434" type="curve"/>
      <point x="353" y="434"/>
      <point x="380" y="401"/>
      <point x="380" y="356" type="curve"/>
      <point x="380" y="332" type="line" smooth="yes"/>
      <point x="380" y="287"/>
      <point x="353" y="254"/>
    </contour>
  </outline>
</glyph>
<glyph name="Hcircumflex" format="1">
  <advance width="600"/>
  <unicode hex="0124"/>
  <outline>
    <contour>
      <point x="494" y="797" type="line"/>
      <point x="362" y="956" type="line"/>
      <point x="238" y="956" type="line"/>
      <point x="106" y="797" type="line"/>
      <point x="177" y="739" type="line"/>
      <point x="298" y="854" type="line"/>
      <point x="419" y="739" type="line"/>
    </contour>
    <contour>
      <point x="212" y="292" type="line"/>
      <point x="388" y="292" type="line"/>
      <point x="388" y="0" type="line"/>
      <point x="539" y="0" type="line"/>
      <point x="539" y="698" type="line"/>
      <point x="388" y="698" type="line"/>
      <point x="388" y="415" type="line"/>
      <point x="212" y="415" type="line"/>
      <point x="212" y="698" type="line"/>
      <point x="61" y="698" type="line"/>
      <point x="61" y="0" type="line"/>
      <point x="212" y="0" type="line"/>
    </contour>
  </outline>
</glyph>
<glyph name="hcircumflex" format="1">
  <advance width="600"/>
  <unicode hex="0125"/>
  <outline>
    <contour>
      <point x="333" y="809" type="line"/>
      <point x="201" y="968" type="line"/>
      <point x="77" y="968" type="line"/>
      <point x="-55" y="809" type="line"/>
      <point x="16" y="751" type="line"/>
      <point x="137" y="866" type="line"/>
      <point x="258" y="751" type="line"/>
    </contour>
    <contour>
      <point x="213" y="740" type="line"/>
      <point x="65" y="740" type="line"/>
      <point x="65" y="0" type="line"/>
      <point x="213" y="0" type="line"/>
      <point x="213" y="339" type="line" smooth="yes"/>
      <point x="213" y="389"/>
      <point x="258" y="414"/>
      <point x="304" y="414" type="curve"/>
      <point x="362" y="414"/>
      <point x="391" y="379"/>
      <point x="391" y="314" type="curve"/>
      <point x="391" y="0" type="line"/>
      <point x="539" y="0" type="line"/>
      <point x="539" y="334" type="line" smooth="yes"/>
      <point x="539" y="459"/>
      <point x="470" y="528"/>
      <point x="371" y="528" type="curve"/>
      <point x="288" y="528"/>
      <point x="242" y="480"/>
      <point x="219" y="422" type="curve"/>
      <point x="213" y="422" type="line"/>
    </contour>
  </outline>
</glyph>
<glyph name="itilde" format="1">
  <advance width="600"/>
  <unicode hex="0129"/>
  <outline>
    <contour>
      <point x="408" y="592" type="curve"/>
      <point x="461" y="592"/>
      <point x="498" y="620"/>
      <point x="522" y="656" type="curve"/>
      <point x="470" y="724" type="line"/>
      <point x="449" y="707"/>
      <point x="434" y="699"/>
      <point x="411" y="699" type="curve"/>
      <point x="385" y="699"/>
      <point x="362" y="709"/>
      <point x="333" y="721" type="curve"/>
      <point x="308" y="732"/>
      <point x="286" y="741"/>
      <point x="256" y="741" type="curve"/>
      <point x="203" y="741"/>
      <point x="166" y="713"/>
      <point x="142" y="677" type="curve"/>
      <point x="194" y="609" type="line"/>
      <point x="215" y="626"/>
      <point x="230" y="634"/>
      <point x="253" y="634" type="curve"/>
      <point x="279" y="634"/>
      <point x="302" y="624"/>
      <point x="331" y="612" type="curve"/>
      <point x="356" y="601"/>
      <point x="378" y="592"/>
    </contour>
    <contour>
      <point x="258" y="115" type="line"/>
      <point x="94" y="115" type="line"/>
      <point x="94" y="0" type="line"/>
      <point x="558" y="0" type="line"/>
      <point x="558" y="115" type="line"/>
      <point x="406" y="115" type="line"/>
      <point x="406" y="516" type="line"/>
      <point x="94" y="516" type="line"/>
      <point x="94" y="401" type="line"/>
      <point x="258" y="401" type="line"/>
    </contour>
  </outline>
</glyph>
<glyph name="Imacron" format="1">
  <advance width="600"/>
  <unicode hex="012A"/>
  <outline>
    <contour>
      <point x="453" y="888" type="line"/>
      <point x="147" y="888" type="line"/>
      <point x="147" y="785" type="line"/>
      <point x="453" y="785" type="line"/>
    </contour>
    <contour>
      <point x="75" y="111" type="line"/>
      <point x="75" y="0" type="line"/>
      <point x="525" y="0" type="line"/>
      <point x="525" y="111" type="line"/>
      <point x="375" y="111" type="line"/>
      <point x="375" y="587" type="line"/>
      <point x="525" y="587" type="line"/>
      <point x="525" y="698" type="line"/>
      <point x="75" y="698" type="line"/>
      <point x="75" y="587" type="line"/>
      <point x="225" y="587" type="line"/>
      <point x="225" y="111" type="line"/>
    </contour>
  </outline>
</glyph>
<glyph name="imacron" format="1">
  <advance width="600"/>
  <unicode hex="012B"/>
  <outline>
    <contour>
      <point x="485" y="718" type="line"/>
      <point x="179" y="718" type="line"/>
      <point x="179" y="615" type="line"/>
      <point x="485" y="615" type="line"/>
    </contour>
    <contour>
      <point x="258" y="115" type="line"/>
      <point x="94" y="115" type="line"/>
      <point x="94" y="0" type="line"/>
      <point x="558" y="0" type="line"/>
      <point x="558" y="115" type="line"/>
      <point x="406" y="115" type="line"/>
      <point x="406" y="516" type="line"/>
      <point x="94" y="516" type="line"/>
      <point x="94" y="401" type="line"/>
      <point x="258" y="401" type="line"/>
    </contour>
  </outline>
</glyph>
<glyph name="Ibreve" format="1">
  <advance width="600"/>
  <unicode hex="012C"/>
  <outline>
    <contour>
      <point x="300" y="740" type="curve"/>
      <point x="420" y="740"/>
      <point x="469" y="838"/>
      <point x="494" y="910" type="curve"/>
      <point x="411" y="952" type="line"/>
      <point x="390" y="920" type="line" smooth="yes"/>
      <point x="359" y="872"/>
      <point x="339" y="843"/>
      <point x="300" y="843" type="curve"/>
      <point x="261" y="843"/>
      <point x="241" y="872"/>
      <point x="210" y="920" type="curve"/>
      <point x="189" y="952" type="line"/>
      <point x="106" y="910" type="line"/>
      <point x="131" y="838"/>
      <point x="180" y="740"/>
    </contour>
    <contour>
      <point x="75" y="111" type="line"/>
      <point x="75" y="0" type="line"/>
      <point x="525" y="0" type="line"/>
      <point x="525" y="111" type="line"/>
      <point x="375" y="111" type="line"/>
      <point x="375" y="587" type="line"/>
      <point x="525" y="587" type="line"/>
      <point x="525" y="698" type="line"/>
      <point x="75" y="698" type="line"/>
      <point x="75" y="587" type="line"/>
      <point x="225" y="587" type="line"/>
      <point x="225" y="111" type="line"/>
    </contour>
  </outline>
</glyph>
<glyph name="ibreve" format="1">
  <advance width="600"/>
  <unicode hex="012D"/>
  <outline>
    <contour>
      <point x="332" y="570" type="curve"/>
      <point x="452" y="570"/>
      <point x="501" y="668"/>
      <point x="526" y="740" type="curve"/>
      <point x="443" y="782" type="line"/>
      <point x="422" y="750" type="line" smooth="yes"/>
      <point x="391" y="702"/>
      <point x="371" y="673"/>
      <point x="332" y="673" type="curve"/>
      <point x="293" y="673"/>
      <point x="273" y="702"/>
      <point x="242" y="750" type="curve"/>
      <point x="221" y="782" type="line"/>
      <point x="138" y="740" type="line"/>
      <point x="163" y="668"/>
      <point x="212" y="570"/>
    </contour>
    <contour>
      <point x="258" y="115" type="line"/>
      <point x="94" y="115" type="line"/>
      <point x="94" y="0" type="line"/>
      <point x="558" y="0" type="line"/>
      <point x="558" y="115" type="line"/>
      <point x="406" y="115" type="line"/>
      <point x="406" y="516" type="line"/>
      <point x="94" y="516" type="line"/>
      <point x="94" y="401" type="line"/>
      <point x="258" y="401" type="line"/>
    </contour>
  </outline>
</glyph>
<glyph name="Idotaccent" format="1">
  <advance width="600"/>
  <unicode hex="0130"/>
  <outline>
    <contour>
      <point x="300" y="752" type="curve"/>
      <point x="366" y="752"/>
      <point x="389" y="783"/>
      <point x="389" y="822" type="curve"/>
      <point x="389" y="851" type="line" smooth="yes"/>
      <point x="389" y="891"/>
      <point x="366" y="921"/>
      <point x="300" y="921" type="curve"/>
      <point x="234" y="921"/>
      <point x="211" y="891"/>
      <point x="211" y="851" type="curve"/>
      <point x="211" y="822" type="line" smooth="yes"/>
      <point x="211" y="783"/>
      <point x="234" y="752"/>
    </contour>
    <contour>
      <point x="75" y="111" type="line"/>
      <point x="75" y="0" type="line"/>
      <point x="525" y="0" type="line"/>
      <point x="525" y="111" type="line"/>
      <point x="375" y="111" type="line"/>
      <point x="375" y="587" type="line"/>
      <point x="525" y="587" type="line"/>
      <point x="525" y="698" type="line"/>
      <point x="75" y="698" type="line"/>
      <point x="75" y="587" type="line"/>
      <point x="225" y="587" type="line"/>
      <point x="225" y="111" type="line"/>
    </contour>
  </outline>
</glyph>
<glyph name="dotlessi" format="1">
  <advance width="600"/>
  <unicode hex="0131"/>
  <outline>
    <contour>
      <point x="258" y="115" type="line"/>
      <point x="94" y="115" type="line"/>
      <point x="94" y="0" type="line"/>
      <point x="558" y="0" type="line"/>
      <point x="558" y="115" type="line"/>
      <point x="406" y="115" type="line"/>
      <point x="406" y="516" type="line"/>
      <point x="94" y="516" type="line"/>
      <point x="94" y="401" type="line"/>
      <point x="258" y="401" type="line"/>
    </contour>
  </outline>
</glyph>
<glyph name="IJ" format="1">
  <advance width="600"/>
  <unicode hex="0132"/>
  <outline>
    <contour>
      <point x="525" y="195" type="curve"/>
      <point x="525" y="698" type="line"/>
      <point x="375" y="698" type="line"/>
      <point x="375" y="210" type="line" smooth="yes"/>
      <point x="375" y="142"/>
      <point x="345" y="110"/>
      <point x="294" y="110" type="curve"/>
      <point x="234" y="110"/>
      <point x="209" y="154"/>
      <point x="198" y="213" type="curve"/>
      <point x="52" y="181" type="line"/>
      <point x="73" y="69"/>
      <point x="148" y="-12"/>
      <point x="293" y="-12" type="curve"/>
      <point x="437" y="-12"/>
      <point x="525" y="69"/>
    </contour>
    <contour>
      <point x="213" y="698" type="line"/>
      <point x="63" y="698" type="line"/>
      <point x="63" y="309" type="line"/>
      <point x="213" y="309" type="line"/>
    </contour>
  </outline>
</glyph>
<glyph name="Jcircumflex" format="1">
  <advance width="600"/>
  <unicode hex="0134"/>
  <outline>
    <contour>
      <point x="515" y="797" type="line"/>
      <point x="383" y="956" type="line"/>
      <point x="259" y="956" type="line"/>
      <point x="127" y="797" type="line"/>
      <point x="198" y="739" type="line"/>
      <point x="319" y="854" type="line"/>
      <point x="440" y="739" type="line"/>
    </contour>
    <contour>
      <point x="511" y="195" type="curve"/>
      <point x="511" y="698" type="line"/>
      <point x="129" y="698" type="line"/>
      <point x="129" y="575" type="line"/>
      <point x="359" y="575" type="line"/>
      <point x="359" y="210" type="line" smooth="yes"/>
      <point x="359" y="142"/>
      <point x="329" y="110"/>
      <point x="278" y="110" type="curve"/>
      <point x="218" y="110"/>
      <point x="191" y="152"/>
      <point x="180" y="211" type="curve"/>
      <point x="38" y="182" type="line"/>
      <point x="60" y="66"/>
      <point x="135" y="-12"/>
      <point x="278" y="-12" type="curve"/>
      <point x="420" y="-12"/>
      <point x="513" y="69"/>
    </contour>
  </outline>
</glyph>
<glyph name="Lacute" format="1">
  <advance width="600"/>
  <unicode hex="0139"/>
  <outline>
    <contour>
      <point x="95" y="783" type="line"/>
      <point x="183" y="740" type="line"/>
      <point x="317" y="916" type="line"/>
      <point x="194" y="977" type="line"/>
    </contour>
    <contour>
      <point x="92" y="698" type="line"/>
      <point x="92" y="0" type="line"/>
      <point x="543" y="0" type="line"/>
      <point x="543" y="123" type="line"/>
      <point x="243" y="123" type="line"/>
      <point x="243" y="698" type="line"/>
    </contour>
  </outline>
</glyph>
<glyph name="lacute" format="1">
  <advance width="600"/>
  <unicode hex="013A"/>
  <outline>
    <contour>
      <point x="228" y="795" type="line"/>
      <point x="316" y="752" type="line"/>
      <point x="450" y="928" type="line"/>
      <point x="327" y="989" type="line"/>
    </contour>
    <contour>
      <point x="226" y="115" type="line"/>
      <point x="68" y="115" type="line"/>
      <point x="68" y="0" type="line"/>
      <point x="532" y="0" type="line"/>
      <point x="532" y="115" type="line"/>
      <point x="374" y="115" type="line"/>
      <point x="374" y="740" type="line"/>
      <point x="68" y="740" type="line"/>
      <point x="68" y="625" type="line"/>
      <point x="226" y="625" type="line"/>
    </contour>
  </outline>
</glyph>
<glyph name="uni013C" format="1">
  <advance width="600"/>
  <unicode hex="013C"/>
  <outline>
    <contour>
      <point x="379" y="-54" type="line"/>
      <point x="222" y="-54" type="line"/>
      <point x="204" y="-269" type="line"/>
      <point x="292" y="-269" type="line"/>
    </contour>
    <contour>
      <point x="226" y="115" type="line"/>
      <point x="68" y="115" type="line"/>
      <point x="68" y="0" type="line"/>
      <point x="532" y="0" type="line"/>
      <point x="532" y="115" type="line"/>
      <point x="374" y="115" type="line"/>
      <point x="374" y="740" type="line"/>
      <point x="68" y="740" type="line"/>
      <point x="68" y="625" type="line"/>
      <point x="226" y="625" type="line"/>
    </contour>
  </outline>
</glyph>
<glyph name="Ldot" format="1">
  <advance width="600"/>
  <unicode hex="013F"/>
  <outline>
    <contour>
      <point x="445" y="243" type="curve"/>
      <point x="511" y="243"/>
      <point x="534" y="274"/>
      <point x="534" y="313" type="curve"/>
      <point x="534" y="342" type="line" smooth="yes"/>
      <point x="534" y="382"/>
      <point x="511" y="412"/>
      <point x="445" y="412" type="curve"/>
      <point x="379" y="412"/>
      <point x="356" y="382"/>
      <point x="356" y="342" type="curve"/>
      <point x="356" y="313" type="line" smooth="yes"/>
      <point x="356" y="274"/>
      <point x="379" y="243"/>
    </contour>
    <contour>
      <point x="92" y="698" type="line"/>
      <point x="92" y="0" type="line"/>
      <point x="543" y="0" type="line"/>
      <point x="543" y="123" type="line"/>
      <point x="243" y="123" type="line"/>
      <point x="243" y="698" type="line"/>
    </contour>
  </outline>
</glyph>
<glyph name="ldot" format="1">
  <advance width="600"/>
  <unicode hex="0140"/>
  <outline>
    <contour>
      <point x="511" y="223" type="curve"/>
      <point x="577" y="223"/>
      <point x="600" y="254"/>
      <point x="600" y="293" type="curve"/>
      <point x="600" y="322" type="line" smooth="yes"/>
      <point x="600" y="362"/>
      <point x="577" y="392"/>
      <point x="511" y="392" type="curve"/>
      <point x="445" y="392"/>
      <point x="422" y="362"/>
      <point x="422" y="322" type="curve"/>
      <point x="422" y="293" type="line" smooth="yes"/>
      <point x="422" y="254"/>
      <point x="445" y="223"/>
    </contour>
    <contour>
      <point x="211" y="115" type="line"/>
      <point x="53" y="115" type="line"/>
      <point x="53" y="0" type="line"/>
      <point x="517" y="0" type="line"/>
      <point x="517" y="115" type="line"/>
      <point x="359" y="115" type="line"/>
      <point x="359" y="740" type="line"/>
      <point x="53" y="740" type="line"/>
      <point x="53" y="625" type="line"/>
      <point x="211" y="625" type="line"/>
    </contour>
  </outline>
</glyph>
<glyph name="nacute" format="1">
  <advance width="600"/>
  <unicode hex="0144"/>
  <outline>
    <contour>
      <point x="230" y="613" type="line"/>
      <point x="318" y="570" type="line"/>
      <point x="452" y="746" type="line"/>
      <point x="329" y="807" type="line"/>
    </contour>
    <contour>
      <point x="65" y="516" type="line"/>
      <point x="65" y="0" type="line"/>
      <point x="213" y="0" type="line"/>
      <point x="213" y="339" type="line" smooth="yes"/>
      <point x="213" y="389"/>
      <point x="258" y="414"/>
      <point x="304" y="414" type="curve"/>
      <point x="362" y="414"/>
      <point x="391" y="379"/>
      <point x="391" y="314" type="curve"/>
      <point x="391" y="0" type="line"/>
      <point x="539" y="0" type="line"/>
      <point x="539" y="334" type="line" smooth="yes"/>
      <point x="539" y="459"/>
      <point x="470" y="528"/>
      <point x="371" y="528" type="curve"/>
      <point x="288" y="528"/>
      <point x="242" y="480"/>
      <point x="219" y="422" type="curve"/>
      <point x="213" y="422" type="line"/>
      <point x="213" y="516" type="line"/>
    </contour>
  </outline>
</glyph>
<glyph name="uni0145" format="1">
  <advance width="600"/>
  <unicode hex="0145"/>
  <outline>
    <contour>
      <point x="379" y="-54" type="line"/>
      <point x="222" y="-54" type="line"/>
      <point x="204" y="-269" type="line"/>
      <point x="292" y="-269" type="line"/>
    </contour>
    <contour>
      <point x="189" y="464" type="line"/>
      <point x="200" y="464" type="line"/>
      <point x="359" y="0" type="line"/>
      <point x="539" y="0" type="line"/>
      <point x="539" y="698" type="line"/>
      <point x="411" y="698" type="line"/>
      <point x="411" y="234" type="line"/>
      <point x="400" y="234" type="line"/>
      <point x="241" y="698" type="line"/>
      <point x="61" y="698" type="line"/>
      <point x="61" y="0" type="line"/>
      <point x="189" y="0" type="line"/>
    </contour>
  </outline>
</glyph>
<glyph name="Ncaron" format="1">
  <advance width="600"/>
  <unicode hex="0147"/>
  <outline>
    <contour>
      <point x="106" y="907" type="line"/>
      <point x="238" y="748" type="line"/>
      <point x="362" y="748" type="line"/>
      <point x="494" y="907" type="line"/>
      <point x="423" y="965" type="line"/>
      <point x="302" y="850" type="line"/>
      <point x="181" y="965" type="line"/>
    </contour>
    <contour>
      <point x="189" y="464" type="line"/>
      <point x="200" y="464" type="line"/>
      <point x="359" y="0" type="line"/>
      <point x="539" y="0" type="line"/>
      <point x="539" y="698" type="line"/>
      <point x="411" y="698" type="line"/>
      <point x="411" y="234" type="line"/>
      <point x="400" y="234" type="line"/>
      <point x="241" y="698" type="line"/>
      <point x="61" y="698" type="line"/>
      <point x="61" y="0" type="line"/>
      <point x="189" y="0" type="line"/>
    </contour>
  </outline>
</glyph>
<glyph name="ncaron" format="1">
  <advance width="600"/>
  <unicode hex="0148"/>
  <outline>
    <contour>
      <point x="108" y="737" type="line"/>
      <point x="240" y="578" type="line"/>
      <point x="364" y="578" type="line"/>
      <point x="496" y="737" type="line"/>
      <point x="425" y="795" type="line"/>
      <point x="304" y="680" type="line"/>
      <point x="183" y="795" type="line"/>
    </contour>
    <contour>
      <point x="65" y="516" type="line"/>
      <point x="65" y="0" type="line"/>
      <point x="213" y="0" type="line"/>
      <point x="213" y="339" type="line" smooth="yes"/>
      <point x="213" y="389"/>
      <point x="258" y="414"/>
      <point x="304" y="414" type="curve"/>
      <point x="362" y="414"/>
      <point x="391" y="379"/>
      <point x="391" y="314" type="curve"/>
      <point x="391" y="0" type="line"/>
      <point x="539" y="0" type="line"/>
      <point x="539" y="334" type="line" smooth="yes"/>
      <point x="539" y="459"/>
      <point x="470" y="528"/>
      <point x="371" y="528" type="curve"/>
      <point x="288" y="528"/>
      <point x="242" y="480"/>
      <point x="219" y="422" type="curve"/>
      <point x="213" y="422" type="line"/>
      <point x="213" y="516" type="line"/>
    </contour>
  </outline>
</glyph>
<glyph name="napostrophe" format="1">
  <advance width="600"/>
  <unicode hex="0149"/>
  <outline>
    <contour>
      <point x="251" y="516" type="line"/>
      <point x="111" y="516" type="line"/>
      <point x="111" y="0" type="line"/>
      <point x="251" y="0" type="line"/>
      <point x="251" y="339" type="line" smooth="yes"/>
      <point x="251" y="393"/>
      <point x="291" y="420"/>
      <point x="333" y="420" type="curve"/>
      <point x="383" y="420"/>
      <point x="409" y="382"/>
      <point x="409" y="314" type="curve"/>
      <point x="409" y="0" type="line"/>
      <point x="549" y="0" type="line"/>
      <point x="549" y="342" type="line" smooth="yes"/>
      <point x="549" y="467"/>
      <point x="489" y="528"/>
      <point x="400" y="528" type="curve"/>
      <point x="321" y="528"/>
      <point x="278" y="480"/>
      <point x="257" y="422" type="curve"/>
      <point x="251" y="422" type="line"/>
    </contour>
    <contour>
      <point x="135" y="740" type="line"/>
      <point x="6" y="740" type="line"/>
      <point x="0" y="529" type="line"/>
      <point x="69" y="529" type="line"/>
    </contour>
  </outline>
</glyph>
<glyph name="Obreve" format="1">
  <advance width="600"/>
  <unicode hex="014E"/>
  <outline>
    <contour>
      <point x="300" y="740" type="curve"/>
      <point x="420" y="740"/>
      <point x="469" y="838"/>
      <point x="494" y="910" type="curve"/>
      <point x="411" y="952" type="line"/>
      <point x="390" y="920" type="line" smooth="yes"/>
      <point x="359" y="872"/>
      <point x="339" y="843"/>
      <point x="300" y="843" type="curve"/>
      <point x="261" y="843"/>
      <point x="241" y="872"/>
      <point x="210" y="920" type="curve"/>
      <point x="189" y="952" type="line"/>
      <point x="106" y="910" type="line"/>
      <point x="131" y="838"/>
      <point x="180" y="740"/>
    </contour>
    <contour>
      <point x="300" y="-12" type="curve"/>
      <point x="487" y="-12"/>
      <point x="573" y="121"/>
      <point x="573" y="349" type="curve"/>
      <point x="573" y="577"/>
      <point x="487" y="710"/>
      <point x="300" y="710" type="curve"/>
      <point x="113" y="710"/>
      <point x="27" y="577"/>
      <point x="27" y="349" type="curve"/>
      <point x="27" y="121"/>
      <point x="113" y="-12"/>
    </contour>
    <contour>
      <point x="300" y="109" type="curve"/>
      <point x="215" y="109"/>
      <point x="187" y="176"/>
      <point x="187" y="288" type="curve"/>
      <point x="187" y="410" type="line" smooth="yes"/>
      <point x="187" y="522"/>
      <point x="215" y="589"/>
      <point x="300" y="589" type="curve"/>
      <point x="385" y="589"/>
      <point x="413" y="522"/>
      <point x="413" y="410" type="curve"/>
      <point x="413" y="289" type="line" smooth="yes"/>
      <point x="413" y="176"/>
      <point x="385" y="109"/>
    </contour>
  </outline>
</glyph>
<glyph name="obreve" format="1">
  <advance width="600"/>
  <unicode hex="014F"/>
  <outline>
    <contour>
      <point x="300" y="570" type="curve"/>
      <point x="420" y="570"/>
      <point x="469" y="668"/>
      <point x="494" y="740" type="curve"/>
      <point x="411" y="782" type="line"/>
      <point x="390" y="750" type="line" smooth="yes"/>
      <point x="359" y="702"/>
      <point x="339" y="673"/>
      <point x="300" y="673" type="curve"/>
      <point x="261" y="673"/>
      <point x="241" y="702"/>
      <point x="210" y="750" type="curve"/>
      <point x="189" y="782" type="line"/>
      <point x="106" y="740" type="line"/>
      <point x="131" y="668"/>
      <point x="180" y="570"/>
    </contour>
    <contour>
      <point x="300" y="-12" type="curve"/>
      <point x="461" y="-12"/>
      <point x="559" y="91"/>
      <point x="559" y="258" type="curve"/>
      <point x="559" y="425"/>
      <point x="461" y="528"/>
      <point x="300" y="528" type="curve"/>
      <point x="139" y="528"/>
      <point x="41" y="425"/>
      <point x="41" y="258" type="curve"/>
      <point x="41" y="91"/>
      <point x="139" y="-12"/>
    </contour>
    <contour>
      <point x="300" y="98" type="curve"/>
      <point x="234" y="98"/>
      <point x="194" y="141"/>
      <point x="194" y="217" type="curve"/>
      <point x="194" y="299" type="line" smooth="yes"/>
      <point x="194" y="375"/>
      <point x="234" y="418"/>
      <point x="300" y="418" type="curve"/>
      <point x="366" y="418"/>
      <point x="406" y="375"/>
      <point x="406" y="299" type="curve"/>
      <point x="406" y="217" type="line" smooth="yes"/>
      <point x="406" y="141"/>
      <point x="366" y="98"/>
    </contour>
  </outline>
</glyph>
<glyph name="Ohungarumlaut" format="1">
  <advance width="600"/>
  <unicode hex="0150"/>
  <outline>
    <contour>
      <point x="129" y="779" type="line"/>
      <point x="210" y="740" type="line"/>
      <point x="344" y="916" type="line"/>
      <point x="228" y="973" type="line"/>
    </contour>
    <contour>
      <point x="334" y="779" type="line"/>
      <point x="415" y="740" type="line"/>
      <point x="549" y="916" type="line"/>
      <point x="433" y="973" type="line"/>
    </contour>
    <contour>
      <point x="300" y="-12" type="curve"/>
      <point x="487" y="-12"/>
      <point x="573" y="121"/>
      <point x="573" y="349" type="curve"/>
      <point x="573" y="577"/>
      <point x="487" y="710"/>
      <point x="300" y="710" type="curve"/>
      <point x="113" y="710"/>
      <point x="27" y="577"/>
      <point x="27" y="349" type="curve"/>
      <point x="27" y="121"/>
      <point x="113" y="-12"/>
    </contour>
    <contour>
      <point x="300" y="109" type="curve"/>
      <point x="215" y="109"/>
      <point x="187" y="176"/>
      <point x="187" y="288" type="curve"/>
      <point x="187" y="410" type="line" smooth="yes"/>
      <point x="187" y="522"/>
      <point x="215" y="589"/>
      <point x="300" y="589" type="curve"/>
      <point x="385" y="589"/>
      <point x="413" y="522"/>
      <point x="413" y="410" type="curve"/>
      <point x="413" y="289" type="line" smooth="yes"/>
      <point x="413" y="176"/>
      <point x="385" y="109"/>
    </contour>
  </outline>
</glyph>
<glyph name="ohungarumlaut" format="1">
  <advance width="600"/>
  <unicode hex="0151"/>
  <outline>
    <contour>
      <point x="129" y="609" type="line"/>
      <point x="210" y="570" type="line"/>
      <point x="344" y="746" type="line"/>
      <point x="228" y="803" type="line"/>
    </contour>
    <contour>
      <point x="334" y="609" type="line"/>
      <point x="415" y="570" type="line"/>
      <point x="549" y="746" type="line"/>
      <point x="433" y="803" type="line"/>
    </contour>
    <contour>
      <point x="300" y="-12" type="curve"/>
      <point x="461" y="-12"/>
      <point x="559" y="91"/>
      <point x="559" y="258" type="curve"/>
      <point x="559" y="425"/>
      <point x="461" y="528"/>
      <point x="300" y="528" type="curve"/>
      <point x="139" y="528"/>
      <point x="41" y="425"/>
      <point x="41" y="258" type="curve"/>
      <point x="41" y="91"/>
      <point x="139" y="-12"/>
    </contour>
    <contour>
      <point x="300" y="98" type="curve"/>
      <point x="234" y="98"/>
      <point x="194" y="141"/>
      <point x="194" y="217" type="curve"/>
      <point x="194" y="299" type="line" smooth="yes"/>
      <point x="194" y="375"/>
      <point x="234" y="418"/>
      <point x="300" y="418" type="curve"/>
      <point x="366" y="418"/>
      <point x="406" y="375"/>
      <point x="406" y="299" type="curve"/>
      <point x="406" y="217" type="line" smooth="yes"/>
      <point x="406" y="141"/>
      <point x="366" y="98"/>
    </contour>
  </outline>
</glyph>
<glyph name="OE" format="1">
  <advance width="900"/>
  <unicode hex="0152"/>
  <outline>
    <contour>
      <point x="452" y="0" type="curve"/>
      <point x="833" y="0" type="line"/>
      <point x="833" y="135" type="line"/>
      <point x="599" y="135" type="line"/>
      <point x="599" y="286" type="line"/>
      <point x="787" y="286" type="line"/>
      <point x="787" y="420" type="line"/>
      <point x="599" y="420" type="line"/>
      <point x="599" y="563" type="line"/>
      <point x="833" y="563" type="line"/>
      <point x="833" y="698" type="line"/>
      <point x="460" y="698" type="line"/>
      <point x="423" y="706"/>
      <point x="382" y="710"/>
      <point x="337" y="710" type="curve"/>
      <point x="152" y="710"/>
      <point x="60" y="586"/>
      <point x="60" y="349" type="curve"/>
      <point x="60" y="112"/>
      <point x="152" y="-12"/>
      <point x="337" y="-12" type="curve"/>
      <point x="382" y="-12"/>
      <point x="423" y="-8"/>
    </contour>
    <contour>
      <point x="337" y="123" type="curve"/>
      <point x="247" y="123"/>
      <point x="221" y="186"/>
      <point x="221" y="297" type="curve"/>
      <point x="221" y="401" type="line" smooth="yes"/>
      <point x="221" y="512"/>
      <point x="247" y="575"/>
      <point x="337" y="575" type="curve"/>
      <point x="376" y="575"/>
      <point x="413" y="571"/>
      <point x="447" y="565" type="curve"/>
      <point x="447" y="132" type="line"/>
      <point x="413" y="126"/>
      <point x="376" y="123"/>
    </contour>
  </outline>
</glyph>
<glyph name="Racute" format="1">
  <advance width="600"/>
  <unicode hex="0154"/>
  <outline>
    <contour>
      <point x="232" y="783" type="line"/>
      <point x="320" y="740" type="line"/>
      <point x="454" y="916" type="line"/>
      <point x="331" y="977" type="line"/>
    </contour>
    <contour>
      <point x="76" y="0" type="line"/>
      <point x="224" y="0" type="line"/>
      <point x="224" y="259" type="line"/>
      <point x="293" y="259" type="line"/>
      <point x="410" y="0" type="line"/>
      <point x="574" y="0" type="line"/>
      <point x="437" y="279" type="line"/>
      <point x="515" y="301"/>
      <point x="560" y="378"/>
      <point x="560" y="476" type="curve"/>
      <point x="560" y="611"/>
      <point x="483" y="698"/>
      <point x="346" y="698" type="curve"/>
      <point x="76" y="698" type="line"/>
    </contour>
    <contour>
      <point x="310" y="375" type="curve"/>
      <point x="224" y="375" type="line"/>
      <point x="224" y="577" type="line"/>
      <point x="310" y="577" type="line" smooth="yes"/>
      <point x="380" y="577"/>
      <point x="404" y="552"/>
      <point x="404" y="491" type="curve"/>
      <point x="404" y="461" type="line" smooth="yes"/>
      <point x="404" y="400"/>
      <point x="380" y="375"/>
    </contour>
  </outline>
</glyph>
<glyph name="rcaron" format="1">
  <advance width="600"/>
  <unicode hex="0159"/>
  <outline>
    <contour>
      <point x="131" y="737" type="line"/>
      <point x="263" y="578" type="line"/>
      <point x="387" y="578" type="line"/>
      <point x="519" y="737" type="line"/>
      <point x="448" y="795" type="line"/>
      <point x="327" y="680" type="line"/>
      <point x="206" y="795" type="line"/>
    </contour>
    <contour>
      <point x="193" y="115" type="line"/>
      <point x="74" y="115" type="line"/>
      <point x="74" y="0" type="line"/>
      <point x="511" y="0" type="line"/>
      <point x="511" y="115" type="line"/>
      <point x="341" y="115" type="line"/>
      <point x="341" y="293" type="line" smooth="yes"/>
      <point x="341" y="351"/>
      <point x="386" y="380"/>
      <point x="452" y="380" type="curve"/>
      <point x="562" y="380" type="line"/>
      <point x="562" y="516" type="line"/>
      <point x="513" y="516" type="line" smooth="yes"/>
      <point x="419" y="516"/>
      <point x="370" y="450"/>
      <point x="348" y="382" type="curve"/>
      <point x="341" y="382" type="line"/>
      <point x="341" y="516" type="line"/>
      <point x="74" y="516" type="line"/>
      <point x="74" y="401" type="line"/>
      <point x="193" y="401" type="line"/>
    </contour>
  </outline>
</glyph>
<glyph name="uni0162" format="1">
  <advance width="600"/>
  <unicode hex="0162"/>
  <outline>
    <contour>
      <point x="379" y="-54" type="line"/>
      <point x="222" y="-54" type="line"/>
      <point x="204" y="-269" type="line"/>
      <point x="292" y="-269" type="line"/>
    </contour>
    <contour>
      <point x="375" y="0" type="line"/>
      <point x="375" y="575" type="line"/>
      <point x="576" y="575" type="line"/>
      <point x="576" y="698" type="line"/>
      <point x="24" y="698" type="line"/>
      <point x="24" y="575" type="line"/>
      <point x="225" y="575" type="line"/>
      <point x="225" y="0" type="line"/>
    </contour>
  </outline>
</glyph>
<glyph name="Tcaron" format="1">
  <advance width="600"/>
  <unicode hex="0164"/>
  <outline>
    <contour>
      <point x="106" y="907" type="line"/>
      <point x="238" y="748" type="line"/>
      <point x="362" y="748" type="line"/>
      <point x="494" y="907" type="line"/>
      <point x="423" y="965" type="line"/>
      <point x="302" y="850" type="line"/>
      <point x="181" y="965" type="line"/>
    </contour>
    <contour>
      <point x="375" y="0" type="line"/>
      <point x="375" y="575" type="line"/>
      <point x="576" y="575" type="line"/>
      <point x="576" y="698" type="line"/>
      <point x="24" y="698" type="line"/>
      <point x="24" y="575" type="line"/>
      <point x="225" y="575" type="line"/>
      <point x="225" y="0" type="line"/>
    </contour>
  </outline>
</glyph>
<glyph name="tcaron" format="1">
  <advance width="600"/>
  <unicode hex="0165"/>
  <outline>
    <contour>
      <point x="396" y="565" type="line"/>
      <point x="493" y="565" type="line"/>
      <point x="559" y="780" type="line"/>
      <point x="402" y="780" type="line"/>
    </contour>
    <contour>
      <point x="340" y="0" type="curve"/>
      <point x="531" y="0" type="line"/>
      <point x="531" y="115" type="line"/>
      <point x="330" y="115" type="line"/>
      <point x="330" y="401" type="line"/>
      <point x="531" y="401" type="line"/>
      <point x="531" y="516" type="line"/>
      <point x="330" y="516" type="line"/>
      <point x="330" y="698" type="line"/>
      <point x="194" y="698" type="line"/>
      <point x="194" y="577" type="line" smooth="yes"/>
      <point x="194" y="531"/>
      <point x="177" y="516"/>
      <point x="133" y="516" type="curve"/>
      <point x="42" y="516" type="line"/>
      <point x="42" y="401" type="line"/>
      <point x="182" y="401" type="line"/>
      <point x="182" y="149" type="line" smooth="yes"/>
      <point x="182" y="62"/>
      <point x="233" y="0"/>
    </contour>
  </outline>
</glyph>
<glyph name="Utilde" format="1">
  <advance width="600"/>
  <unicode hex="0168"/>
  <outline>
    <contour>
      <point x="376" y="762" type="curve"/>
      <point x="429" y="762"/>
      <point x="466" y="790"/>
      <point x="490" y="826" type="curve"/>
      <point x="438" y="894" type="line"/>
      <point x="417" y="877"/>
      <point x="402" y="869"/>
      <point x="379" y="869" type="curve"/>
      <point x="353" y="869"/>
      <point x="330" y="879"/>
      <point x="301" y="891" type="curve"/>
      <point x="276" y="902"/>
      <point x="254" y="911"/>
      <point x="224" y="911" type="curve"/>
      <point x="171" y="911"/>
      <point x="134" y="883"/>
      <point x="110" y="847" type="curve"/>
      <point x="162" y="779" type="line"/>
      <point x="183" y="796"/>
      <point x="198" y="804"/>
      <point x="221" y="804" type="curve"/>
      <point x="247" y="804"/>
      <point x="270" y="794"/>
      <point x="299" y="782" type="curve"/>
      <point x="324" y="771"/>
      <point x="346" y="762"/>
    </contour>
    <contour>
      <point x="205" y="256" type="curve"/>
      <point x="205" y="698" type="line"/>
      <point x="55" y="698" type="line"/>
      <point x="55" y="276" type="line" smooth="yes"/>
      <point x="55" y="85"/>
      <point x="97" y="-12"/>
      <point x="300" y="-12" type="curve"/>
      <point x="503" y="-12"/>
      <point x="545" y="85"/>
      <point x="545" y="276" type="curve"/>
      <point x="545" y="698" type="line"/>
      <point x="395" y="698" type="line"/>
      <point x="395" y="256" type="line" smooth="yes"/>
      <point x="395" y="167"/>
      <point x="388" y="109"/>
      <point x="300" y="109" type="curve"/>
      <point x="212" y="109"/>
      <point x="205" y="167"/>
    </contour>
  </outline>
</glyph>
<glyph name="utilde" format="1">
  <advance width="600"/>
  <unicode hex="0169"/>
  <outline>
    <contour>
      <point x="374" y="592" type="curve"/>
      <point x="427" y="592"/>
      <point x="464" y="620"/>
      <point x="488" y="656" type="curve"/>
      <point x="436" y="724" type="line"/>
      <point x="415" y="707"/>
      <point x="400" y="699"/>
      <point x="377" y="699" type="curve"/>
      <point x="351" y="699"/>
      <point x="328" y="709"/>
      <point x="299" y="721" type="curve"/>
      <point x="274" y="732"/>
      <point x="252" y="741"/>
      <point x="222" y="741" type="curve"/>
      <point x="169" y="741"/>
      <point x="132" y="713"/>
      <point x="108" y="677" type="curve"/>
      <point x="160" y="609" type="line"/>
      <point x="181" y="626"/>
      <point x="196" y="634"/>
      <point x="219" y="634" type="curve"/>
      <point x="245" y="634"/>
      <point x="268" y="624"/>
      <point x="297" y="612" type="curve"/>
      <point x="322" y="601"/>
      <point x="344" y="592"/>
    </contour>
    <contour>
      <point x="381" y="94" type="curve"/>
      <point x="387" y="94" type="line"/>
      <point x="387" y="0" type="line"/>
      <point x="535" y="0" type="line"/>
      <point x="535" y="516" type="line"/>
      <point x="387" y="516" type="line"/>
      <point x="387" y="177" type="line" smooth="yes"/>
      <point x="387" y="127"/>
      <point x="342" y="102"/>
      <point x="296" y="102" type="curve"/>
      <point x="238" y="102"/>
      <point x="209" y="137"/>
      <point x="209" y="202" type="curve"/>
      <point x="209" y="516" type="line"/>
      <point x="61" y="516" type="line"/>
      <point x="61" y="182" type="line" smooth="yes"/>
      <point x="61" y="57"/>
      <point x="130" y="-12"/>
      <point x="229" y="-12" type="curve"/>
      <point x="312" y="-12"/>
      <point x="358" y="36"/>
    </contour>
  </outline>
</glyph>
<glyph name="Umacron" format="1">
  <advance width="600"/>
  <unicode hex="016A"/>
  <outline>
    <contour>
      <point x="453" y="888" type="line"/>
      <point x="147" y="888" type="line"/>
      <point x="147" y="785" type="line"/>
      <point x="453" y="785" type="line"/>
    </contour>
    <contour>
      <point x="205" y="256" type="curve"/>
      <point x="205" y="698" type="line"/>
      <point x="55" y="698" type="line"/>
      <point x="55" y="276" type="line" smooth="yes"/>
      <point x="55" y="85"/>
      <point x="97" y="-12"/>
      <point x="300" y="-12" type="curve"/>
      <point x="503" y="-12"/>
      <point x="545" y="85"/>
      <point x="545" y="276" type="curve"/>
      <point x="545" y="698" type="line"/>
      <point x="395" y="698" type="line"/>
      <point x="395" y="256" type="line" smooth="yes"/>
      <point x="395" y="167"/>
      <point x="388" y="109"/>
      <point x="300" y="109" type="curve"/>
      <point x="212" y="109"/>
      <point x="205" y="167"/>
    </contour>
  </outline>
</glyph>
<glyph name="Ubreve" format="1">
  <advance width="600"/>
  <unicode hex="016C"/>
  <outline>
    <contour>
      <point x="300" y="740" type="curve"/>
      <point x="420" y="740"/>
      <point x="469" y="838"/>
      <point x="494" y="910" type="curve"/>
      <point x="411" y="952" type="line"/>
      <point x="390" y="920" type="line" smooth="yes"/>
      <point x="359" y="872"/>
      <point x="339" y="843"/>
      <point x="300" y="843" type="curve"/>
      <point x="261" y="843"/>
      <point x="241" y="872"/>
      <point x="210" y="920" type="curve"/>
      <point x="189" y="952" type="line"/>
      <point x="106" y="910" type="line"/>
      <point x="131" y="838"/>
      <point x="180" y="740"/>
    </contour>
    <contour>
      <point x="205" y="256" type="curve"/>
      <point x="205" y="698" type="line"/>
      <point x="55" y="698" type="line"/>
      <point x="55" y="276" type="line" smooth="yes"/>
      <point x="55" y="85"/>
      <point x="97" y="-12"/>
      <point x="300" y="-12" type="curve"/>
      <point x="503" y="-12"/>
      <point x="545" y="85"/>
      <point x="545" y="276" type="curve"/>
      <point x="545" y="698" type="line"/>
      <point x="395" y="698" type="line"/>
      <point x="395" y="256" type="line" smooth="yes"/>
      <point x="395" y="167"/>
      <point x="388" y="109"/>
      <point x="300" y="109" type="curve"/>
      <point x="212" y="109"/>
      <point x="205" y="167"/>
    </contour>
  </outline>
</glyph>
<glyph name="ubreve" format="1">
  <advance width="600"/>
  <unicode hex="016D"/>
  <outline>
    <contour>
      <point x="298" y="570" type="curve"/>
      <point x="418" y="570"/>
      <point x="467" y="668"/>
      <point x="492" y="740" type="curve"/>
      <point x="409" y="782" type="line"/>
      <point x="388" y="750" type="line" smooth="yes"/>
      <point x="357" y="702"/>
      <point x="337" y="673"/>
      <point x="298" y="673" type="curve"/>
      <point x="259" y="673"/>
      <point x="239" y="702"/>
      <point x="208" y="750" type="curve"/>
      <point x="187" y="782" type="line"/>
      <point x="104" y="740" type="line"/>
      <point x="129" y="668"/>
      <point x="178" y="570"/>
    </contour>
    <contour>
      <point x="381" y="94" type="curve"/>
      <point x="387" y="94" type="line"/>
      <point x="387" y="0" type="line"/>
      <point x="535" y="0" type="line"/>
      <point x="535" y="516" type="line"/>
      <point x="387" y="516" type="line"/>
      <point x="387" y="177" type="line" smooth="yes"/>
      <point x="387" y="127"/>
      <point x="342" y="102"/>
      <point x="296" y="102" type="curve"/>
      <point x="238" y="102"/>
      <point x="209" y="137"/>
      <point x="209" y="202" type="curve"/>
      <point x="209" y="516" type="line"/>
      <point x="61" y="516" type="line"/>
      <point x="61" y="182" type="line" smooth="yes"/>
      <point x="61" y="57"/>
      <point x="130" y="-12"/>
      <point x="229" y="-12" type="curve"/>
      <point x="312" y="-12"/>
      <point x="358" y="36"/>
    </contour>
  </outline>
</glyph>
<glyph name="Uring" format="1">
  <advance width="600"/>
  <unicode hex="016E"/>
  <outline>
    <contour>
      <point x="300" y="719" type="curve"/>
      <point x="383" y="719"/>
      <point x="448" y="780"/>
      <point x="448" y="862" type="curve"/>
      <point x="448" y="945"/>
      <point x="383" y="1005"/>
      <point x="300" y="1005" type="curve"/>
      <point x="217" y="1005"/>
      <point x="152" y="944"/>
      <point x="152" y="862" type="curve"/>
      <point x="152" y="779"/>
      <point x="217" y="719"/>
    </contour>
    <contour>
      <point x="300" y="794" type="curve"/>
      <point x="267" y="794"/>
      <point x="249" y="813"/>
      <point x="249" y="845" type="curve"/>
      <point x="249" y="879" type="line" smooth="yes"/>
      <point x="249" y="910"/>
      <point x="267" y="930"/>
      <point x="300" y="930" type="curve"/>
      <point x="333" y="930"/>
      <point x="351" y="911"/>
      <point x="351" y="879" type="curve"/>
      <point x="351" y="845" type="line" smooth="yes"/>
      <point x="351" y="814"/>
      <point x="333" y="794"/>
    </contour>
    <contour>
      <point x="205" y="256" type="curve"/>
      <point x="205" y="698" type="line"/>
      <point x="55" y="698" type="line"/>
      <point x="55" y="276" type="line" smooth="yes"/>
      <point x="55" y="85"/>
      <point x="97" y="-12"/>
      <point x="300" y="-12" type="curve"/>
      <point x="503" y="-12"/>
      <point x="545" y="85"/>
      <point x="545" y="276" type="curve"/>
      <point x="545" y="698" type="line"/>
      <point x="395" y="698" type="line"/>
      <point x="395" y="256" type="line" smooth="yes"/>
      <point x="395" y="167"/>
      <point x="388" y="109"/>
      <point x="300" y="109" type="curve"/>
      <point x="212" y="109"/>
      <point x="205" y="167"/>
    </contour>
  </outline>
</glyph>
<glyph name="uring" format="1">
  <advance width="600"/>
  <unicode hex="016F"/>
  <outline>
    <contour>
      <point x="298" y="549" type="curve"/>
      <point x="381" y="549"/>
      <point x="446" y="610"/>
      <point x="446" y="692" type="curve"/>
      <point x="446" y="775"/>
      <point x="381" y="835"/>
      <point x="298" y="835" type="curve"/>
      <point x="215" y="835"/>
      <point x="150" y="774"/>
      <point x="150" y="692" type="curve"/>
      <point x="150" y="609"/>
      <point x="215" y="549"/>
    </contour>
    <contour>
      <point x="298" y="624" type="curve"/>
      <point x="265" y="624"/>
      <point x="247" y="643"/>
      <point x="247" y="675" type="curve"/>
      <point x="247" y="709" type="line" smooth="yes"/>
      <point x="247" y="740"/>
      <point x="265" y="760"/>
      <point x="298" y="760" type="curve"/>
      <point x="331" y="760"/>
      <point x="349" y="741"/>
      <point x="349" y="709" type="curve"/>
      <point x="349" y="675" type="line" smooth="yes"/>
      <point x="349" y="644"/>
      <point x="331" y="624"/>
    </contour>
    <contour>
      <point x="381" y="94" type="curve"/>
      <point x="387" y="94" type="line"/>
      <point x="387" y="0" type="line"/>
      <point x="535" y="0" type="line"/>
      <point x="535" y="516" type="line"/>
      <point x="387" y="516" type="line"/>
      <point x="387" y="177" type="line" smooth="yes"/>
      <point x="387" y="127"/>
      <point x="342" y="102"/>
      <point x="296" y="102" type="curve"/>
      <point x="238" y="102"/>
      <point x="209" y="137"/>
      <point x="209" y="202" type="curve"/>
      <point x="209" y="516" type="line"/>
      <point x="61" y="516" type="line"/>
      <point x="61" y="182" type="line" smooth="yes"/>
      <point x="61" y="57"/>
      <point x="130" y="-12"/>
      <point x="229" y="-12" type="curve"/>
      <point x="312" y="-12"/>
      <point x="358" y="36"/>
    </contour>
  </outline>
</glyph>
<glyph name="Uhungarumlaut" format="1">
  <advance width="600"/>
  <unicode hex="0170"/>
  <outline>
    <contour>
      <point x="129" y="779" type="line"/>
      <point x="210" y="740" type="line"/>
      <point x="344" y="916" type="line"/>
      <point x="228" y="973" type="line"/>
    </contour>
    <contour>
      <point x="334" y="779" type="line"/>
      <point x="415" y="740" type="line"/>
      <point x="549" y="916" type="line"/>
      <point x="433" y="973" type="line"/>
    </contour>
    <contour>
      <point x="205" y="256" type="curve"/>
      <point x="205" y="698" type="line"/>
      <point x="55" y="698" type="line"/>
      <point x="55" y="276" type="line" smooth="yes"/>
      <point x="55" y="85"/>
      <point x="97" y="-12"/>
      <point x="300" y="-12" type="curve"/>
      <point x="503" y="-12"/>
      <point x="545" y="85"/>
      <point x="545" y="276" type="curve"/>
      <point x="545" y="698" type="line"/>
      <point x="395" y="698" type="line"/>
      <point x="395" y="256" type="line" smooth="yes"/>
      <point x="395" y="167"/>
      <point x="388" y="109"/>
      <point x="300" y="109" type="curve"/>
      <point x="212" y="109"/>
      <point x="205" y="167"/>
    </contour>
  </outline>
</glyph>
<glyph name="Wcircumflex" format="1">
  <advance width="900"/>
  <unicode hex="0174"/>
  <outline>
    <contour>
      <point x="641" y="797" type="line"/>
      <point x="509" y="956" type="line"/>
      <point x="385" y="956" type="line"/>
      <point x="253" y="797" type="line"/>
      <point x="324" y="739" type="line"/>
      <point x="445" y="854" type="line"/>
      <point x="566" y="739" type="line"/>
    </contour>
    <component base="W"/>
  </outline>
</glyph>
<glyph name="wcircumflex" format="1">
  <advance width="900"/>
  <unicode hex="0175"/>
  <outline>
    <contour>
      <point x="654" y="627" type="line"/>
      <point x="522" y="786" type="line"/>
      <point x="398" y="786" type="line"/>
      <point x="266" y="627" type="line"/>
      <point x="337" y="569" type="line"/>
      <point x="458" y="684" type="line"/>
      <point x="579" y="569" type="line"/>
    </contour>
    <component base="w"/>
  </outline>
</glyph>
<glyph name="Ycircumflex" format="1">
  <advance width="600"/>
  <unicode hex="0176"/>
  <outline>
    <contour>
      <point x="494" y="797" type="line"/>
      <point x="362" y="956" type="line"/>
      <point x="238" y="956" type="line"/>
      <point x="106" y="797" type="line"/>
      <point x="177" y="739" type="line"/>
      <point x="298" y="854" type="line"/>
      <point x="419" y="739" type="line"/>
    </contour>
    <contour>
      <point x="225" y="247" type="line"/>
      <point x="225" y="0" type="line"/>
      <point x="375" y="0" type="line"/>
      <point x="375" y="247" type="line"/>
      <point x="596" y="698" type="line"/>
      <point x="435" y="698" type="line"/>
      <point x="361" y="536" type="line"/>
      <point x="307" y="399" type="line"/>
      <point x="299" y="399" type="line"/>
      <point x="245" y="536" type="line"/>
      <point x="171" y="698" type="line"/>
      <point x="4" y="698" type="line"/>
    </contour>
  </outline>
</glyph>
<glyph name="ycircumflex" format="1">
  <advance width="600"/>
  <unicode hex="0177"/>
  <outline>
    <contour>
      <point x="497" y="627" type="line"/>
      <point x="365" y="786" type="line"/>
      <point x="241" y="786" type="line"/>
      <point x="109" y="627" type="line"/>
      <point x="180" y="569" type="line"/>
      <point x="301" y="684" type="line"/>
      <point x="422" y="569" type="line"/>
    </contour>
    <contour>
      <point x="581" y="516" type="line"/>
      <point x="430" y="516" type="line"/>
      <point x="353" y="299" type="line"/>
      <point x="308" y="149" type="line"/>
      <point x="300" y="149" type="line"/>
      <point x="253" y="299" type="line"/>
      <point x="178" y="516" type="line"/>
      <point x="19" y="516" type="line"/>
      <point x="227" y="3" type="line"/>
      <point x="195" y="-85" type="line"/>
      <point x="71" y="-85" type="line"/>
      <point x="71" y="-200" type="line"/>
      <point x="173" y="-200" type="line" smooth="yes"/>
      <point x="261" y="-200"/>
      <point x="308" y="-158"/>
      <point x="338" y="-83" type="curve"/>
    </contour>
  </outline>
</glyph>
<glyph name="Ydieresis" format="1">
  <advance width="600"/>
  <unicode hex="0178"/>
  <outline>
    <contour>
      <point x="190" y="761" type="curve"/>
      <point x="250" y="761"/>
      <point x="271" y="789"/>
      <point x="271" y="824" type="curve"/>
      <point x="271" y="850" type="line" smooth="yes"/>
      <point x="271" y="885"/>
      <point x="250" y="912"/>
      <point x="190" y="912" type="curve"/>
      <point x="131" y="912"/>
      <point x="110" y="885"/>
      <point x="110" y="850" type="curve"/>
      <point x="110" y="824" type="line" smooth="yes"/>
      <point x="110" y="789"/>
      <point x="131" y="761"/>
    </contour>
    <contour>
      <point x="410" y="761" type="curve"/>
      <point x="469" y="761"/>
      <point x="490" y="789"/>
      <point x="490" y="824" type="curve"/>
      <point x="490" y="850" type="line" smooth="yes"/>
      <point x="490" y="885"/>
      <point x="469" y="912"/>
      <point x="410" y="912" type="curve"/>
      <point x="350" y="912"/>
      <point x="329" y="885"/>
      <point x="329" y="850" type="curve"/>
      <point x="329" y="824" type="line" smooth="yes"/>
      <point x="329" y="789"/>
      <point x="350" y="761"/>
    </contour>
    <contour>
      <point x="225" y="247" type="line"/>
      <point x="225" y="0" type="line"/>
      <point x="375" y="0" type="line"/>
      <point x="375" y="247" type="line"/>
      <point x="596" y="698" type="line"/>
      <point x="435" y="698" type="line"/>
      <point x="361" y="536" type="line"/>
      <point x="307" y="399" type="line"/>
      <point x="299" y="399" type="line"/>
      <point x="245" y="536" type="line"/>
      <point x="171" y="698" type="line"/>
      <point x="4" y="698" type="line"/>
    </contour>
  </outline>
</glyph>
<glyph name="Zacute" format="1">
  <advance width="600"/>
  <unicode hex="0179"/>
  <outline>
    <contour>
      <point x="228" y="783" type="line"/>
      <point x="316" y="740" type="line"/>
      <point x="450" y="916" type="line"/>
      <point x="327" y="977" type="line"/>
    </contour>
    <contour>
      <point x="48" y="0" type="line"/>
      <point x="551" y="0" type="line"/>
      <point x="551" y="123" type="line"/>
      <point x="216" y="123" type="line"/>
      <point x="541" y="567" type="line"/>
      <point x="541" y="698" type="line"/>
      <point x="58" y="698" type="line"/>
      <point x="58" y="575" type="line"/>
      <point x="373" y="575" type="line"/>
      <point x="48" y="131" type="line"/>
    </contour>
  </outline>
</glyph>
<glyph name="zacute" format="1">
  <advance width="600"/>
  <unicode hex="017A"/>
  <outline>
    <contour>
      <point x="228" y="613" type="line"/>
      <point x="316" y="570" type="line"/>
      <point x="450" y="746" type="line"/>
      <point x="327" y="807" type="line"/>
    </contour>
    <contour>
      <point x="66" y="123" type="line"/>
      <point x="66" y="0" type="line"/>
      <point x="534" y="0" type="line"/>
      <point x="534" y="115" type="line"/>
      <point x="237" y="115" type="line"/>
      <point x="524" y="393" type="line"/>
      <point x="524" y="516" type="line"/>
      <point x="76" y="516" type="line"/>
      <point x="76" y="401" type="line"/>
      <point x="353" y="401" type="line"/>
    </contour>
  </outline>
</glyph>
<glyph name="Zdotaccent" format="1">
  <advance width="600"/>
  <unicode hex="017B"/>
  <outline>
    <contour>
      <point x="300" y="752" type="curve"/>
      <point x="366" y="752"/>
      <point x="389" y="783"/>
      <point x="389" y="822" type="curve"/>
      <point x="389" y="851" type="line" smooth="yes"/>
      <point x="389" y="891"/>
      <point x="366" y="921"/>
      <point x="300" y="921" type="curve"/>
      <point x="234" y="921"/>
      <point x="211" y="891"/>
      <point x="211" y="851" type="curve"/>
      <point x="211" y="822" type="line" smooth="yes"/>
      <point x="211" y="783"/>
      <point x="234" y="752"/>
    </contour>
    <contour>
      <point x="48" y="0" type="line"/>
      <point x="551" y="0" type="line"/>
      <point x="551" y="123" type="line"/>
      <point x="216" y="123" type="line"/>
      <point x="541" y="567" type="line"/>
      <point x="541" y="698" type="line"/>
      <point x="58" y="698" type="line"/>
      <point x="58" y="575" type="line"/>
      <point x="373" y="575" type="line"/>
      <point x="48" y="131" type="line"/>
    </contour>
  </outline>
</glyph>
<glyph name="zdotaccent" format="1">
  <advance width="600"/>
  <unicode hex="017C"/>
  <outline>
    <contour>
      <point x="300" y="582" type="curve"/>
      <point x="366" y="582"/>
      <point x="389" y="613"/>
      <point x="389" y="652" type="curve"/>
      <point x="389" y="681" type="line" smooth="yes"/>
      <point x="389" y="721"/>
      <point x="366" y="751"/>
      <point x="300" y="751" type="curve"/>
      <point x="234" y="751"/>
      <point x="211" y="721"/>
      <point x="211" y="681" type="curve"/>
      <point x="211" y="652" type="line" smooth="yes"/>
      <point x="211" y="613"/>
      <point x="234" y="582"/>
    </contour>
    <contour>
      <point x="66" y="123" type="line"/>
      <point x="66" y="0" type="line"/>
      <point x="534" y="0" type="line"/>
      <point x="534" y="115" type="line"/>
      <point x="237" y="115" type="line"/>
      <point x="524" y="393" type="line"/>
      <point x="524" y="516" type="line"/>
      <point x="76" y="516" type="line"/>
      <point x="76" y="401" type="line"/>
      <point x="353" y="401" type="line"/>
    </contour>
  </outline>
</glyph>
<glyph name="Zcaron" format="1">
  <advance width="600"/>
  <unicode hex="017D"/>
  <outline>
    <contour>
      <point x="106" y="907" type="line"/>
      <point x="238" y="748" type="line"/>
      <point x="362" y="748" type="line"/>
      <point x="494" y="907" type="line"/>
      <point x="423" y="965" type="line"/>
      <point x="302" y="850" type="line"/>
      <point x="181" y="965" type="line"/>
    </contour>
    <contour>
      <point x="48" y="0" type="line"/>
      <point x="551" y="0" type="line"/>
      <point x="551" y="123" type="line"/>
      <point x="216" y="123" type="line"/>
      <point x="541" y="567" type="line"/>
      <point x="541" y="698" type="line"/>
      <point x="58" y="698" type="line"/>
      <point x="58" y="575" type="line"/>
      <point x="373" y="575" type="line"/>
      <point x="48" y="131" type="line"/>
    </contour>
  </outline>
</glyph>
<glyph name="zcaron" format="1">
  <advance width="600"/>
  <unicode hex="017E"/>
  <outline>
    <contour>
      <point x="106" y="737" type="line"/>
      <point x="238" y="578" type="line"/>
      <point x="362" y="578" type="line"/>
      <point x="494" y="737" type="line"/>
      <point x="423" y="795" type="line"/>
      <point x="302" y="680" type="line"/>
      <point x="181" y="795" type="line"/>
    </contour>
    <contour>
      <point x="66" y="123" type="line"/>
      <point x="66" y="0" type="line"/>
      <point x="534" y="0" type="line"/>
      <point x="534" y="115" type="line"/>
      <point x="237" y="115" type="line"/>
      <point x="524" y="393" type="line"/>
      <point x="524" y="516" type="line"/>
      <point x="76" y="516" type="line"/>
      <point x="76" y="401" type="line"/>
      <point x="353" y="401" type="line"/>
    </contour>
  </outline>
</glyph>
<glyph name="uni018F" format="1">
  <advance width="600"/>
  <unicode hex="018F"/>
  <outline>
    <contour>
      <point x="300" y="-12" type="curve"/>
      <point x="487" y="-12"/>
      <point x="573" y="121"/>
      <point x="573" y="349" type="curve"/>
      <point x="573" y="577"/>
      <point x="488" y="710"/>
      <point x="298" y="710" type="curve"/>
      <point x="160" y="710"/>
      <point x="75" y="639"/>
      <point x="43" y="514" type="curve"/>
      <point x="173" y="465" type="line"/>
      <point x="190" y="538"/>
      <point x="222" y="590"/>
      <point x="298" y="590" type="curve"/>
      <point x="389" y="590"/>
      <point x="420" y="517"/>
      <point x="420" y="410" type="curve"/>
      <point x="420" y="399" type="line"/>
      <point x="27" y="399" type="line"/>
      <point x="27" y="349" type="line" smooth="yes"/>
      <point x="27" y="121"/>
      <point x="113" y="-12"/>
    </contour>
    <contour>
      <point x="300" y="106" type="curve"/>
      <point x="209" y="106"/>
      <point x="180" y="175"/>
      <point x="180" y="288" type="curve"/>
      <point x="180" y="291" type="line"/>
      <point x="420" y="291" type="line"/>
      <point x="420" y="288" type="line" smooth="yes"/>
      <point x="420" y="175"/>
      <point x="391" y="106"/>
    </contour>
  </outline>
</glyph>
<glyph name="Aringacute" format="1">
  <advance width="600"/>
  <unicode hex="01FA"/>
  <outline>
    <contour>
      <point x="240" y="1033" type="line"/>
      <point x="293" y="976" type="line"/>
      <point x="443" y="1069" type="line"/>
      <point x="369" y="1150" type="line"/>
    </contour>
    <contour>
      <point x="300" y="725" type="curve"/>
      <point x="385" y="725"/>
      <point x="452" y="770"/>
      <point x="452" y="845" type="curve"/>
      <point x="452" y="921"/>
      <point x="385" y="965"/>
      <point x="300" y="965" type="curve"/>
      <point x="215" y="965"/>
      <point x="148" y="920"/>
      <point x="148" y="845" type="curve"/>
      <point x="148" y="769"/>
      <point x="215" y="725"/>
    </contour>
    <contour>
      <point x="300" y="795" type="curve"/>
      <point x="264" y="795"/>
      <point x="245" y="808"/>
      <point x="245" y="840" type="curve"/>
      <point x="245" y="850" type="line" smooth="yes"/>
      <point x="245" y="881"/>
      <point x="264" y="895"/>
      <point x="300" y="895" type="curve"/>
      <point x="336" y="895"/>
      <point x="355" y="882"/>
      <point x="355" y="850" type="curve"/>
      <point x="355" y="840" type="line" smooth="yes"/>
      <point x="355" y="809"/>
      <point x="336" y="795"/>
    </contour>
    <contour>
      <point x="391" y="168" type="line"/>
      <point x="435" y="0" type="line"/>
      <point x="595" y="0" type="line"/>
      <point x="406" y="698" type="line"/>
      <point x="194" y="698" type="line"/>
      <point x="5" y="0" type="line"/>
      <point x="157" y="0" type="line"/>
      <point x="200" y="168" type="line"/>
    </contour>
    <contour>
      <point x="292" y="553" type="line"/>
      <point x="300" y="553" type="line"/>
      <point x="368" y="289" type="line"/>
      <point x="224" y="289" type="line"/>
    </contour>
  </outline>
</glyph>
<glyph name="aringacute" format="1">
  <advance width="600"/>
  <unicode hex="01FB"/>
  <outline>
    <contour>
      <point x="232" y="863" type="line"/>
      <point x="285" y="806" type="line"/>
      <point x="435" y="899" type="line"/>
      <point x="361" y="980" type="line"/>
    </contour>
    <contour>
      <point x="292" y="555" type="curve"/>
      <point x="377" y="555"/>
      <point x="444" y="600"/>
      <point x="444" y="675" type="curve"/>
      <point x="444" y="751"/>
      <point x="377" y="795"/>
      <point x="292" y="795" type="curve"/>
      <point x="207" y="795"/>
      <point x="140" y="750"/>
      <point x="140" y="675" type="curve"/>
      <point x="140" y="599"/>
      <point x="207" y="555"/>
    </contour>
    <contour>
      <point x="292" y="625" type="curve"/>
      <point x="256" y="625"/>
      <point x="237" y="638"/>
      <point x="237" y="670" type="curve"/>
      <point x="237" y="680" type="line" smooth="yes"/>
      <point x="237" y="711"/>
      <point x="256" y="725"/>
      <point x="292" y="725" type="curve"/>
      <point x="328" y="725"/>
      <point x="347" y="712"/>
      <point x="347" y="680" type="curve"/>
      <point x="347" y="670" type="line" smooth="yes"/>
      <point x="347" y="639"/>
      <point x="328" y="625"/>
    </contour>
    <contour>
      <point x="487" y="0" type="curve"/>
      <point x="572" y="0" type="line"/>
      <point x="572" y="107" type="line"/>
      <point x="515" y="107" type="line"/>
      <point x="515" y="333" type="line" smooth="yes"/>
      <point x="515" y="463"/>
      <point x="431" y="528"/>
      <point x="290" y="528" type="curve"/>
      <point x="175" y="528"/>
      <point x="100" y="485"/>
      <point x="66" y="427" type="curve"/>
      <point x="147" y="355" type="line"/>
      <point x="175" y="393"/>
      <point x="211" y="420"/>
      <point x="273" y="420" type="curve"/>
      <point x="341" y="420"/>
      <point x="367" y="388"/>
      <point x="367" y="327" type="curve"/>
      <point x="367" y="301" type="line"/>
      <point x="284" y="301" type="line" smooth="yes"/>
      <point x="133" y="301"/>
      <point x="52" y="250"/>
      <point x="52" y="142" type="curve"/>
      <point x="52" y="45"/>
      <point x="118" y="-12"/>
      <point x="218" y="-12" type="curve"/>
      <point x="297" y="-12"/>
      <point x="357" y="24"/>
      <point x="375" y="91" type="curve"/>
      <point x="380" y="91" type="line"/>
      <point x="386" y="33"/>
      <point x="426" y="0"/>
    </contour>
    <contour>
      <point x="274" y="85" type="curve"/>
      <point x="227" y="85"/>
      <point x="197" y="104"/>
      <point x="197" y="140" type="curve"/>
      <point x="197" y="160" type="line" smooth="yes"/>
      <point x="197" y="200"/>
      <point x="229" y="221"/>
      <point x="288" y="221" type="curve"/>
      <point x="367" y="221" type="line"/>
      <point x="367" y="159" type="line" smooth="yes"/>
      <point x="367" y="111"/>
      <point x="326" y="85"/>
    </contour>
  </outline>
</glyph>
<glyph name="AEacute" format="1">
  <advance width="600"/>
  <unicode hex="01FC"/>
  <outline>
    <contour>
      <point x="292" y="783" type="line"/>
      <point x="380" y="740" type="line"/>
      <point x="514" y="916" type="line"/>
      <point x="391" y="977" type="line"/>
    </contour>
    <contour>
      <point x="175" y="168" type="line"/>
      <point x="279" y="168" type="line"/>
      <point x="279" y="0" type="line"/>
      <point x="572" y="0" type="line"/>
      <point x="572" y="111" type="line"/>
      <point x="417" y="111" type="line"/>
      <point x="417" y="298" type="line"/>
      <point x="562" y="298" type="line"/>
      <point x="562" y="409" type="line"/>
      <point x="417" y="409" type="line"/>
      <point x="417" y="587" type="line"/>
      <point x="572" y="587" type="line"/>
      <point x="572" y="698" type="line"/>
      <point x="155" y="698" type="line"/>
      <point x="-4" y="0" type="line"/>
      <point x="142" y="0" type="line"/>
    </contour>
    <contour>
      <point x="197" y="279" type="line"/>
      <point x="257" y="594" type="line"/>
      <point x="279" y="594" type="line"/>
      <point x="279" y="279" type="line"/>
    </contour>
  </outline>
</glyph>
<glyph name="aeacute" format="1">
  <advance width="600"/>
  <unicode hex="01FD"/>
  <outline>
    <contour>
      <point x="448" y="746" type="line"/>
      <point x="325" y="807" type="line"/>
      <point x="226" y="613" type="line"/>
      <point x="314" y="570" type="line"/>
    </contour>
    <contour>
      <point x="200" y="-12"/>
      <point x="246" y="24"/>
      <point x="258" y="105" type="curve"/>
      <point x="262" y="105" type="line"/>
      <point x="286" y="23"/>
      <point x="349" y="-12"/>
      <point x="419" y="-12" type="curve" smooth="yes"/>
      <point x="511" y="-12"/>
      <point x="558" y="51"/>
      <point x="578" y="129" type="curve"/>
      <point x="481" y="156" type="line"/>
      <point x="471" y="117"/>
      <point x="454" y="84"/>
      <point x="417" y="84" type="curve" smooth="yes"/>
      <point x="370" y="84"/>
      <point x="345" y="136"/>
      <point x="345" y="213" type="curve" smooth="yes"/>
      <point x="345" y="228" type="line"/>
      <point x="584" y="228" type="line"/>
      <point x="584" y="289" type="line" smooth="yes"/>
      <point x="584" y="435"/>
      <point x="518" y="528"/>
      <point x="416" y="528" type="curve" smooth="yes"/>
      <point x="365" y="528"/>
      <point x="325" y="504"/>
      <point x="297" y="455" type="curve"/>
      <point x="293" y="455" type="line"/>
      <point x="270" y="502"/>
      <point x="229" y="528"/>
      <point x="168" y="528" type="curve" smooth="yes"/>
      <point x="91" y="528"/>
      <point x="35" y="487"/>
      <point x="13" y="401" type="curve"/>
      <point x="105" y="368" type="line"/>
      <point x="117" y="410"/>
      <point x="132" y="436"/>
      <point x="167" y="436" type="curve" smooth="yes"/>
      <point x="206" y="436"/>
      <point x="226" y="405"/>
      <point x="226" y="348" type="curve" smooth="yes"/>
      <point x="226" y="305" type="line"/>
      <point x="186" y="305" type="line" smooth="yes"/>
      <point x="69" y="305"/>
      <point x="4" y="248"/>
      <point x="4" y="141" type="curve" smooth="yes"/>
      <point x="4" y="39"/>
      <point x="62" y="-12"/>
      <point x="137" y="-12" type="curve" smooth="yes"/>
    </contour>
    <contour>
      <point x="136" y="78"/>
      <point x="120" y="101"/>
      <point x="120" y="138" type="curve" smooth="yes"/>
      <point x="120" y="157" type="line" smooth="yes"/>
      <point x="120" y="204"/>
      <point x="148" y="228"/>
      <point x="197" y="228" type="curve" smooth="yes"/>
      <point x="226" y="228" type="line"/>
      <point x="226" y="179" type="line" smooth="yes"/>
      <point x="226" y="114"/>
      <point x="211" y="78"/>
      <point x="169" y="78" type="curve" smooth="yes"/>
    </contour>
    <contour>
      <point x="454" y="438"/>
      <point x="475" y="393"/>
      <point x="475" y="337" type="curve" smooth="yes"/>
      <point x="475" y="305" type="line"/>
      <point x="345" y="305" type="line"/>
      <point x="345" y="337" type="line" smooth="yes"/>
      <point x="345" y="393"/>
      <point x="366" y="438"/>
      <point x="410" y="438" type="curve" smooth="yes"/>
    </contour>
  </outline>
</glyph>
<glyph name="oslashacute" format="1">
  <advance width="600"/>
  <unicode hex="01FF"/>
  <outline>
    <contour>
      <point x="228" y="613" type="line"/>
      <point x="316" y="570" type="line"/>
      <point x="450" y="746" type="line"/>
      <point x="327" y="807" type="line"/>
    </contour>
    <contour>
      <point x="92" y="84" type="curve"/>
      <point x="23" y="1" type="line"/>
      <point x="105" y="-59" type="line"/>
      <point x="169" y="18" type="line"/>
      <point x="205" y="-1"/>
      <point x="250" y="-12"/>
      <point x="300" y="-12" type="curve"/>
      <point x="461" y="-12"/>
      <point x="559" y="91"/>
      <point x="559" y="258" type="curve"/>
      <point x="559" y="328"/>
      <point x="542" y="387"/>
      <point x="508" y="432" type="curve"/>
      <point x="577" y="515" type="line"/>
      <point x="495" y="575" type="line"/>
      <point x="431" y="498" type="line"/>
      <point x="395" y="517"/>
      <point x="350" y="528"/>
      <point x="300" y="528" type="curve"/>
      <point x="139" y="528"/>
      <point x="41" y="425"/>
      <point x="41" y="258" type="curve"/>
      <point x="41" y="188"/>
      <point x="58" y="129"/>
    </contour>
    <contour>
      <point x="300" y="418" type="curve"/>
      <point x="324" y="418"/>
      <point x="345" y="412"/>
      <point x="361" y="401" type="curve"/>
      <point x="196" y="200" type="line"/>
      <point x="194" y="207"/>
      <point x="194" y="217"/>
      <point x="194" y="225" type="curve"/>
      <point x="194" y="299" type="line" smooth="yes"/>
      <point x="194" y="375"/>
      <point x="234" y="418"/>
    </contour>
    <contour>
      <point x="300" y="98" type="curve"/>
      <point x="276" y="98"/>
      <point x="255" y="104"/>
      <point x="239" y="115" type="curve"/>
      <point x="404" y="316" type="line"/>
      <point x="406" y="309"/>
      <point x="406" y="299"/>
      <point x="406" y="291" type="curve"/>
      <point x="406" y="217" type="line" smooth="yes"/>
      <point x="406" y="141"/>
      <point x="366" y="98"/>
    </contour>
  </outline>
</glyph>
<glyph name="uni0218" format="1">
  <advance width="600"/>
  <unicode hex="0218"/>
  <outline>
    <contour>
      <point x="371" y="-54" type="line"/>
      <point x="214" y="-54" type="line"/>
      <point x="196" y="-269" type="line"/>
      <point x="284" y="-269" type="line"/>
    </contour>
    <contour>
      <point x="289" y="-12" type="curve"/>
      <point x="464" y="-12"/>
      <point x="556" y="84"/>
      <point x="556" y="215" type="curve"/>
      <point x="556" y="325"/>
      <point x="491" y="391"/>
      <point x="379" y="411" type="curve"/>
      <point x="306" y="424" type="line" smooth="yes"/>
      <point x="238" y="436"/>
      <point x="210" y="457"/>
      <point x="210" y="505" type="curve"/>
      <point x="210" y="560"/>
      <point x="244" y="588"/>
      <point x="311" y="588" type="curve"/>
      <point x="374" y="588"/>
      <point x="426" y="563"/>
      <point x="463" y="522" type="curve"/>
      <point x="548" y="617" type="line"/>
      <point x="499" y="674"/>
      <point x="417" y="710"/>
      <point x="310" y="710" type="curve"/>
      <point x="152" y="710"/>
      <point x="59" y="632"/>
      <point x="59" y="498" type="curve"/>
      <point x="59" y="396"/>
      <point x="112" y="319"/>
      <point x="237" y="298" type="curve"/>
      <point x="310" y="286" type="line" smooth="yes"/>
      <point x="378" y="275"/>
      <point x="404" y="252"/>
      <point x="404" y="203" type="curve"/>
      <point x="404" y="143"/>
      <point x="365" y="110"/>
      <point x="294" y="110" type="curve"/>
      <point x="232" y="110"/>
      <point x="169" y="136"/>
      <point x="118" y="192" type="curve"/>
      <point x="31" y="96" type="line"/>
      <point x="84" y="30"/>
      <point x="173" y="-12"/>
    </contour>
  </outline>
</glyph>
<glyph name="uni021B" format="1">
  <advance width="600"/>
  <unicode hex="021B"/>
  <outline>
    <contour>
      <point x="440" y="-54" type="line"/>
      <point x="283" y="-54" type="line"/>
      <point x="265" y="-269" type="line"/>
      <point x="353" y="-269" type="line"/>
    </contour>
    <contour>
      <point x="340" y="0" type="curve"/>
      <point x="531" y="0" type="line"/>
      <point x="531" y="115" type="line"/>
      <point x="330" y="115" type="line"/>
      <point x="330" y="401" type="line"/>
      <point x="531" y="401" type="line"/>
      <point x="531" y="516" type="line"/>
      <point x="330" y="516" type="line"/>
      <point x="330" y="698" type="line"/>
      <point x="194" y="698" type="line"/>
      <point x="194" y="577" type="line" smooth="yes"/>
      <point x="194" y="531"/>
      <point x="177" y="516"/>
      <point x="133" y="516" type="curve"/>
      <point x="42" y="516" type="line"/>
      <point x="42" y="401" type="line"/>
      <point x="182" y="401" type="line"/>
      <point x="182" y="149" type="line" smooth="yes"/>
      <point x="182" y="62"/>
      <point x="233" y="0"/>
    </contour>
  </outline>
</glyph>
<glyph name="uni0237" format="1">
  <advance width="600"/>
  <unicode hex="0237"/>
  <outline>
    <contour>
      <point x="290" y="-85" type="line"/>
      <point x="92" y="-85" type="line"/>
      <point x="92" y="-200" type="line"/>
      <point x="281" y="-200" type="line" smooth="yes"/>
      <point x="387" y="-200"/>
      <point x="438" y="-138"/>
      <point x="438" y="-51" type="curve"/>
      <point x="438" y="516" type="line"/>
      <point x="90" y="516" type="line"/>
      <point x="90" y="401" type="line"/>
      <point x="290" y="401" type="line"/>
    </contour>
  </outline>
</glyph>
<glyph name="uni02BB" format="1">
  <advance width="600"/>
  <unicode hex="02BB"/>
  <outline>
    <contour>
      <point x="396" y="794" type="line"/>
      <point x="308" y="794" type="line"/>
      <point x="221" y="579" type="line"/>
      <point x="378" y="579" type="line"/>
    </contour>
  </outline>
</glyph>
<glyph name="circumflex" format="1">
  <advance width="600"/>
  <unicode hex="02C6"/>
  <outline>
    <contour>
      <point x="494" y="627" type="line"/>
      <point x="362" y="786" type="line"/>
      <point x="238" y="786" type="line"/>
      <point x="106" y="627" type="line"/>
      <point x="177" y="569" type="line"/>
      <point x="298" y="684" type="line"/>
      <point x="419" y="569" type="line"/>
    </contour>
  </outline>
</glyph>
<glyph name="breve" format="1">
  <advance width="600"/>
  <unicode hex="02D8"/>
  <outline>
    <contour>
      <point x="300" y="570" type="curve"/>
      <point x="420" y="570"/>
      <point x="469" y="668"/>
      <point x="494" y="740" type="curve"/>
      <point x="411" y="782" type="line"/>
      <point x="390" y="750" type="line" smooth="yes"/>
      <point x="359" y="702"/>
      <point x="339" y="673"/>
      <point x="300" y="673" type="curve"/>
      <point x="261" y="673"/>
      <point x="241" y="702"/>
      <point x="210" y="750" type="curve"/>
      <point x="189" y="782" type="line"/>
      <point x="106" y="740" type="line"/>
      <point x="131" y="668"/>
      <point x="180" y="570"/>
    </contour>
  </outline>
</glyph>
<glyph name="dotaccent" format="1">
  <advance width="600"/>
  <unicode hex="02D9"/>
  <outline>
    <contour>
      <point x="300" y="582" type="curve"/>
      <point x="366" y="582"/>
      <point x="389" y="613"/>
      <point x="389" y="652" type="curve"/>
      <point x="389" y="681" type="line" smooth="yes"/>
      <point x="389" y="721"/>
      <point x="366" y="751"/>
      <point x="300" y="751" type="curve"/>
      <point x="234" y="751"/>
      <point x="211" y="721"/>
      <point x="211" y="681" type="curve"/>
      <point x="211" y="652" type="line" smooth="yes"/>
      <point x="211" y="613"/>
      <point x="234" y="582"/>
    </contour>
  </outline>
</glyph>
<glyph name="ring" format="1">
  <advance width="600"/>
  <unicode hex="02DA"/>
  <outline>
    <contour>
      <point x="300" y="549" type="curve"/>
      <point x="383" y="549"/>
      <point x="448" y="610"/>
      <point x="448" y="692" type="curve"/>
      <point x="448" y="775"/>
      <point x="383" y="835"/>
      <point x="300" y="835" type="curve"/>
      <point x="217" y="835"/>
      <point x="152" y="774"/>
      <point x="152" y="692" type="curve"/>
      <point x="152" y="609"/>
      <point x="217" y="549"/>
    </contour>
    <contour>
      <point x="300" y="624" type="curve"/>
      <point x="267" y="624"/>
      <point x="249" y="643"/>
      <point x="249" y="675" type="curve"/>
      <point x="249" y="709" type="line" smooth="yes"/>
      <point x="249" y="740"/>
      <point x="267" y="760"/>
      <point x="300" y="760" type="curve"/>
      <point x="333" y="760"/>
      <point x="351" y="741"/>
      <point x="351" y="709" type="curve"/>
      <point x="351" y="675" type="line" smooth="yes"/>
      <point x="351" y="644"/>
      <point x="333" y="624"/>
    </contour>
  </outline>
</glyph>
<glyph name="hungarumlaut" format="1">
  <advance width="600"/>
  <unicode hex="02DD"/>
  <outline>
    <contour>
      <point x="129" y="609" type="line"/>
      <point x="210" y="570" type="line"/>
      <point x="344" y="746" type="line"/>
      <point x="228" y="803" type="line"/>
    </contour>
    <contour>
      <point x="334" y="609" type="line"/>
      <point x="415" y="570" type="line"/>
      <point x="549" y="746" type="line"/>
      <point x="433" y="803" type="line"/>
    </contour>
  </outline>
</glyph>
<glyph name="uni0300" format="1">
  <advance width="0"/>
  <unicode hex="0300"/>
  <outline>
    <contour>
      <point x="-27" y="807" type="line"/>
      <point x="-150" y="746" type="line"/>
      <point x="-16" y="570" type="line"/>
      <point x="72" y="613" type="line"/>
    </contour>
  </outline>
</glyph>
<glyph name="uni0302" format="1">
  <advance width="0"/>
  <unicode hex="0302"/>
  <outline>
    <contour>
      <point x="194" y="627" type="line"/>
      <point x="62" y="786" type="line"/>
      <point x="-62" y="786" type="line"/>
      <point x="-194" y="627" type="line"/>
      <point x="-123" y="569" type="line"/>
      <point x="-2" y="684" type="line"/>
      <point x="119" y="569" type="line"/>
    </contour>
  </outline>
</glyph>
<glyph name="uni0303" format="1">
  <advance width="0"/>
  <unicode hex="0303"/>
  <outline>
    <contour>
      <point x="76" y="592" type="curve"/>
      <point x="129" y="592"/>
      <point x="166" y="620"/>
      <point x="190" y="656" type="curve"/>
      <point x="138" y="724" type="line"/>
      <point x="117" y="707"/>
      <point x="102" y="699"/>
      <point x="79" y="699" type="curve"/>
      <point x="53" y="699"/>
      <point x="30" y="709"/>
      <point x="1" y="721" type="curve"/>
      <point x="-24" y="732"/>
      <point x="-46" y="741"/>
      <point x="-76" y="741" type="curve"/>
      <point x="-129" y="741"/>
      <point x="-166" y="713"/>
      <point x="-190" y="677" type="curve"/>
      <point x="-138" y="609" type="line"/>
      <point x="-117" y="626"/>
      <point x="-102" y="634"/>
      <point x="-79" y="634" type="curve"/>
      <point x="-53" y="634"/>
      <point x="-30" y="624"/>
      <point x="-1" y="612" type="curve"/>
      <point x="24" y="601"/>
      <point x="46" y="592"/>
    </contour>
  </outline>
</glyph>
<glyph name="uni0304" format="1">
  <advance width="0"/>
  <unicode hex="0304"/>
  <outline>
    <contour>
      <point x="153" y="718" type="line"/>
      <point x="-153" y="718" type="line"/>
      <point x="-153" y="615" type="line"/>
      <point x="153" y="615" type="line"/>
    </contour>
  </outline>
</glyph>
<glyph name="uni0306" format="1">
  <advance width="0"/>
  <unicode hex="0306"/>
  <outline>
    <contour>
      <point x="0" y="570" type="curve"/>
      <point x="120" y="570"/>
      <point x="169" y="668"/>
      <point x="194" y="740" type="curve"/>
      <point x="111" y="782" type="line"/>
      <point x="90" y="750" type="line" smooth="yes"/>
      <point x="59" y="702"/>
      <point x="39" y="673"/>
      <point x="0" y="673" type="curve"/>
      <point x="-39" y="673"/>
      <point x="-59" y="702"/>
      <point x="-90" y="750" type="curve"/>
      <point x="-111" y="782" type="line"/>
      <point x="-194" y="740" type="line"/>
      <point x="-169" y="668"/>
      <point x="-120" y="570"/>
    </contour>
  </outline>
</glyph>
<glyph name="uni0307" format="1">
  <advance width="0"/>
  <unicode hex="0307"/>
  <outline>
    <contour>
      <point x="0" y="582" type="curve"/>
      <point x="66" y="582"/>
      <point x="89" y="613"/>
      <point x="89" y="652" type="curve"/>
      <point x="89" y="681" type="line" smooth="yes"/>
      <point x="89" y="721"/>
      <point x="66" y="751"/>
      <point x="0" y="751" type="curve"/>
      <point x="-66" y="751"/>
      <point x="-89" y="721"/>
      <point x="-89" y="681" type="curve"/>
      <point x="-89" y="652" type="line" smooth="yes"/>
      <point x="-89" y="613"/>
      <point x="-66" y="582"/>
    </contour>
  </outline>
</glyph>
